<svg width="60" height="87" viewBox="0 0 60 87" fill="none" xmlns="http://www.w3.org/2000/svg">
<path d="M33.2105 33.1755H18.5337C16.5443 33.1755 14.9313 34.7885 14.9313 36.776V83.2242C14.9313 85.2115 16.5443 86.8247 18.5337 86.8247H33.2107C35.2003 86.8247 36.8133 85.2115 36.8133 83.2242V36.776C36.8133 34.7885 35.2001 33.1755 33.2105 33.1755Z" fill="#E0FE10"/>
<path d="M7.58766 44.469H3.0007C1.34438 44.469 0 45.8134 0 47.4697V72.5302C0 74.1868 1.34438 75.531 3.0007 75.531H7.58766C9.24398 75.531 10.5884 74.1866 10.5884 72.5302V47.4697C10.5884 45.8134 9.24398 44.469 7.58766 44.469Z" fill="#E0FE10"/>
<path d="M78.3539 53.647H41.6461V66.3529H78.3539V53.647Z" fill="#E0FE10"/>
</svg>
