<svg width="70" height="80" viewBox="0 0 70 80" fill="none" xmlns="http://www.w3.org/2000/svg">
<g clip-path="url(#clip0_43_345)">
<path d="M40.0312 19.0483C40.2012 19.885 40.9845 20.4515 41.8244 20.3749C44.3728 20.1299 47.2761 19.9932 49.9976 19.9932C52.6743 19.9932 55.2692 20.1283 58.1676 20.4116C58.2226 20.4166 58.2792 20.42 58.3327 20.42C59.116 20.42 59.806 19.8684 59.9643 19.0866L63.2976 2.68501C63.3909 2.22672 63.2877 1.74997 63.0127 1.37328C62.7392 0.995016 62.3177 0.749985 61.8544 0.696571C57.7026 0.2216 53.936 0 49.9978 0C46.0211 0 41.9211 0.226763 38.1446 0.653283C37.6796 0.706698 37.2596 0.95153 36.9846 1.33C36.7096 1.70827 36.6063 2.18324 36.6979 2.64173L40.0312 19.0483Z" fill="#E0FE10"/>
<path d="M51.7551 30.0572C41.6586 29.4855 32.0719 33.0055 24.7821 39.9089C17.3988 46.9022 13.3322 56.4038 13.3322 66.6671C13.3322 79.5104 20.2155 91.5802 31.2955 98.1669C33.3171 99.3652 35.6921 100 38.167 100H61.8316C64.3049 100 66.6782 99.3668 68.6932 98.1702C79.9532 91.4837 86.838 79.2187 86.6647 66.1671C86.4131 47.292 70.7532 31.0921 51.7551 30.0572ZM64.2666 80.6285C62.5816 82.3485 60.1932 83.3336 57.7099 83.3336H42.2917C39.7868 83.3336 37.3684 82.3203 35.6534 80.5503C29.6851 74.3919 28.3035 65.4187 32.1318 57.6905C34.9534 51.9956 40.3701 47.9788 46.62 46.9473C52.4932 45.9773 58.4315 47.6039 62.9199 51.4138C67.4183 55.2289 69.9982 60.7887 69.9982 66.6671C69.9982 71.8969 67.9633 76.8551 64.2666 80.6285Z" fill="#E0FE10"/>
<path d="M60.7639 53.9539C57.734 51.3839 53.904 50.0056 49.9539 50.0056C49.0272 50.0056 48.094 50.0823 47.1623 50.2356C41.969 51.094 37.4657 54.4338 35.119 59.1722C31.9241 65.6171 33.074 73.0989 38.0473 78.2288C39.1372 79.3555 40.6839 80.0005 42.2922 80.0005H57.7087C59.302 80.0005 60.8237 79.3787 61.8854 78.2954C64.9221 75.1953 66.6653 70.9554 66.6653 66.6671C66.6657 61.7689 64.514 57.1355 60.7639 53.9539Z" fill="#E0FE10"/>
<path d="M64.4529 29.538C69.1795 31.448 73.4928 34.2378 77.1728 37.6913C77.9345 29.3031 78.3412 20.9798 78.3378 12.963C78.5662 9.6448 76.0328 6.53148 72.5629 5.86807C70.4879 5.40799 68.393 5.02317 66.293 4.68481L63.623 17.8263C64.073 17.903 64.538 17.9747 64.9731 18.0529C64.8945 21.7746 64.7177 25.5847 64.4529 29.538Z" fill="#E0FE10"/>
<path d="M22.8016 37.2204C26.5533 33.7404 30.8749 31.0671 35.5432 29.2806C35.2781 25.339 35.0998 21.6056 35.0232 18.0423C35.4614 17.9607 35.9264 17.8856 36.3764 17.8056L33.7065 4.65576C31.5848 5.00067 29.4965 5.39403 27.4832 5.86404C24 6.51573 21.45 9.63402 21.6749 12.849C21.6749 20.8089 22.0683 28.9871 22.8016 37.2204Z" fill="#E0FE10"/>
</g>
<defs>
<clipPath id="clip0_43_345">
<rect width="100" height="100" fill="white"/>
</clipPath>
</defs>
</svg>
