<svg width="64" height="64" viewBox="0 0 64 64" fill="none" xmlns="http://www.w3.org/2000/svg">
<g clip-path="url(#clip0_43_337)">
<path d="M50 38.3335C43.5683 38.3335 38.3334 43.5669 38.3334 50.0001C38.3334 56.4333 43.5683 61.6667 50 61.6667C56.4316 61.6667 61.6666 56.4333 61.6666 50.0001C61.6666 43.5669 56.4316 38.3335 50 38.3335ZM50 58.3335C45.4051 58.3335 41.6666 54.5952 41.6666 50.0001C41.6666 45.405 45.4049 41.6667 50 41.6667C54.5951 41.6667 58.3334 45.405 58.3334 50.0001C58.3334 54.5952 54.5949 58.3335 50 58.3335Z" fill="#E0FE10"/>
<path d="M50 45C47.2434 45 45 47.2434 45 50C45 52.7566 47.2434 55 50 55C52.7566 55 55 52.7566 55 50C55 47.2434 52.7566 45 50 45Z" fill="#E0FE10"/>
<path d="M50 10C27.9449 10 10 27.9449 10 50C10 72.0551 27.9449 90 50 90C72.0551 90 90 72.0551 90 50C90 27.9449 72.0551 10 50 10ZM65 50C65 53.5367 63.7633 56.785 61.7084 59.3518L74.5117 72.1551C75.1633 72.8068 75.1633 73.8602 74.5117 74.5117C74.1867 74.8367 73.76 75 73.3334 75C72.9066 75 72.4801 74.8367 72.1551 74.5117L59.3518 61.7084C56.785 63.7633 53.5367 65 50 65C46.4633 65 43.215 63.7633 40.6482 61.7084L27.8449 74.5117C27.5199 74.8367 27.0932 75 26.6666 75C26.24 75 25.8133 74.8367 25.4883 74.5117C24.8367 73.8602 24.8367 72.8066 25.4883 72.1551L38.2916 59.3518C36.2367 56.785 35 53.5367 35 50C35 46.4633 36.2367 43.2166 38.2916 40.6482L25.4883 27.8449C24.8367 27.1932 24.8367 26.1398 25.4883 25.4883C26.14 24.8365 27.1934 24.8365 27.8449 25.4883L40.6482 38.2916C43.215 36.2367 46.4633 35 50 35C53.5367 35 56.785 36.2367 59.3518 38.2916L72.1551 25.4883C72.8068 24.8365 73.8602 24.8365 74.5117 25.4883C75.1633 26.14 75.1633 27.1934 74.5117 27.8449L61.7084 40.6482C63.7633 43.215 65 46.4633 65 50Z" fill="#E0FE10"/>
<path d="M50 0C22.4301 0 0 22.4301 0 50C0 77.5699 22.4301 100 50 100C77.5699 100 100 77.5699 100 50C100 22.4301 77.5699 0 50 0ZM50 93.3334C26.1051 93.3334 6.6666 73.8934 6.6666 50C6.6666 26.1066 26.1051 6.6666 50 6.6666C73.8949 6.6666 93.3334 26.1066 93.3334 50C93.3334 73.8934 73.8949 93.3334 50 93.3334Z" fill="#E0FE10"/>
</g>
<defs>
<clipPath id="clip0_43_337">
<rect width="100" height="100" fill="white"/>
</clipPath>
</defs>
</svg>
