<svg width="59" height="75" viewBox="0 0 59 75" fill="none" xmlns="http://www.w3.org/2000/svg">
<g clip-path="url(#clip0_43_362)">
<path d="M94.9999 59.9998H91.6382C91.0383 26.7667 72.5983 0 50 0C27.4017 0 8.96175 26.7667 8.36188 59.9998H5.00013C2.24343 59.9998 0.000213623 62.2433 0.000213623 64.9998C0.000213623 67.1715 1.39852 69.0047 3.33694 69.6931L3.34686 74.9998H16.6534L16.6634 69.6931C18.6018 69.0049 20.0001 67.1715 20.0001 64.9998C20.0001 62.2431 17.7567 59.9998 15.0002 59.9998H11.6952C12.0868 38.8616 19.8984 20.5082 31.3051 10.7683C29.4285 13.975 28.3334 17.6915 28.3334 21.6667C28.3334 33.6132 38.0534 43.3333 50 43.3333C61.9466 43.3333 71.6667 33.6132 71.6667 21.6667C71.6667 17.6917 70.5716 13.975 68.6949 10.7683C80.1016 20.5082 87.9132 38.8616 88.3048 59.9998H84.9999C82.2431 59.9998 79.9999 62.2433 79.9999 64.9998C79.9999 67.1715 81.3982 69.0047 83.3367 69.6931L83.3466 74.9998H96.6532L96.6631 69.6931C98.6015 69.0049 99.9998 67.1715 99.9998 64.9998C99.9998 62.2431 97.7566 59.9998 94.9999 59.9998ZM50 40C39.8918 40 31.6667 31.7749 31.6667 21.6667C31.6667 11.5584 39.8918 3.33335 50 3.33335C60.1083 3.33335 68.3333 11.5584 68.3333 21.6667C68.3333 31.7749 60.1083 40 50 40Z" fill="#2C2C2C"/>
</g>
<defs>
<clipPath id="clip0_43_362">
<rect width="100" height="100" fill="white"/>
</clipPath>
</defs>
</svg>
