<svg width="217" height="168" viewBox="0 0 217 168" fill="none" xmlns="http://www.w3.org/2000/svg">
<path d="M50.2804 84.7868C48.9737 84.6784 47.9733 84.3694 46.7155 84.7109C47.6399 87.308 55.3688 89.222 54.6586 86.5273C54.2438 84.9603 51.7578 84.9115 50.2804 84.7868Z" fill="#2C2C2C"/>
<path d="M72.5859 85.2258C68.2049 84.7785 63.8105 85.0984 59.3998 85.6108C59.1368 85.6406 59.1205 86.0201 59.3835 86.0662C63.5638 86.8307 67.885 86.7602 71.9569 87.5925C75.5327 88.3217 78.9024 90.2736 82.2992 91.8622C82.7926 92.0954 83.3483 91.6182 83.1152 91.1248C81.2582 87.1885 76.4896 85.6216 72.5859 85.2258Z" fill="#2C2C2C"/>
<path d="M115.701 82.7779C115.292 82.7372 115.159 83.2903 115.492 83.5261C118.247 85.4753 120.331 88.3191 123.115 90.2222C123.527 90.5041 124.051 90.0704 123.864 89.6068C122.424 86.0446 119.434 83.133 115.701 82.7779Z" fill="#2C2C2C"/>
<path d="M91.2532 92.9929C91.3698 92.635 90.9956 92.2663 90.7327 92.532C89.6158 93.6516 89.0302 95.4381 89.6591 96.9373C90.6134 99.2009 91.264 101.554 91.9499 103.918C92.0773 104.36 92.7144 104.387 92.7984 103.937C93.4816 100.296 90.1037 96.5252 91.2532 92.9929Z" fill="#2C2C2C"/>
<path d="M92.2457 107.96C92.2186 109.402 92.5981 111.086 94.0702 111.002C94.081 109.809 93.4738 108.857 92.9614 107.86C92.7852 107.515 92.2538 107.575 92.2457 107.96Z" fill="#2C2C2C"/>
<path d="M105.155 134.972C104.215 132.668 102.233 130.653 99.8311 130.61C99.4109 130.602 99.3648 131.182 99.7335 131.377C105.391 134.338 106.798 142.394 112.768 145.086C113.017 145.949 113.361 146.938 114.294 147.177C113.437 141.573 109.853 137.553 105.155 134.972Z" fill="#2C2C2C"/>
<path d="M97.2635 146.285C97.3801 146.553 97.7623 146.418 97.7759 146.125C97.803 145.482 97.7949 144.826 97.3042 144.39C97.0711 144.978 97.0168 145.71 97.2635 146.285Z" fill="#2C2C2C"/>
<path d="M113.239 151.547C112.638 152.52 112.299 153.658 111.513 154.537C111.513 154.537 111.51 154.534 111.513 154.529C113.093 152.338 104.575 147.163 102.677 147.288C103.721 149.183 105.855 150.08 107.224 151.831C108.577 153.572 108.484 156.185 110.753 157.237C113.182 158.365 113.79 154.355 114.026 151.883C114.066 151.422 113.483 151.154 113.239 151.547Z" fill="#2C2C2C"/>
<path d="M90.3805 164.253C87.3876 164.763 84.7878 166.801 81.7678 167.325C77.414 164.901 79.8593 159.297 81.9982 156.643C83.3347 154.99 88.7024 148.592 90.9145 147.852C90.9199 147.849 90.9281 147.841 90.9227 147.844C86.0104 149.039 78.7667 155.581 76.9558 160.17C75.9934 162.608 75.8769 164.847 76.8691 167.287C77.1537 167.986 79.6966 170.678 81.0792 172.212C81.494 172.673 82.2313 172.532 82.535 171.99C84.3323 168.797 88.2036 167.65 90.8169 165.196C91.21 164.828 90.9118 164.164 90.3805 164.253Z" fill="#2C2C2C"/>
<path d="M111.778 162.35C111.849 161.976 111.404 161.67 111.203 161.992C110.837 162.578 110.604 163.285 110.409 163.909C108.015 161.404 104.337 161.507 101.2 161.645C100.267 159.268 99.8337 156.649 98.6544 154.385C98.4999 154.092 98.0688 154.244 98.0715 154.575C98.1095 157.573 97.0007 162.255 99.9611 163.204C100.696 163.44 101.425 162.849 102.105 162.819C104.009 162.746 105.868 163.193 107.701 163.695C110.577 165.302 112.328 169.049 112.437 172.473C112.442 172.673 112.735 172.714 112.765 172.516C113.283 169.176 111.163 165.714 111.778 162.35Z" fill="#2C2C2C"/>
<path d="M215.944 61.9415C215.67 61.7246 215.35 61.6487 214.968 61.7029C214.865 61.7165 214.748 61.7084 214.686 61.6243C214.664 61.5972 214.645 61.5647 214.629 61.5321C213.55 56.1455 212.216 51.8839 209.936 47.9096C207.993 44.5209 204.577 40.1454 199.665 39.9638C198.602 39.9258 197.558 40.1264 196.558 40.2078C194.449 40.384 192.312 40.5927 190.263 40.7798C187.777 41.0048 184.643 41.1973 182.249 41.4304C177.592 41.8831 175.599 44.7839 173.889 48.544C172.487 51.629 171.584 55.5084 171.27 60.0248C170.6 60.464 169.89 60.1658 169.646 60.2119C168.898 57.5606 167.995 54.9472 166.846 52.5128C165.067 48.7337 162.096 43.8025 157.311 43.6344C155.221 43.5612 152.892 43.995 151.098 44.4613C148.764 44.1875 145.722 44.4721 143.74 45.1173C140.818 44.9384 137.37 45.0143 135.564 46.1068C129.749 49.6256 129.039 61.5457 129.332 70.9337C129.334 71.0042 129.269 71.0584 129.21 71.0259C125.637 68.9683 121.562 67.8866 117.496 68.3448C113.692 65.2055 105.144 61.6731 100.124 60.2119C100.777 58.3251 102.306 51.9191 102.886 50.054C103.876 46.874 101.899 44.5101 102.452 41.3708C102.702 39.9502 103.718 38.5866 104.087 37.2366C104.472 35.8323 105.022 34.935 105.055 33.3762C108.745 29.4317 108.454 23.4242 107.248 18.5066C106.757 16.4923 106.172 17.1836 105.673 15.1748C104.776 11.5503 103.83 12.0979 101.059 9.68513C99.7388 8.53297 99.774 6.20697 98.104 5.64852L86.5581 0.541077C85.2839 0.150699 83.9881 -0.0851516 82.6489 0.0287085C79.3849 0.305226 76.1372 1.26219 72.9545 2.29235C70.5147 3.07853 68.0965 3.99212 65.6973 4.96265C55.8972 10.2571 55.5854 14.2151 54.8779 22.4375C54.4468 27.4798 52.6603 25.4249 54.6962 30.1176C54.8074 30.3697 56.1574 34.4904 56.2659 34.9079C56.2659 34.9079 54.6529 37.5266 57.4506 46.1393C57.7677 47.1207 59.7088 50.729 59.7088 50.7371C59.5976 55.5328 57.1008 56.956 52.8501 59.9327C49.4424 62.3156 41.0032 65.7124 36.625 72.01C25.4125 73.6555 12.8879 84.8328 10.3504 95.2266C9.91125 97.0267 9.88685 99.0301 9.3799 100.752C8.60728 103.376 7.02951 105.986 6.12676 108.594C5.12913 111.481 3.48629 116.548 4.36735 122.089C5.32432 128.105 3.54322 129.252 2.38564 135.314C0.97052 142.712 0.206033 150.14 0 157.831C0.786177 159.132 1.5344 160.455 2.29076 161.778C7.09186 163.475 10.7544 167.422 15.1136 169.794C17.9818 171.353 21.018 172.421 24.217 173.036C32.3281 174.601 40.4962 176.737 48.7674 177.873C48.9598 176.574 48.9219 175.251 48.7267 173.961C48.7267 173.953 48.7403 173.961 48.7403 173.966C49.4831 177.387 49.334 180.676 49.0683 184.143C48.8297 187.245 48.5125 191.219 51.0961 193.393C53.6444 195.54 57.2798 195.513 60.1886 196.741C62.7505 197.828 65.3693 199.376 67.9365 200.325C71.5774 201.667 75.4649 201.792 79.4527 201.491C86.3439 205.299 94.8861 202.537 101.937 200.78C104.459 200.154 107.012 199.539 109.498 198.856C111.236 198.378 113.174 197.863 114.503 196.641C115.522 195.705 116.202 194.285 116.989 193.13C117.756 191.997 118.713 190.891 119.591 189.817C122.12 186.735 124.211 183.417 123.46 179.535C122.728 175.753 120.646 171.722 119.507 167.793C117.46 160.753 115.785 152.214 118.705 145.076C119.09 144.132 119.908 143.338 120.228 142.405C121.025 140.047 120.966 137.458 120.825 134.988C120.681 132.491 120.757 129.913 121.879 127.639C121.904 127.593 121.971 127.593 121.982 127.641C125.07 139.532 138.627 142.527 148.219 145.886C149.677 146.396 151.252 146.805 152.621 147.499C154.63 148.519 156.598 150.113 158.911 150.4C162.272 150.817 166.257 150.823 169.074 148.66C171.205 147.025 171.476 143.799 172.479 141.481C173.219 139.778 174.792 138.428 175.629 136.799C178.926 130.401 178.964 122.621 178.877 115.244C178.798 108.494 178.091 101.671 177.516 94.9528C177.524 93.7031 177.595 91.7322 177.904 90.3279C177.917 90.2656 177.996 90.2384 178.031 90.29C179.885 93.0524 182.464 95.6685 185.99 95.945C188.433 96.1375 190.748 95.2185 192.776 94.9528C195.116 94.6438 197.371 94.7793 199.402 93.9552C202.283 93.8006 205.135 93.6326 207.087 92.6214C213.531 89.2896 215.662 78.6545 215.342 68.7595C215.415 68.6565 215.513 68.5698 215.61 68.4885C215.724 68.4857 216.058 68.4397 216.372 68.1143C216.624 67.8514 216.803 67.4746 216.904 66.9866C216.988 66.5772 217.017 66.0893 216.99 65.5254C216.971 65.1648 216.944 64.8341 216.912 64.525C216.76 63.1858 216.44 62.3346 215.944 61.9415ZM176.296 56.3461C176.321 56.3108 176.377 56.3352 176.372 56.3786C176.239 57.2597 176.085 58.1814 175.938 59.1438C175.561 59.2658 175.439 59.686 175.233 59.9815C175.171 60.0709 175.071 60.117 174.946 60.1333C175.201 58.6504 175.624 57.3302 176.296 56.3461ZM161.779 52.3257C162.706 52.586 164.712 51.7266 165.542 51.9137C170.855 60.3231 172.981 77.8413 169.418 90.1029C168.055 90.2086 166.827 90.4607 165.493 90.599C165.298 90.9677 165.238 91.4774 164.967 91.7647C164.921 91.8135 164.84 91.781 164.845 91.7159C165.04 88.4194 165.596 84.8653 165.769 81.2489C166.244 71.3702 164.411 62.8361 162.015 55.8988C161.508 54.4349 160.966 52.9655 160.803 51.4718C161.416 51.4555 161.215 52.1685 161.779 52.3257ZM154.177 53.0631C155.373 52.8652 156.734 52.8381 157.938 52.6511C160.887 56.8368 162.424 63.4759 163.191 70.1855C163.991 77.1771 163.858 85.2123 161.977 91.0951C160.616 91.2334 159.391 91.5153 157.97 91.5912C157.769 91.9789 157.685 92.4885 157.431 92.8193C157.395 92.8681 157.317 92.8518 157.319 92.7922C157.506 88.3652 158.184 84.0575 158.176 79.3512C158.16 71.4922 156.739 64.4247 154.896 58.4227C154.256 56.3325 153.516 54.2776 153.204 52.2092C153.803 52.2037 153.698 52.9357 154.177 53.0631ZM139.544 69.4969C139.996 69.6921 140.634 69.4129 141.208 69.4264C142.645 71.1452 142.862 75.3092 142.241 78.1015C141.702 78.2858 140.829 78.1178 140.457 78.4756C140.425 78.5081 140.371 78.4837 140.373 78.4377C140.655 74.9568 140.067 72.3136 139.449 69.5864C139.433 69.5267 139.489 69.4698 139.544 69.4969ZM133.712 60.6917C133.737 60.6565 133.794 60.6782 133.791 60.7243C133.62 63.5735 133.081 67.2848 133.273 71.0096C132.864 70.95 132.614 71.1154 132.376 71.0042C132.267 67.2739 132.24 63.0503 133.712 60.6917ZM138.259 71.7091C138.974 72.6986 139.17 74.9188 138.814 76.4749C134.108 77.0307 129.467 77.6596 124.669 78.1232C124.918 76.3936 124.566 74.7101 124.194 73.36C128.83 72.7555 133.607 72.2973 138.259 71.7091ZM136.445 87.4326C136.456 87.4868 136.396 87.5275 136.356 87.4895C134.203 85.5864 133.824 81.8535 133.168 78.4078C133.444 78.3265 133.767 78.2967 134.065 78.2398C134.591 81.5227 135.735 84.5942 136.445 87.4326ZM102.973 36.3745C102.981 36.4314 102.93 36.491 102.881 36.4558C101.55 35.5503 98.2721 35.45 97.2609 35.6832C97.2121 35.6669 97.2691 35.572 97.4073 35.4338C97.635 35.2061 97.4561 34.7994 97.1471 34.897C96.3989 35.1302 95.6832 35.4907 95.3768 36.0898C93.6771 36.67 93.8153 38.0797 92.571 38.3941C91.5273 40.7662 93.1538 43.8133 95.675 44.0573C95.5151 43.6181 94.8888 42.6747 95.1518 42.0404C96.7513 42.6097 98.3941 42.8726 99.9719 42.3223C100.032 42.3033 100.083 42.3684 100.056 42.4253C99.7225 43.2359 99.4704 44.361 100.872 43.6046C101.373 45.6351 102.561 46.6165 101.853 48.5602C100.766 51.5558 100.167 54.3725 98.92 57.2461C97.8248 59.7673 96.4856 62.462 95.5829 65.051C94.9756 66.7914 91.9827 70.603 90.085 70.603C85.9698 70.603 86.2002 71.2753 83.0122 69.6162C80.2388 68.1713 77.3761 67.4962 76.3378 63.9693C76.3378 62.7548 76.7959 61.2366 74.1338 55.278C72.9491 52.6239 68.5113 47.0421 70.8101 44.6944C71.6126 43.873 71.1761 41.0834 71.6072 40.1454C71.7969 39.7279 73.0087 36.491 73.0955 36.1332C73.3178 35.1979 72.8894 31.7062 72.64 30.7086C77.0697 28.2823 79.656 30.5432 83.2101 30.9824C85.6174 31.2833 86.9349 30.9065 89.4425 31.1342C94.6747 31.6032 99.3863 31.549 103.268 26.9024C103.314 26.8482 103.396 26.8834 103.407 26.9485C104.101 30.5378 102.379 32.796 102.973 36.3745ZM100.3 39.7469C98.8577 40.9695 97.2772 40.5602 95.6208 39.7876C95.5666 39.7632 95.5585 39.6818 95.6154 39.6683C97.1986 39.2128 98.7682 38.6544 100.3 39.7469ZM88.9004 74.4309C87.4473 76.6945 86.6828 80.1645 85.0318 82.1679C84.9993 82.2059 84.9451 82.1679 84.9532 82.1164C85.1267 80.6417 85.2731 77.3207 85.387 75.9951C87.1382 76.0818 87.5286 75.5586 88.857 74.4119C88.876 74.3956 88.9139 74.4119 88.9004 74.4309ZM70.7966 68.4776C73.2825 71.8609 78.4279 77.2394 80.4937 80.9101C80.5099 80.9372 80.4747 80.9643 80.453 80.9453C77.2514 78.1774 72.2334 72.5034 70.7586 68.502C70.7505 68.4776 70.783 68.4586 70.7966 68.4776ZM68.2591 59.1926C68.2564 59.1736 68.2835 59.1709 68.289 59.1899C69.5306 63.8392 74.741 65.5742 78.3385 69.4698C78.3466 69.4834 78.3222 69.4969 78.3087 69.4861C76.0721 67.8487 74.6353 67.1872 72.1521 65.2217C70.821 64.1699 68.4516 60.9954 68.2591 59.1926ZM106.427 21.7868C107.628 23.7767 108.178 28.2552 105.285 29.0359C104.131 26.6503 105.05 23.8309 106.427 21.7868ZM70.7912 5.68105C75.5679 1.47093 83.8092 1.53058 89.5645 3.22221C92.4165 4.0599 93.5388 5.80575 96.4151 6.57838C98.7736 7.21274 98.5242 8.05856 99.9963 10.0945C101.487 12.1657 103.263 11.1734 104.32 15.5787C104.768 17.4493 105.334 16.7661 105.258 18.5825C105.096 22.4619 103.138 24.3595 102.653 25.3653C98.6435 25.677 95.7564 22.226 92.7147 20.1033C88.8922 17.4385 85.1457 16.7445 80.7702 17.2595C80.6319 17.2731 80.6536 17.4737 80.7919 17.4791C88.4774 17.7529 91.5598 20.9573 91.999 23.0149C92.6577 26.1162 90.7682 27.7618 79.2765 24.4219C64.3987 20.0952 80.1602 20.3961 77.3002 18.3005C72.5885 14.8522 63.7752 11.8674 70.7912 5.68105ZM67.5434 32.3894C68.0748 32.4246 69.1754 31.6005 69.9372 30.123C69.9535 30.0905 70.0023 30.1068 69.9996 30.1447C69.799 32.9614 67.1612 37.5402 66.7871 40.4978C66.7871 40.5277 66.7383 40.5141 66.7302 40.4843C66.1392 37.5917 67.7956 35.0136 67.5434 32.3894ZM62.6041 47.4921C62.7423 46.1746 63.2818 44.9492 62.9592 43.6263C62.9511 43.5938 62.989 43.5585 63.0107 43.5856C64.5777 45.6297 64.8108 48.2973 65.0955 50.7588C63.5827 53.7327 60.6766 49.4494 59.9907 47.8906C59.988 47.8879 59.9961 47.8933 59.9989 47.896C60.5627 49.097 61.4275 50.3495 62.8399 50.5989C63.4445 50.1217 63.8809 49.4277 63.7779 48.6361C63.843 47.6331 62.7911 48.1373 62.6041 47.4921ZM57.4207 39.9801C57.4262 40.0045 57.3963 40.037 57.3828 40.0153C56.7132 38.9119 56.2225 36.7405 57.9467 36.3718C62.0971 35.4826 64.621 40.7391 64.537 44.1631C64.537 44.2091 64.4746 44.2173 64.4475 44.1766C63.0243 41.7015 61.0073 38.123 57.681 38.3209C57.0683 38.3589 57.3069 39.5382 57.4207 39.9801ZM58.9091 39.9584C59.9582 39.8038 60.8176 40.5602 61.2215 41.444C60.2022 42.7317 59.9609 44.4721 60.5519 45.9848C60.5736 46.0417 60.5085 46.0851 60.4543 46.0607C58.291 45.0035 58.2666 41.9265 58.9091 39.9584ZM2.68655 159.078C1.76483 158.565 1.55609 157.394 1.21722 156.481C1.20095 156.44 1.2389 156.397 1.27415 156.424C2.04406 157.107 2.44257 158.069 2.78686 159.007C2.80584 159.061 2.74077 159.108 2.68655 159.078ZM13.7445 165.093C13.712 165.077 13.712 165.026 13.7445 165.028C18.1092 165.459 22.2705 165.969 26.6216 165.08C26.8493 165.923 26.8059 166.782 26.9523 167.639C22.1431 168.309 18.0279 167.387 13.7445 165.093ZM45.5468 162.428C44.1371 160.135 43.0988 157.652 41.7704 155.31C35.8199 153.865 32.667 148.131 31.016 142.468C34.0089 138.485 37.3299 134.828 39.7751 130.436C39.7778 130.426 39.7941 130.442 39.7887 130.45C39.0106 132.483 38.0835 134.245 36.8527 136.032C37.46 140.548 39.6531 144.319 41.3881 148.367C43.2939 152.807 43.6464 157.879 45.563 162.407C45.5657 162.415 45.5549 162.439 45.5468 162.428ZM51.5325 149.08C49.6457 147.879 48.3174 145.911 48.0788 143.595C48.6427 143.761 49.6566 144.989 49.9981 143.991C51.7603 144.748 51.4051 147.38 51.6464 149.012C51.6518 149.072 51.5841 149.112 51.5325 149.08ZM51.6627 143.289C48.7348 142.243 47.6071 139.087 47.7562 136.078C47.7589 136.032 47.8185 136.016 47.8402 136.054C48.3418 136.992 48.846 137.927 49.3638 138.857C49.9683 138.678 49.5861 137.303 50.3587 137.322C50.5214 139.337 50.7274 141.438 51.7359 143.213C51.7576 143.257 51.7115 143.308 51.6627 143.289ZM144.727 118.666C142.93 119.574 137.017 118.918 134.379 115.491C134.146 115.19 133.656 115.334 133.666 115.713C133.818 120.406 134.832 125.654 138.638 128.536C138.844 128.691 138.606 131.811 138.747 135.026C138.901 138.586 133.745 135.539 131.625 132.258C129.359 128.748 127.914 124.226 127.775 120.045C127.775 119.98 127.857 119.948 127.914 119.983C129.378 120.878 130.73 121.954 132.276 122.699C132.601 120.994 132.793 119.547 132.194 117.868C130.882 114.195 129.342 110.573 128.971 106.735C128.613 103.007 129.388 98.8105 131.69 95.7064C131.937 95.373 131.652 94.885 131.259 95.0179C128.432 95.9531 125.699 97.4957 123.956 100.044C124.593 100.139 124.549 99.6129 125.186 99.7105C124.633 104.631 125.748 109.703 125.035 114.439C124.639 117.074 123.058 121.463 120.456 122.182C118.946 122.599 117.609 120.739 116.623 119.677C115.587 118.557 114.378 117.484 113.142 116.532C107.958 116.128 101.368 117.088 97.1552 113.29C96.7784 112.948 96.1332 113.154 96.1928 113.661C96.8624 119.457 104.646 119.866 109.143 118.983C109.1 118.617 108.758 118.592 108.492 118.478C108.441 118.454 108.46 118.381 108.517 118.37C111.868 117.755 114.326 120.712 116.034 123.29C116.053 123.32 115.991 123.572 115.996 123.665C116.026 124.624 116.818 125.486 117.138 126.321C117.58 127.463 117.712 128.875 117.937 130.157C118.623 134.023 119.087 137.886 118.341 141.619C117.761 144.525 114.492 146.998 114.668 150.175C114.695 150.628 115.321 150.66 115.498 150.24C115.682 149.806 115.899 149.394 116.254 149.069C116.511 148.922 116.216 148.803 116.254 149.069C116.083 152.585 115.766 156.05 115.216 159.525C115.777 160.487 116.021 158.376 116.463 159.208C116.731 165.137 116.877 171.057 117.536 176.946C117.596 177.501 118.317 177.751 118.555 177.249C119.117 176.081 119.144 174.584 119.407 173.337C119.412 173.294 119.469 173.278 119.483 173.318C120.063 175.354 121.359 178.819 121.475 180.825C121.687 184.357 119.499 186.911 117.352 189.533C117.314 189.576 117.241 189.552 117.241 189.495C117.151 187.814 117.333 186.179 117.441 184.517C117.474 184.037 116.853 183.764 116.628 184.195C116.246 184.938 116.053 185.813 115.763 186.597C115.739 186.654 115.666 186.662 115.639 186.607C115.183 185.68 114.885 184.683 114.635 183.677C114.576 183.438 114.221 183.468 114.213 183.712C114.112 186.857 114.543 190.677 111.979 192.694C108.593 193.889 105.125 194.738 101.672 195.575C98.6462 196.31 95.5503 197.384 92.3948 197.234C85.0752 196.893 86.3033 187.817 84.3758 182.956C83.6547 181.139 80.5696 176.688 81.4832 174.568C81.4832 174.565 81.4832 174.56 81.4805 174.563C78.6557 179.871 82.8956 184.9 81.4588 190.3C78.1867 188.589 77.5333 184.683 74.1202 181.153C73.963 180.99 73.7109 181.194 73.822 181.386C78.1595 188.947 80.1982 200.872 68.6875 196.223C66.3127 195.264 64.4611 193.236 62.3818 191.769C58.9009 189.321 56.2198 185.745 56.1114 181.196C56.011 177.068 56.4719 172.811 58.5892 169.211C58.0985 168.441 57.5861 167.75 57.1686 166.948C57.1415 166.893 57.1903 166.839 57.2418 166.858C61.3218 168.325 65.1714 170.016 68.7308 172.516C69.0887 172.768 69.6011 172.437 69.3923 172.055C68.2402 169.951 65.7813 168.365 66.2449 165.76C66.9091 162.06 70.9728 159.189 73.6756 156.893C75.248 155.556 76.6577 154.155 77.8478 152.452C78.1107 152.078 79.3388 149.354 80.0084 148.128C80.1196 147.922 79.9379 147.646 79.7427 147.784C79.168 148.185 78.8102 148.969 78.2138 149.367C78.1623 149.402 78.0972 149.362 78.1135 149.305C78.5472 147.751 79.0433 146.233 79.5557 144.71C80.2958 142.492 86.5012 140.581 88.1467 138.889C89.6323 137.358 90.0715 135.026 91.549 133.541C92.3677 132.714 94.0973 132.524 94.4849 131.147C90.6191 132.017 88.2904 135.788 85.2758 138.027C83.0311 139.697 80.3392 140.982 78.5255 143.205C76.4652 145.729 76.1589 149.364 74.4293 152.048C73.2148 153.932 71.7671 155.684 70.1893 157.286C67.4079 160.111 63.946 162.77 60.0016 163.516C57.9412 163.903 53.5115 162.629 54.9646 160.341C55.6993 159.181 58.6597 158.712 60.0666 158.78C60.0721 158.78 60.0693 158.769 60.0639 158.769C58.131 158.443 50.2638 155.117 52.6901 152.767C53.2025 152.273 54.3926 152.97 55.1273 153.257C56.5559 153.818 58.0958 153.805 59.5597 153.439C59.904 153.355 59.8525 152.87 59.5109 152.78C56.7891 152.078 52.5166 149.779 54.2869 147.055C54.7423 146.353 56.2496 147.063 56.9951 147.242C58.7952 147.678 60.4218 147.61 62.1893 147.223C62.5499 147.141 62.5526 146.632 62.1974 146.534C58.2205 145.458 52.1317 142.785 53.986 137.889C54.2462 137.2 55.9948 139.185 56.3716 139.529C58.2937 141.316 60.907 141.828 63.4228 141.633C63.637 141.614 63.6478 141.307 63.4364 141.259C61.0182 140.706 58.7057 138.938 59.6898 136.018C60.6278 133.24 64.2767 133.191 66.4835 132.337C71.9921 130.198 75.7902 124.212 81.4994 122.661C84.0396 121.97 86.9051 121.756 89.3206 120.783C91.0149 120.094 92.4165 118.554 93.2975 116.784C93.4737 116.432 93.0481 116.101 92.7255 116.321C90.2938 117.977 87.3985 118.722 84.4788 118.465C77.1077 117.817 70.8942 123.345 64.2035 125.633C61.0887 126.701 57.1984 127.571 54.3465 125.459C52.3133 123.955 51.069 121.545 49.746 119.381C48.1547 116.779 46.6989 114.195 45.5874 111.313C46.7911 111.384 47.9839 111.449 49.1821 111.479C49.7542 111.495 50.0903 110.82 49.6864 110.422C45.2702 106.07 37.1645 108.941 32.0272 111.416C31.8375 111.509 31.9405 111.791 32.1492 111.763C33.8056 111.563 35.5433 111.85 36.8419 112.951C38.7124 114.537 38.8344 117.294 38.3709 119.593C37.3814 124.51 34.5538 129.84 30.4847 132.415C26.055 135.224 21.5575 134.929 17.1604 132.269C17.0004 132.172 16.8242 132.383 16.9543 132.519C17.6429 133.24 18.2962 133.985 18.749 134.899C18.7761 134.956 18.7164 135.007 18.6541 134.994C17.7459 134.801 16.8133 134.831 15.9214 135.053C15.6666 135.113 15.7235 135.482 15.9865 135.49C19.9662 135.62 23.8374 137.992 26.2963 141.137C28.4298 143.872 29.3705 147.353 30.6745 150.565C31.4877 152.571 36.7524 155.651 32.5613 156.307C30.6365 156.605 28.4488 156.09 26.4752 156.247C21.9886 156.603 15.3277 161.021 11.2721 157.625C9.5534 156.191 8.61542 154.184 8.13016 151.978C7.47682 149.009 7.08372 149.001 7.39277 151.972C7.61236 154.09 8.07051 156.199 8.78078 158.351C8.79976 158.408 8.73199 158.449 8.6859 158.419C7.45513 157.72 5.92615 157.465 5.01255 156.391C4.03932 155.242 3.45376 153.615 3.25586 152.048C2.8465 148.795 4.19656 145.593 5.03695 142.517C5.90175 139.337 5.44631 136.129 6.11049 132.89C6.11862 132.841 6.1864 132.836 6.20267 132.884C6.33821 133.231 6.42496 133.587 6.48461 133.944C6.53882 134.262 6.98342 134.316 7.07017 134.007C8.08136 130.39 8.04069 126.755 8.02442 123.003C8.00816 120.07 5.99935 111.568 9.93565 108.312C11.1691 107.29 10.9712 110.885 12.3782 109.741C15.1353 107.51 14.2298 103.441 14.4087 100.407C14.7503 94.6329 16.5043 88.6932 19.9337 84.0656C22.6446 80.4004 32.4583 78.3699 36.8907 78.0852C42.3614 77.7355 47.3387 82.2466 52.644 81.2272C52.644 81.2299 52.6657 80.807 52.6522 80.8179C52.5112 80.9182 39.9324 76.1035 37.9019 75.4366C37.8937 75.4366 37.8937 75.4231 37.9019 75.4258C40.2333 75.9192 45.3461 73.1893 47.7806 72.8314C52.5736 72.1293 56.6752 73.8209 60.9965 75.5424C59.8525 77.112 52.457 78.8307 57.231 80.8016C59.3618 81.6827 61.8287 82.2032 64.1304 82.3821C70.2219 82.8592 79.5963 82.5908 85.0264 85.8846C86.2084 86.6003 86.9458 88.4845 88.0356 89.0375C89.8221 89.9402 93.0644 83.499 102.932 81.2272C105.925 80.5414 108.492 80.2269 108.997 76.8246C109.086 76.2174 94.1596 81.5471 93.0373 82.1164C92.5845 81.6285 93.3761 81.032 93.574 80.7745C95.5097 78.2641 99.0773 77.9226 101.14 75.3607C104.825 70.7955 107.392 71.8636 111.423 72.1211C116.495 72.4464 115.53 68.2174 125.585 71.8175C125.62 71.8311 125.618 71.8771 125.582 71.8799C124.533 71.9368 123.319 71.8771 122.814 72.254C122.264 72.6633 122.524 73.5173 122.237 74.2086C122.237 74.58 122.234 74.9459 122.234 75.3146C122.53 76.7216 122.606 79.1805 123.771 79.4868C124.154 79.5844 124.823 79.3811 125.325 79.3214C127.035 79.1127 128.507 78.9256 130.15 78.744C131.685 86.6573 133.875 96.6417 139.395 100.798C140.227 101.424 141.181 101.955 142.168 102.169C144.526 102.679 147.517 101.703 149.574 101.147C150.336 103.766 150.632 106.577 150.575 109.343C150.507 111.899 146.714 117.657 144.727 118.666ZM152.914 105.97C152.911 106 152.863 106 152.857 105.97C152.543 104.297 152.169 102.665 151.689 101.088C152.342 101.058 152.982 101.001 153.597 100.92C153.389 102.606 153.169 104.289 152.914 105.97ZM150.363 92.6702C150.027 92.9846 149.938 93.9687 149.542 93.9416C150.168 86.7549 150.838 78.8362 149.862 71.7524C149.17 66.7209 147.907 61.852 146.641 57.5416C146.188 56.0018 145.573 54.5053 145.511 52.9465C146.088 52.9411 145.955 53.6758 146.408 53.8005C147.685 53.6297 149.062 53.5674 150.331 53.3911C153.172 57.8561 154.644 64.2729 155.419 71.1777C156.189 78.0229 156.205 86.3943 154.283 92.1741C152.928 92.2798 151.708 92.54 150.363 92.6702ZM170.652 139.825C170.552 141.665 170.229 143.576 169.465 145.241C168.223 147.96 164.769 148.551 162.115 148.532C159.632 148.513 156.872 148.237 155.555 145.859C157.206 148.668 160.746 142.27 160.64 140.752C161.296 140.795 161.939 140.988 162.587 141.153C163.121 141.291 163.503 140.668 163.205 140.204C160.326 135.755 157.604 131.274 157.211 125.996C156.577 117.47 158.325 108.743 159.906 99.9735C161.239 99.8244 162.611 99.6563 163.747 99.2578C166.133 98.4282 167.762 96.4221 168.914 93.9985C171.715 91.4801 173.94 92.5129 175.486 93.9064C175.307 100.459 175.678 107.022 175.697 113.569C175.716 122.412 177.069 131.998 170.652 139.825ZM181.547 69.093C179.503 68.4993 179.129 68.9249 177.841 69.7626C176.551 70.6003 174.038 70.0418 173.008 70.0988C172.268 70.1394 171.75 70.0147 171.457 69.9117C171.186 67.6616 170.638 63.7389 169.825 61.1255C169.652 60.5589 171.183 61.9252 172.292 60.6999C173.081 59.8297 175.467 61.6352 175.933 60.9655C176.402 60.2987 177.554 59.3173 179.65 61.7626C180.788 63.0909 180.691 63.6114 181.395 64.685C182.014 65.6257 183.055 66.6586 183.193 67.7348C183.296 68.5535 183.06 69.5322 181.547 69.093ZM185.175 70.9446C185.015 70.9635 184.857 70.9852 184.697 71.0042C184.584 70.1096 184.293 69.2529 183.979 68.5454C183.776 68.0466 183.979 67.3092 183.616 66.5474C184.115 66.4905 184.12 66.4932 184.616 66.4363C185.44 67.217 185.513 69.5132 185.175 70.9446ZM198.857 86.0446C197.648 86.1991 196.444 86.3618 195.259 86.5407C194.961 86.8606 194.869 87.4001 194.56 87.7118C194.519 87.7525 194.451 87.7145 194.462 87.6603C195.519 81.1486 196.493 73.623 195.49 66.561C195.026 63.297 194.338 60.0655 193.478 57.116C192.716 54.5108 191.608 52.1116 190.805 49.7937C190.737 49.5958 190.388 48.9343 190.808 48.7744C191.225 48.8286 191.225 49.3057 191.543 49.4575C192.668 49.2407 193.993 49.238 195.143 49.0455C200.792 56.9316 202.977 74.6803 198.857 86.0446ZM205.724 85.1337C204.477 85.1906 203.454 85.4834 202.207 85.5458C201.999 85.8548 201.695 86.9202 201.467 86.6491C202.603 80.2106 203.571 72.7907 202.603 65.7368C201.7 59.179 199.51 53.3803 197.593 48.1183C197.612 48.0235 197.686 47.9855 197.759 47.9503C198.355 49.3437 200.627 48.3461 202.088 48.3894C207.778 56.0425 210.018 73.9131 205.724 85.1337ZM212.674 84.1388C211.511 84.315 210.313 84.4533 209.158 84.6376C208.819 84.8924 208.787 85.4617 208.467 85.7383C208.421 85.7762 208.353 85.7355 208.364 85.6786C209.557 79.4326 210.584 71.9395 209.549 64.9995C209.058 61.7056 208.437 58.5853 207.54 55.7253C206.613 52.7839 205.336 50.1543 204.542 47.381C205.013 47.3539 205.038 47.9475 205.602 48.0641C206.521 48.2539 207.914 47.6087 208.955 47.7388C214.748 55.2075 216.947 73.0212 212.674 84.1388ZM216.616 67.1221C216.6 67.1899 216.527 67.2279 216.453 67.2306C216.039 67.2523 215.366 67.5667 215.347 67.1438C215.179 65.791 215.041 64.4085 214.87 63.0611C215.166 62.8334 215.808 62.9608 216.18 62.809C216.028 62.481 215.811 62.2316 215.529 62.0418C215.513 62.031 215.499 62.0255 215.483 62.0147C215.467 62.0066 215.478 61.9794 215.494 61.9849C215.602 62.0174 215.703 62.0716 215.792 62.1421C216.334 62.5704 216.651 63.7145 216.741 65.5362C216.776 66.2356 216.716 66.7453 216.616 67.1221Z" fill="#2C2C2C"/>
<path d="M92.0209 54.058C89.9606 54.6571 89.1229 52.5344 89.497 49.9509C88.8193 47.8092 88.5265 46.0173 89.009 43.7564C89.3018 42.39 89.2937 40.327 88.7894 38.611C86.4255 37.9766 84.8857 35.8892 82.5624 35.3226C82.1747 35.2277 82.0012 35.7401 82.256 36.0491C82.4133 36.2443 82.481 36.3771 82.481 36.3771C79.6481 36.6753 75.3404 37.1823 74.2099 38.7492C74.1069 38.8929 74.3401 39.023 74.4864 38.9281C74.8633 38.6869 75.0612 38.7926 74.8334 39.042C73.7355 40.2375 73.0388 42.0593 74.1774 43.4717C74.5976 43.9949 75.1994 43.6994 75.3675 43.103C75.4299 42.8888 75.7308 42.1894 76.029 42.4171C77.8887 43.8214 80.803 43.2711 82.7955 42.4497C82.8416 42.4334 82.8796 42.4849 82.8525 42.5256C82.1368 43.6018 81.0659 43.8621 80.8897 44.5507C80.8436 44.7242 81.0144 45.4128 82.3075 44.9492C85.577 43.7753 83.6874 48.4463 82.8362 49.3545C82.0392 50.2057 81.2991 51.2142 80.7 52.3176C80.0385 53.5402 80.6593 53.9495 81.4482 53.1227C82.5082 52.0166 83.2537 57.4087 87.6264 54.386C88.9657 54.7195 91.0721 55.4785 92.4004 54.5188C92.6634 54.3291 92.3299 53.9685 92.0209 54.058ZM77.0103 41.1674C76.9534 41.1403 76.948 41.0562 77.0076 41.0264C79.171 39.9149 80.6945 40.0478 83.0287 40.2918C83.0802 40.2972 83.1181 40.3568 83.0748 40.3812C81.3045 41.3707 78.8945 42.1 77.0103 41.1674Z" fill="#2C2C2C"/>
<path d="M83.6954 60.3908C83.4054 60.2661 83.1397 60.5534 83.1478 60.8652C83.1533 61.0279 83.1289 61.1742 83.0828 61.3017C82.8767 61.8682 82.2722 62.4619 82.6327 62.9445C83.4298 64.0153 84.788 64.7039 85.8696 64.5684C87.4067 64.3732 89.8249 63.3213 91.6684 63.6033C92.178 63.6819 92.6633 63.3457 92.7609 62.8388C92.8937 62.1393 93.1865 61.3938 93.2299 60.7784C89.9062 62.2776 86.9188 61.7761 83.6954 60.3908Z" fill="#2C2C2C"/>
<path d="M94.363 56.6226C93.6799 57.3057 92.9479 56.5087 92.6687 56.9072C91.5653 58.5013 89.4779 56.7175 88.2173 56.7961C86.7913 56.8855 85.181 58.4525 83.587 57.7015C83.4054 57.6148 84.4328 56.6497 83.9747 56.7283C82.9472 56.9018 82.2017 57.9564 82.1583 59.1248C82.5189 59.4393 82.5921 58.5121 83.5436 58.6233C85.5606 58.7398 87.5043 58.916 89.421 59.4826C90.4023 59.7727 91.7307 59.8215 92.3542 58.7236C92.6362 58.2193 93.6609 58.1055 94.0486 57.7205C94.2329 57.5362 94.3007 58.5745 94.6125 58.7534C94.8971 58.9188 95.076 56.956 94.9324 56.5196C94.6531 55.671 94.5257 56.4599 94.363 56.6226Z" fill="#2C2C2C"/>
</svg>
