<svg width="80" height="80" viewBox="0 0 80 80" fill="none" xmlns="http://www.w3.org/2000/svg">
<path d="M44.25 18.25C43.75 17.75 43.25 17.5 42.5 17.5C41.75 17.5 41.25 17.75 40.75 18.25C40.25 18.75 40 19.25 40 20C40 20.75 40.25 21.25 40.75 21.75C41.75 22.75 43.25 22.75 44.25 21.75C44.75 21.25 45 20.75 45 20C45 19.25 44.75 18.75 44.25 18.25Z" fill="#E0FE10"/>
<path d="M42.5 0C31.5 0 22.5 9 22.5 20C22.5 31 31.5 40 42.5 40C53.5 40 62.5 31 62.5 20C62.5 9 53.5 0 42.5 0ZM50 20C50 21.25 49.75 22.25 49.25 23.25L51.25 25.25C52.25 26.25 52.25 27.75 51.25 28.75C50.75 29.25 50 29.5 49.5 29.5C49 29.5 48.25 29.25 47.75 28.75L45.75 26.75C44.75 27.25 43.5 27.5 42.5 27.5C41.5 27.5 40.25 27.25 39.25 26.75L37.25 28.75C36.75 29.25 36 29.5 35.5 29.5C35 29.5 34.25 29.25 33.75 28.75C32.75 27.75 32.75 26.25 33.75 25.25L35.75 23.25C35.25 22.25 35 21.25 35 20C35 18.75 35.25 17.75 35.75 16.75L33.75 14.75C32.75 13.75 32.75 12.25 33.75 11.25C34.75 10.25 36.25 10.25 37.25 11.25L39.25 13.25C41.25 12.25 43.75 12.25 45.75 13.25L47.75 11.25C48.75 10.25 50.25 10.25 51.25 11.25C52.25 12.25 52.25 13.75 51.25 14.75L49.25 16.75C49.75 17.75 50 18.75 50 20Z" fill="#E0FE10"/>
<path d="M40.25 19L40.75 18.25L41.5 18C42.25 17.75 43 17.75 43.75 18L44.5 18.25L45 19C45 19.25 45 19.75 45 20C45 20.25 45 20.75 44.75 21L44.25 21.75L43.5 22C42.75 22.25 42 22.25 41.25 22L40.5 21.75L40 21C40 20.75 40 20.25 40 20C40 19.75 40 19.25 40.25 19Z" fill="#E0FE10"/>
<path d="M66.75 45.25L63.75 40.5C62.5 38.5 61.25 36.25 60.25 34C56.5 38.75 51.25 42 45 42.5C45 42.75 45 43 45 43.25C47.5 45 49.5 47.5 51 50.25C51.5 51.5 51 53 49.75 53.5C49.5 53.75 49 53.75 48.75 53.75C47.75 53.75 47 53.25 46.5 52.25C45.25 49.5 43.25 47.5 40.75 46.25C38.5 45.25 36 44.75 33.5 44.75H28.5C27.5 42.25 26 40 24 38C20.25 34.5 15.25 32.5 9.99998 32.5C8.99998 32.5 7.99998 33.25 7.74998 34.25L5.99998 39.75C0.999981 55 7.49998 71.75 21.5 79.75C21.75 80 22 80 22.5 80C22.75 80 23 80 23.25 80C24 79.75 24.5 79.25 24.75 78.75L26 76C34 80 43.5 80 51.75 76.25L71 67.25C72 66.75 72.5 66 72.5 65C72.5 58 70.5 51.25 66.75 45.25Z" fill="#E0FE10"/>
</svg>
