<svg width="317" height="251" viewBox="0 0 317 251" fill="none" xmlns="http://www.w3.org/2000/svg">
<g clip-path="url(#clip0_174_352)">
<path d="M290.216 103.184C287.125 91.2761 282.271 79.8971 275.816 69.424C264.464 51.024 244.368 23.08 221.584 12.208C186.384 -4.59203 154.384 -5.39204 125.584 21.008C96.784 47.408 79.184 122.608 68.784 135.408C58.384 148.208 27.184 150.608 15.184 170.608C3.18401 190.608 6.93601 237.808 6.93601 237.808H306.4C306.4 237.808 310.592 181.2 290.216 103.184Z" fill="#E0FE10"/>
<path opacity="0.8" d="M290.216 103.184C287.125 91.2761 282.271 79.8971 275.816 69.424C264.464 51.024 244.368 23.08 221.584 12.208C186.384 -4.59203 154.384 -5.39204 125.584 21.008C96.784 47.408 79.184 122.608 68.784 135.408C58.384 148.208 27.184 150.608 15.184 170.608C3.18401 190.608 6.93601 237.808 6.93601 237.808H306.4C306.4 237.808 310.592 181.2 290.216 103.184Z" fill="white"/>
<path d="M265.6 74.4561C262.032 72.5121 260.416 74.1361 259.112 72.5121C257.808 70.8881 262.68 66.6721 252.952 62.4561C252.952 62.4561 252.304 53.3761 239.008 53.0561C225.712 52.7361 229.288 62.1361 225.72 64.4001C222.152 66.6641 221.176 63.1041 217.608 65.3761C214.04 67.6481 215.664 72.1841 212.744 72.8401C209.824 73.4961 205.936 69.9201 202.344 72.1841C198.752 74.4481 198.8 76.4001 197.176 76.4001C195.552 76.4001 192.312 75.0961 190.368 76.4001C188.424 77.7041 186.152 79.3121 186.152 79.3121H268.208C268.208 79.3121 269.176 76.4001 265.6 74.4561Z" fill="#E0FE10"/>
<path opacity="0.5" d="M265.6 74.4561C262.032 72.5121 260.416 74.1361 259.112 72.5121C257.808 70.8881 262.68 66.6721 252.952 62.4561C252.952 62.4561 252.304 53.3761 239.008 53.0561C225.712 52.7361 229.288 62.1361 225.72 64.4001C222.152 66.6641 221.176 63.1041 217.608 65.3761C214.04 67.6481 215.664 72.1841 212.744 72.8401C209.824 73.4961 205.936 69.9201 202.344 72.1841C198.752 74.4481 198.8 76.4001 197.176 76.4001C195.552 76.4001 192.312 75.0961 190.368 76.4001C188.424 77.7041 186.152 79.3121 186.152 79.3121H268.208C268.208 79.3121 269.176 76.4001 265.6 74.4561Z" fill="#E0FE10"/>
<path d="M167.776 24.976C165.664 23.816 164.704 24.784 163.936 23.816C163.168 22.848 166.048 20.36 160.28 17.864C160.28 17.864 159.896 12.48 152.016 12.264C144.136 12.048 146.248 17.648 144.136 18.992C142.024 20.336 141.44 18.192 139.336 19.568C137.232 20.944 138.184 23.568 136.456 23.992C134.728 24.416 132.416 22.256 130.304 23.6C128.192 24.944 128.184 26.104 127.224 26.104C126.264 26.104 124.344 25.304 123.224 26.104C122.104 26.904 120.72 27.832 120.72 27.832H169.352C169.352 27.832 169.888 26.128 167.776 24.976Z" fill="#E0FE10"/>
<path opacity="0.5" d="M167.776 24.976C165.664 23.816 164.704 24.784 163.936 23.816C163.168 22.848 166.048 20.36 160.28 17.864C160.28 17.864 159.896 12.48 152.016 12.264C144.136 12.048 146.248 17.648 144.136 18.992C142.024 20.336 141.44 18.192 139.336 19.568C137.232 20.944 138.184 23.568 136.456 23.992C134.728 24.416 132.416 22.256 130.304 23.6C128.192 24.944 128.184 26.104 127.224 26.104C126.264 26.104 124.344 25.304 123.224 26.104C122.104 26.904 120.72 27.832 120.72 27.832H169.352C169.352 27.832 169.888 26.128 167.776 24.976Z" fill="#E0FE10"/>
<path d="M143.072 107.736C140.96 106.584 140 107.544 139.224 106.584C138.448 105.624 141.344 103.12 135.576 100.624C135.576 100.624 135.192 95.24 127.312 95.024C119.432 94.808 121.544 100.408 119.432 101.752C117.32 103.096 116.736 100.952 114.632 102.328C112.528 103.704 113.48 106.368 111.744 106.752C110.008 107.136 107.744 105.016 105.6 106.368C103.456 107.72 103.48 108.864 102.52 108.864C101.56 108.864 99.6399 108.064 98.5199 108.864C97.3999 109.664 96.0239 110.592 96.0239 110.592H144.656C144.656 110.592 145.184 108.888 143.072 107.736Z" fill="#E0FE10"/>
<path opacity="0.5" d="M143.072 107.736C140.96 106.584 140 107.544 139.224 106.584C138.448 105.624 141.344 103.12 135.576 100.624C135.576 100.624 135.192 95.24 127.312 95.024C119.432 94.808 121.544 100.408 119.432 101.752C117.32 103.096 116.736 100.952 114.632 102.328C112.528 103.704 113.48 106.368 111.744 106.752C110.008 107.136 107.744 105.016 105.6 106.368C103.456 107.72 103.48 108.864 102.52 108.864C101.56 108.864 99.6399 108.064 98.5199 108.864C97.3999 109.664 96.0239 110.592 96.0239 110.592H144.656C144.656 110.592 145.184 108.888 143.072 107.736Z" fill="#E0FE10"/>
<g opacity="0.5">
<path d="M265.6 74.4561C262.032 72.5121 260.416 74.1361 259.112 72.5121C257.808 70.8881 262.68 66.6721 252.952 62.4561C252.952 62.4561 252.304 53.3761 239.008 53.0561C225.712 52.7361 229.288 62.1361 225.72 64.4001C222.152 66.6641 221.176 63.1041 217.608 65.3761C214.04 67.6481 215.664 72.1841 212.744 72.8401C209.824 73.4961 205.936 69.9201 202.344 72.1841C198.752 74.4481 198.8 76.4001 197.176 76.4001C195.552 76.4001 192.312 75.0961 190.368 76.4001C188.424 77.7041 186.152 79.3121 186.152 79.3121H268.208C268.208 79.3121 269.176 76.4001 265.6 74.4561Z" fill="white"/>
<path opacity="0.5" d="M265.6 74.4561C262.032 72.5121 260.416 74.1361 259.112 72.5121C257.808 70.8881 262.68 66.6721 252.952 62.4561C252.952 62.4561 252.304 53.3761 239.008 53.0561C225.712 52.7361 229.288 62.1361 225.72 64.4001C222.152 66.6641 221.176 63.1041 217.608 65.3761C214.04 67.6481 215.664 72.1841 212.744 72.8401C209.824 73.4961 205.936 69.9201 202.344 72.1841C198.752 74.4481 198.8 76.4001 197.176 76.4001C195.552 76.4001 192.312 75.0961 190.368 76.4001C188.424 77.7041 186.152 79.3121 186.152 79.3121H268.208C268.208 79.3121 269.176 76.4001 265.6 74.4561Z" fill="white"/>
</g>
<g opacity="0.5">
<path d="M167.776 24.976C165.664 23.816 164.704 24.784 163.936 23.816C163.168 22.848 166.048 20.36 160.28 17.864C160.28 17.864 159.896 12.48 152.016 12.264C144.136 12.048 146.248 17.648 144.136 18.992C142.024 20.336 141.44 18.192 139.336 19.568C137.232 20.944 138.184 23.568 136.456 23.992C134.728 24.416 132.416 22.256 130.304 23.6C128.192 24.944 128.184 26.104 127.224 26.104C126.264 26.104 124.344 25.304 123.224 26.104C122.104 26.904 120.72 27.832 120.72 27.832H169.352C169.352 27.832 169.888 26.128 167.776 24.976Z" fill="white"/>
<path opacity="0.5" d="M167.776 24.976C165.664 23.816 164.704 24.784 163.936 23.816C163.168 22.848 166.048 20.36 160.28 17.864C160.28 17.864 159.896 12.48 152.016 12.264C144.136 12.048 146.248 17.648 144.136 18.992C142.024 20.336 141.44 18.192 139.336 19.568C137.232 20.944 138.184 23.568 136.456 23.992C134.728 24.416 132.416 22.256 130.304 23.6C128.192 24.944 128.184 26.104 127.224 26.104C126.264 26.104 124.344 25.304 123.224 26.104C122.104 26.904 120.72 27.832 120.72 27.832H169.352C169.352 27.832 169.888 26.128 167.776 24.976Z" fill="white"/>
</g>
<g opacity="0.5">
<path d="M143.072 107.736C140.96 106.584 140 107.544 139.224 106.584C138.448 105.624 141.344 103.12 135.576 100.624C135.576 100.624 135.192 95.24 127.312 95.024C119.432 94.808 121.544 100.408 119.432 101.752C117.32 103.096 116.736 100.952 114.632 102.328C112.528 103.704 113.48 106.368 111.744 106.752C110.008 107.136 107.744 105.016 105.6 106.368C103.456 107.72 103.48 108.864 102.52 108.864C101.56 108.864 99.6399 108.064 98.5199 108.864C97.3999 109.664 96.0239 110.592 96.0239 110.592H144.656C144.656 110.592 145.184 108.888 143.072 107.736Z" fill="white"/>
<path opacity="0.5" d="M143.072 107.736C140.96 106.584 140 107.544 139.224 106.584C138.448 105.624 141.344 103.12 135.576 100.624C135.576 100.624 135.192 95.24 127.312 95.024C119.432 94.808 121.544 100.408 119.432 101.752C117.32 103.096 116.736 100.952 114.632 102.328C112.528 103.704 113.48 106.368 111.744 106.752C110.008 107.136 107.744 105.016 105.6 106.368C103.456 107.72 103.48 108.864 102.52 108.864C101.56 108.864 99.6399 108.064 98.5199 108.864C97.3999 109.664 96.0239 110.592 96.0239 110.592H144.656C144.656 110.592 145.184 108.888 143.072 107.736Z" fill="white"/>
</g>
<path d="M10.04 237.56L106.136 116.704C106.676 116.025 107.365 115.478 108.15 115.107C108.934 114.736 109.794 114.55 110.661 114.563C111.529 114.576 112.383 114.788 113.156 115.183C113.929 115.578 114.601 116.145 115.12 116.84L174.944 196.792L230.944 105.112C231.464 104.264 232.198 103.567 233.072 103.091C233.947 102.616 234.93 102.378 235.925 102.403C236.92 102.427 237.891 102.712 238.741 103.23C239.591 103.747 240.29 104.479 240.768 105.352L312.648 236.944L10.04 237.56Z" fill="#E0FE10"/>
<path opacity="0.4" d="M10.04 237.56L106.136 116.704C106.676 116.025 107.365 115.478 108.15 115.107C108.934 114.736 109.794 114.55 110.661 114.563C111.529 114.576 112.383 114.788 113.156 115.183C113.929 115.578 114.601 116.145 115.12 116.84L174.944 196.792L230.944 105.112C231.464 104.264 232.198 103.567 233.072 103.091C233.947 102.616 234.93 102.378 235.925 102.403C236.92 102.427 237.891 102.712 238.741 103.23C239.591 103.747 240.29 104.479 240.768 105.352L312.648 236.944L10.04 237.56Z" fill="white"/>
<g opacity="0.2">
<path d="M112.664 114.96L145.128 237.28L205.848 237.16L115.12 116.84C114.494 115.995 113.643 115.344 112.664 114.96Z" fill="black"/>
<path d="M240.8 105.352C240.271 104.376 239.466 103.578 238.485 103.058C237.505 102.537 236.393 102.316 235.288 102.424L282.648 237L312.68 236.944L240.8 105.352Z" fill="black"/>
</g>
<path opacity="0.2" d="M70.136 236.848L73.888 216.08L60.512 236.848H70.136Z" fill="black"/>
<path d="M241.6 237.2H282.832C282.032 232.152 278.832 233.04 278.368 225.2C278.152 221.264 281.8 216.4 281.48 211.224C281.224 206.968 277.024 202.6 276.68 197.728C276.384 193.328 279.968 188.456 279.624 183.712C279.296 179.232 275.04 174.912 274.664 170.28C274.288 165.648 277.8 160.816 277.392 156.224C276.984 151.632 272.64 147.424 272.184 142.888C271.712 138.232 275.112 133.224 274.584 128.768C274.032 124.04 269.568 119.968 268.984 115.608C268.304 110.752 271.464 105.576 270.728 101.384C269.824 96.256 265.048 92.544 264.04 88.76C262.168 81.712 262.44 74.92 260.192 74.472C257.792 74 257.296 80.664 255.512 88.112C254.608 91.848 249.912 95.64 249.176 100.776C248.552 104.928 251.856 109.984 251.312 114.816C250.832 119.136 246.512 123.296 246.056 128C245.664 132.416 249.192 137.296 248.84 141.92C248.504 146.408 244.288 150.72 243.992 155.264C243.696 159.808 247.344 164.608 247.096 169.112C246.84 173.736 242.696 178.096 242.488 182.544C242.256 187.24 245.968 191.984 245.792 196.344C245.592 201.144 241.504 205.6 241.352 209.824C241.168 214.952 244.936 219.688 244.816 223.592C244.568 232.064 240.688 230.312 240.552 237.128L241.6 237.2Z" fill="#E0FE10"/>
<path d="M259.288 88.0801V235.32" stroke="#263238" stroke-miterlimit="10"/>
<path d="M265.72 103.52L259.008 109.312L253.52 101.992" stroke="#263238" stroke-miterlimit="10"/>
<path d="M265.72 129.144L259.008 134.944L253.52 127.616" stroke="#263238" stroke-miterlimit="10"/>
<path d="M265.72 153.248L259.008 159.048L253.52 151.72" stroke="#263238" stroke-miterlimit="10"/>
<path d="M265.72 181.928L259.008 187.72L253.52 180.4" stroke="#263238" stroke-miterlimit="10"/>
<path d="M265.72 210.912L259.008 216.704L253.52 209.384" stroke="#263238" stroke-miterlimit="10"/>
<path d="M198.216 237.2H233.968C233.28 232.824 230.472 233.592 230.096 226.8C229.912 223.392 233.072 219.168 232.8 214.688C232.568 210.992 228.928 207.208 228.648 202.984C228.392 199.168 231.496 194.984 231.2 190.832C230.912 186.944 227.2 183.224 226.896 179.184C226.592 175.144 229.616 170.976 229.296 166.992C228.976 163.008 225.176 159.352 224.776 155.424C224.376 151.496 227.312 147.048 226.864 143.184C226.384 139.088 222.52 135.544 221.992 131.768C221.408 127.568 224.152 123.072 223.512 119.44C222.712 114.992 218.584 111.776 217.712 108.496C216.112 102.384 216.288 96.496 214.376 96.104C212.328 95.696 211.864 101.472 210.312 107.928C209.512 111.128 205.512 114.456 204.816 118.912C204.28 122.512 207.144 126.912 206.672 131.08C206.256 134.832 202.488 138.44 202.12 142.512C201.768 146.352 204.832 150.576 204.52 154.584C204.208 158.592 200.576 162.2 200.32 166.16C200.064 170.12 203.224 174.264 203.008 178.16C202.792 182.056 199.192 185.952 199.008 189.808C198.816 193.88 202.032 197.992 201.872 201.808C201.704 206 198.16 209.808 198.032 213.496C197.872 217.944 201.136 222.048 201.032 225.432C200.816 232.784 197.456 231.256 197.328 237.176L198.216 237.2Z" fill="#E0FE10"/>
<path d="M213.56 107.896V235.576" stroke="#263238" stroke-miterlimit="10"/>
<path d="M219.144 121.28L213.32 126.304L208.56 119.96" stroke="#263238" stroke-miterlimit="10"/>
<path d="M219.144 143.504L213.32 148.528L208.56 142.184" stroke="#263238" stroke-miterlimit="10"/>
<path d="M219.144 164.4L213.32 169.432L208.56 163.08" stroke="#263238" stroke-miterlimit="10"/>
<path d="M219.144 189.272L213.32 194.296L208.56 187.952" stroke="#263238" stroke-miterlimit="10"/>
<path d="M219.144 214.408L213.32 219.432L208.56 213.08" stroke="#263238" stroke-miterlimit="10"/>
<path d="M20.8001 237.2H56.5521C55.8641 232.824 53.0561 233.592 52.6881 226.8C52.4961 223.392 55.6561 219.168 55.3841 214.688C55.1601 210.992 51.5201 207.208 51.2321 202.984C50.9841 199.168 54.0881 194.984 53.7841 190.832C53.5041 186.944 49.7841 183.224 49.4801 179.184C49.1761 175.144 52.2081 170.976 51.8801 166.992C51.5521 163.008 47.7681 159.352 47.3681 155.424C46.9681 151.496 49.9041 147.048 49.4561 143.184C48.9761 139.088 45.1041 135.544 44.5841 131.768C44.0001 127.568 46.7361 123.072 46.0961 119.44C45.2961 114.992 41.1681 111.776 40.3041 108.496C38.7041 102.384 38.8801 96.496 36.9681 96.104C34.9201 95.696 34.4481 101.472 32.9041 107.928C32.1041 111.128 28.1041 114.456 27.4081 118.912C26.8721 122.512 29.7281 126.912 29.2641 131.08C28.8401 134.832 25.0721 138.44 24.7041 142.512C24.3601 146.352 27.4241 150.576 27.1041 154.584C26.7841 158.592 23.1521 162.2 22.8961 166.16C22.6401 170.12 25.8001 174.264 25.5841 178.16C25.3681 182.056 21.7761 185.952 21.5841 189.808C21.3841 193.88 24.6001 197.992 24.4481 201.808C24.2721 206 20.7281 209.808 20.6001 213.496C20.4401 217.944 23.7121 222.048 23.6081 225.432C23.3921 232.784 20.0241 231.256 19.9041 237.176L20.8001 237.2Z" fill="#E0FE10"/>
<path d="M36.168 107.896V235.576" stroke="#263238" stroke-miterlimit="10"/>
<path d="M41.752 121.28L35.928 126.304L31.168 119.96" stroke="#263238" stroke-miterlimit="10"/>
<path d="M41.752 143.504L35.928 148.528L31.168 142.184" stroke="#263238" stroke-miterlimit="10"/>
<path d="M41.752 164.4L35.928 169.432L31.168 163.08" stroke="#263238" stroke-miterlimit="10"/>
<path d="M41.752 189.272L35.928 194.296L31.168 187.952" stroke="#263238" stroke-miterlimit="10"/>
<path d="M41.752 214.408L35.928 219.432L31.168 213.08" stroke="#263238" stroke-miterlimit="10"/>
<path d="M213.973 237.032C230.522 233.194 240.826 216.666 236.987 200.117C233.148 183.568 216.62 173.265 200.072 177.104C183.523 180.943 173.219 197.47 177.058 214.019C180.897 230.568 197.424 240.871 213.973 237.032Z" fill="#263238"/>
<path d="M217.261 232.39C231.242 226.738 237.994 210.823 232.342 196.843C226.691 182.862 210.776 176.11 196.796 181.761C182.815 187.413 176.063 203.328 181.714 217.308C187.366 231.289 203.281 238.041 217.261 232.39Z" fill="white"/>
<path d="M207.04 230.848C211.654 230.844 216.167 229.499 220.03 226.976C223.893 224.454 226.94 220.863 228.8 216.64" stroke="#263238" stroke-linecap="round" stroke-linejoin="round"/>
<path d="M207.04 183.256C202.801 183.25 198.638 184.378 194.981 186.521C191.324 188.665 188.306 191.747 186.24 195.448" stroke="#263238" stroke-linecap="round" stroke-linejoin="round"/>
<path d="M207.04 185.64C203.225 185.639 199.478 186.658 196.188 188.59C192.899 190.523 190.185 193.299 188.328 196.632" stroke="#263238" stroke-linecap="round" stroke-linejoin="round"/>
<path d="M206.632 228.456H207.04C211.211 228.458 215.292 227.243 218.782 224.959C222.272 222.676 225.02 219.423 226.688 215.6" stroke="#263238" stroke-linecap="round" stroke-linejoin="round"/>
<path d="M207.04 188.288C203.692 188.286 200.405 189.181 197.519 190.879C194.634 192.577 192.256 195.016 190.632 197.944" stroke="#263238" stroke-linecap="round" stroke-linejoin="round"/>
<path d="M207.04 225.816C210.662 225.816 214.207 224.768 217.246 222.797C220.286 220.827 222.69 218.019 224.168 214.712" stroke="#263238" stroke-linecap="round" stroke-linejoin="round"/>
<path d="M207.04 191.2C204.222 191.199 201.455 191.95 199.024 193.374C196.592 194.798 194.585 196.845 193.208 199.304" stroke="#263238" stroke-linecap="round" stroke-linejoin="round"/>
<path d="M207.04 222.896C210.044 222.897 212.987 222.044 215.526 220.436C218.064 218.829 220.093 216.533 221.376 213.816" stroke="#263238" stroke-linecap="round" stroke-linejoin="round"/>
<path d="M131.455 228.798C143.468 216.786 143.468 197.31 131.455 185.297C119.443 173.284 99.9668 173.284 87.9542 185.297C75.9417 197.31 75.9417 216.786 87.9542 228.798C99.9668 240.811 119.443 240.811 131.455 228.798Z" fill="#263238"/>
<path d="M134.835 217.704C140.727 203.823 134.251 187.794 120.37 181.902C106.49 176.01 90.4605 182.486 84.5684 196.367C78.6764 210.248 85.1525 226.277 99.0334 232.169C112.914 238.061 128.943 231.585 134.835 217.704Z" fill="white"/>
<path d="M109.704 230.848C114.322 230.849 118.84 229.506 122.708 226.983C126.576 224.46 129.627 220.866 131.488 216.64" stroke="#263238" stroke-linecap="round" stroke-linejoin="round"/>
<path d="M109.704 183.256C105.465 183.249 101.301 184.376 97.6438 186.52C93.9867 188.664 90.9691 191.746 88.9038 195.448" stroke="#263238" stroke-linecap="round" stroke-linejoin="round"/>
<path d="M109.704 185.64C105.889 185.639 102.142 186.658 98.8525 188.59C95.5628 190.523 92.849 193.299 90.9919 196.632" stroke="#263238" stroke-linecap="round" stroke-linejoin="round"/>
<path d="M109.296 228.456H109.704C113.875 228.459 117.956 227.245 121.447 224.961C124.937 222.677 127.685 219.424 129.352 215.6" stroke="#263238" stroke-linecap="round" stroke-linejoin="round"/>
<path d="M109.704 188.288C106.356 188.287 103.069 189.182 100.184 190.88C97.2988 192.578 94.9205 195.017 93.2959 197.944" stroke="#263238" stroke-linecap="round" stroke-linejoin="round"/>
<path d="M109.704 225.816C113.327 225.816 116.873 224.767 119.913 222.797C122.954 220.827 125.359 218.019 126.84 214.712" stroke="#263238" stroke-linecap="round" stroke-linejoin="round"/>
<path d="M109.704 191.2C106.886 191.2 104.119 191.951 101.688 193.375C99.2571 194.799 97.2494 196.846 95.8718 199.304" stroke="#263238" stroke-linecap="round" stroke-linejoin="round"/>
<path d="M109.704 222.896C112.709 222.898 115.652 222.045 118.19 220.438C120.729 218.83 122.758 216.533 124.04 213.816" stroke="#263238" stroke-linecap="round" stroke-linejoin="round"/>
<path d="M182.304 105.64L178.6 89.264C178.6 89.264 174.2 87.664 170.68 89.616C167.776 91.216 157.624 105.392 154.168 110.296L153.96 110.088C153.913 110.008 153.847 109.942 153.767 109.896C153.687 109.85 153.596 109.826 153.504 109.826C153.412 109.826 153.321 109.85 153.241 109.896C153.161 109.942 153.094 110.008 153.048 110.088C153.048 110.088 150.648 112.216 150.744 112.96C150.986 113.43 151.293 113.864 151.656 114.248L131.904 134.248C131.904 134.248 126.576 134.368 125.624 134.84C124.672 135.312 124.672 135.432 124.672 137.24C124.672 139.048 124.912 140.68 125.264 140.8C125.616 140.92 127.76 141.392 127.992 140.68C128.224 139.968 127.4 138.664 127.4 138.664C127.4 138.664 127.992 137.128 129.184 137.6C130.376 138.072 131.312 139.616 132.856 139.024C134.4 138.432 135.704 135.936 135.704 135.936L157.04 120.128C157.448 120.561 157.884 120.967 158.344 121.344C159.104 121.84 161.768 119.832 161.728 118.84C161.734 118.803 161.734 118.765 161.728 118.728L182.304 105.64Z" fill="#263238"/>
<path d="M131.344 148.4C131.157 148.399 130.973 148.349 130.812 148.255C130.65 148.161 130.517 148.026 130.424 147.864L125.448 139.16C125.309 138.916 125.273 138.627 125.347 138.356C125.421 138.085 125.6 137.855 125.844 137.716C126.088 137.577 126.377 137.541 126.648 137.615C126.919 137.689 127.149 137.868 127.288 138.112L132.264 146.8C132.361 146.961 132.413 147.146 132.415 147.334C132.417 147.522 132.368 147.707 132.274 147.871C132.18 148.034 132.045 148.169 131.881 148.262C131.718 148.355 131.532 148.403 131.344 148.4Z" fill="white" stroke="#263238" stroke-linecap="round" stroke-linejoin="round"/>
<path d="M149.464 113.112L128.976 133.912C128.976 133.912 123.64 134.032 122.688 134.504C121.736 134.976 121.736 135.096 121.736 136.904C121.736 138.712 121.976 140.336 122.336 140.456C122.696 140.576 124.824 141.048 125.056 140.336C125.288 139.624 124.464 138.32 124.464 138.32C124.464 138.32 125.056 136.784 126.248 137.256C127.44 137.728 128.376 139.272 129.92 138.68C131.464 138.088 132.768 135.6 132.768 135.6L155.04 119.04L149.464 113.112Z" fill="white" stroke="#263238" stroke-linecap="round" stroke-linejoin="round"/>
<path d="M128.856 138.408C128.858 137.92 128.714 137.443 128.445 137.037C128.175 136.631 127.791 136.314 127.34 136.126C126.89 135.938 126.395 135.888 125.916 135.982C125.438 136.077 124.998 136.311 124.653 136.655C124.307 136.999 124.072 137.438 123.976 137.916C123.88 138.395 123.929 138.89 124.115 139.341C124.301 139.792 124.617 140.177 125.022 140.448C125.428 140.719 125.904 140.864 126.392 140.864C127.044 140.864 127.67 140.606 128.131 140.145C128.593 139.685 128.854 139.06 128.856 138.408Z" fill="#263238"/>
<path d="M193.28 140.648C191.055 141.681 188.673 142.335 186.232 142.584C182.36 142.936 179.72 142.408 180.632 145.224C181.544 148.04 187.496 148.568 191.904 147.512C196.312 146.456 198.416 144.872 197.888 142.056C197.36 139.24 194.688 140.12 193.28 140.648Z" fill="#263238"/>
<path d="M179.368 134.48C179.368 134.48 152.248 154.56 151.544 158.784C150.84 163.008 155.768 195.056 155.768 195.056L159.992 196.464C159.992 196.464 162.288 167.936 164.576 162.48C166.864 157.024 189.584 144.168 190.112 137.68C190.64 131.192 185 131.136 179.368 134.48Z" fill="#263238"/>
<path d="M155.768 195.056C154.444 195.421 153.089 195.656 151.72 195.76C149.432 195.936 146.264 194.704 146.264 195.584C146.264 196.464 150.136 199.816 152.072 199.992C154.008 200.168 156.472 200.344 156.472 200.344L156.568 201.712L159.112 202.456L159.992 196.464L155.768 195.056Z" fill="#263238"/>
<path d="M156.59 201.718L148.261 197.501L147.068 199.857L155.398 204.074L156.59 201.718Z" fill="white" stroke="#263238" stroke-linecap="round" stroke-linejoin="round"/>
<path d="M151.808 200.784L162.464 208.088L163.504 205.512L152.072 199.992L151.808 200.784Z" fill="white" stroke="#263238" stroke-linecap="round" stroke-linejoin="round"/>
<path d="M207.632 205.288L186.16 151.344C186.104 151.205 186.02 151.08 185.912 150.976L187.048 147.984C187.097 147.854 187.121 147.716 187.117 147.577C187.113 147.439 187.081 147.302 187.024 147.175C186.968 147.049 186.886 146.934 186.785 146.839C186.684 146.744 186.566 146.669 186.436 146.62C186.306 146.571 186.168 146.547 186.029 146.551C185.89 146.555 185.754 146.587 185.627 146.644C185.5 146.7 185.386 146.782 185.291 146.883C185.196 146.984 185.121 147.102 185.072 147.232L182.592 153.768H130.968C131.888 149.976 132.36 147.656 132.384 147.568C132.411 147.432 132.411 147.292 132.385 147.156C132.358 147.02 132.304 146.89 132.228 146.775C132.151 146.659 132.052 146.56 131.937 146.482C131.821 146.405 131.692 146.351 131.556 146.324C131.42 146.297 131.28 146.296 131.144 146.323C131.007 146.35 130.878 146.404 130.762 146.48C130.647 146.557 130.548 146.656 130.47 146.771C130.393 146.887 130.339 147.016 130.312 147.152C130.24 147.504 122.968 183.056 108.8 206.504C108.658 206.744 108.616 207.031 108.684 207.302C108.751 207.573 108.922 207.806 109.16 207.952C109.4 208.096 109.687 208.139 109.958 208.072C110.23 208.004 110.463 207.832 110.608 207.592C118.128 195.152 123.72 179.384 127.352 167.128L162.4 208.6C162.461 208.774 162.547 208.939 162.656 209.088C162.851 209.358 163.107 209.577 163.403 209.729C163.699 209.881 164.027 209.96 164.36 209.96H164.456L205.776 208.168C206.112 208.153 206.44 208.058 206.732 207.891C207.024 207.724 207.272 207.49 207.456 207.208C207.637 206.925 207.747 206.604 207.778 206.269C207.808 205.935 207.758 205.599 207.632 205.288ZM130.44 155.88H181.792L162.856 205.88L128.064 164.696C129.016 161.392 129.8 158.4 130.44 155.88ZM164.368 207.88L184.856 153.8L205.656 206.08L164.368 207.88Z" fill="white" stroke="#263238" stroke-linecap="round" stroke-linejoin="round"/>
<path d="M133.808 147.36C133.808 146.873 133.663 146.396 133.393 145.991C133.122 145.586 132.737 145.27 132.287 145.084C131.837 144.897 131.341 144.848 130.863 144.943C130.385 145.038 129.946 145.273 129.602 145.618C129.257 145.962 129.022 146.401 128.927 146.879C128.832 147.357 128.881 147.853 129.067 148.303C129.254 148.753 129.57 149.138 129.975 149.409C130.38 149.679 130.857 149.824 131.344 149.824C131.997 149.824 132.624 149.564 133.086 149.102C133.548 148.64 133.808 148.014 133.808 147.36Z" fill="white" stroke="#263238" stroke-linecap="round" stroke-linejoin="round"/>
<path d="M113.184 207.048C113.184 206.36 112.98 205.687 112.597 205.115C112.215 204.542 111.672 204.096 111.036 203.833C110.4 203.57 109.7 203.501 109.025 203.635C108.35 203.769 107.73 204.101 107.243 204.587C106.756 205.074 106.425 205.694 106.291 206.369C106.156 207.044 106.225 207.744 106.489 208.38C106.752 209.016 107.198 209.559 107.77 209.942C108.343 210.324 109.016 210.528 109.704 210.528C110.627 210.528 111.512 210.161 112.165 209.509C112.817 208.856 113.184 207.971 113.184 207.048Z" fill="#263238"/>
<path d="M210.096 207.048C210.097 206.358 209.894 205.683 209.512 205.108C209.13 204.533 208.585 204.085 207.948 203.82C207.311 203.555 206.609 203.484 205.932 203.618C205.255 203.752 204.633 204.083 204.144 204.571C203.656 205.058 203.323 205.68 203.187 206.357C203.052 207.033 203.121 207.735 203.385 208.373C203.648 209.011 204.095 209.556 204.669 209.94C205.243 210.323 205.918 210.528 206.608 210.528C207.532 210.528 208.418 210.162 209.071 209.509C209.725 208.857 210.094 207.972 210.096 207.048Z" fill="#263238"/>
<path d="M170.856 207.048C170.856 205.624 170.434 204.232 169.642 203.048C168.851 201.864 167.727 200.941 166.411 200.396C165.096 199.851 163.648 199.709 162.251 199.986C160.855 200.264 159.572 200.95 158.565 201.957C157.558 202.964 156.872 204.247 156.594 205.644C156.316 207.04 156.459 208.488 157.004 209.803C157.549 211.119 158.472 212.244 159.656 213.035C160.84 213.826 162.232 214.248 163.656 214.248C165.565 214.248 167.397 213.49 168.747 212.139C170.097 210.789 170.856 208.958 170.856 207.048Z" fill="#263238"/>
<path d="M174.608 208.44L163.504 205.512C163.298 205.454 163.083 205.438 162.87 205.465C162.658 205.492 162.454 205.562 162.269 205.669C162.084 205.776 161.922 205.92 161.794 206.091C161.665 206.262 161.572 206.457 161.52 206.664C161.457 206.887 161.443 207.12 161.479 207.349C161.515 207.577 161.601 207.795 161.729 207.988C161.858 208.18 162.026 208.342 162.224 208.463C162.421 208.584 162.642 208.661 162.872 208.688L175.32 210.376L174.608 208.44Z" fill="white" stroke="#263238" stroke-linecap="round" stroke-linejoin="round"/>
<path d="M179.328 204.021L173.049 210.929L175.002 212.705L181.282 205.796L179.328 204.021Z" fill="white" stroke="#263238" stroke-linecap="round" stroke-linejoin="round"/>
<path d="M179.2 133.776C179.2 133.776 157.944 153.432 156.888 158.888C155.832 164.344 177.44 199.64 177.44 199.64L181.664 198.232C181.664 198.232 169.512 167.232 171.096 164.944C172.68 162.656 201.112 143.448 205.344 136.944C209.576 130.44 207.176 123.936 204.008 120.944C200.84 117.952 179.2 133.776 179.2 133.776Z" fill="#263238"/>
<path d="M165.104 158.896L171.088 164.944L168.128 157.592" stroke="white" stroke-width="0.75" stroke-linecap="round" stroke-linejoin="round"/>
<path d="M160.992 170.8C160.992 170.8 156.664 160.2 157.96 156.952C159.256 153.704 180.456 137.704 180.456 137.704C180.456 137.704 191.056 134.136 198.2 135.536" stroke="white" stroke-width="0.75" stroke-linecap="round" stroke-linejoin="round"/>
<path d="M192.36 133.584C192.36 133.584 196.032 131.856 201.44 133.8" stroke="white" stroke-width="0.75" stroke-linecap="round" stroke-linejoin="round"/>
<path d="M177.432 199.64C177.432 199.64 175.496 201.752 173.552 203.688C171.608 205.624 169.152 206.152 170.032 206.68C170.912 207.208 172.32 207.736 174.968 206.856C177.616 205.976 180.952 202.984 180.952 202.984L181.48 203.864L184.472 202.264L181.656 198.216L177.432 199.64Z" fill="#263238"/>
<path d="M166.664 63.736C165.216 62.2825 163.452 61.1827 161.509 60.5222C159.567 59.8617 157.498 59.6584 155.464 59.928C151.696 60.608 150.664 65.72 149.944 68.792L149.28 71.6L149.344 73.752L148.144 78.328C148.106 78.4673 148.099 78.6131 148.122 78.7554C148.146 78.8978 148.199 79.0335 148.28 79.1534C148.36 79.2732 148.465 79.3744 148.588 79.4501C148.711 79.5257 148.849 79.5741 148.992 79.592L150.336 79.768C150.568 81.264 152.088 84.24 152.288 85.28C153.088 89.28 155.704 89 157.408 88.384C158.502 87.8628 159.524 87.2012 160.448 86.416L164.448 89.8L171.6 82.016L168.544 77.6C168.544 77.6 169.464 66.672 166.664 63.736Z" fill="white" stroke="#263238" stroke-linecap="round" stroke-linejoin="round"/>
<path d="M152.112 74.848C152.224 75.48 152.112 76.032 151.864 76.072C151.616 76.112 151.328 75.64 151.224 75.008C151.12 74.376 151.224 73.824 151.464 73.784C151.704 73.744 152 74.216 152.112 74.848Z" fill="#263238"/>
<path d="M150.184 72.3441C150.395 72.1524 150.645 72.009 150.917 71.9239C151.189 71.8388 151.476 71.814 151.759 71.8513C152.041 71.8887 152.312 71.9872 152.553 72.14C152.794 72.2928 152.998 72.4962 153.152 72.7361" stroke="#263238" stroke-linecap="round" stroke-linejoin="round"/>
<path d="M156.136 67.864C156.136 67.864 154 70.4 154.8 71.336C155.897 72.4209 157.053 73.4438 158.264 74.4C158.264 74.4 160.136 71.064 162.8 72.4C165.464 73.736 163.336 76.936 164.264 78.264C165.192 79.592 168.4 77.6 168.664 76.936C168.928 76.272 173.736 66.536 174 62.936C174.264 59.336 164.4 55.736 160.136 54.936C155.872 54.136 152.664 56 153.464 55.2C154.264 54.4 155.6 52.264 153.064 52C150.528 51.736 147.2 55.6 147.2 57.864C147.199 58.4777 147.433 59.0684 147.854 59.5148C148.275 59.9611 148.851 60.2293 149.464 60.264C149.464 60.264 143.064 58.664 144.8 62.4C146.536 66.136 149.464 66 152.136 66.136C153.644 66.1652 155.081 66.7858 156.136 67.864Z" fill="#263238"/>
<path d="M161.064 72.8001H160.976C160.766 72.776 160.575 72.6699 160.443 72.5051C160.311 72.3403 160.249 72.13 160.272 71.9201L161.208 63.6481C161.22 63.543 161.253 63.4414 161.304 63.3489C161.355 63.2565 161.424 63.1751 161.507 63.1094C161.59 63.0436 161.685 62.9948 161.787 62.9658C161.888 62.9367 161.995 62.928 162.1 62.9401C162.205 62.9522 162.307 62.9848 162.399 63.0362C162.491 63.0876 162.573 63.1566 162.639 63.2395C162.704 63.3223 162.753 63.4172 162.782 63.5189C162.811 63.6206 162.82 63.727 162.808 63.8321L161.88 72.0961C161.856 72.294 161.759 72.4759 161.608 72.6061C161.457 72.7363 161.263 72.8055 161.064 72.8001Z" fill="white" stroke="#263238" stroke-miterlimit="10"/>
<path d="M160.704 80.584C160.221 80.5851 159.743 80.4909 159.296 80.3068C158.85 80.1228 158.444 79.8525 158.102 79.5114C157.76 79.1703 157.489 78.7651 157.304 78.3191C157.119 77.8731 157.024 77.3949 157.024 76.912V73.472C157.026 72.4974 157.415 71.5635 158.105 70.8751C158.795 70.1867 159.729 69.8 160.704 69.8C161.679 69.8 162.613 70.1867 163.303 70.8751C163.993 71.5635 164.382 72.4974 164.384 73.472V76.912C164.384 77.3949 164.289 77.8731 164.104 78.3191C163.919 78.7651 163.647 79.1703 163.306 79.5114C162.964 79.8525 162.558 80.1228 162.112 80.3068C161.665 80.4909 161.187 80.5851 160.704 80.584Z" fill="white" stroke="#263238" stroke-miterlimit="10"/>
<path d="M161.648 55.6L160.488 64.112C160.457 64.3254 160.469 64.543 160.524 64.7516C160.578 64.9602 160.675 65.1555 160.807 65.3259C160.939 65.4963 161.105 65.6382 161.293 65.743C161.482 65.8479 161.689 65.9135 161.904 65.936H162C162.211 65.9639 162.425 65.9495 162.631 65.8935C162.836 65.8376 163.028 65.7412 163.196 65.6101C163.363 65.479 163.503 65.3157 163.607 65.1299C163.711 64.9441 163.776 64.7395 163.8 64.528L164.864 56C164.893 55.7884 164.879 55.5732 164.824 55.3669C164.769 55.1607 164.672 54.9676 164.541 54.7991C164.41 54.6306 164.246 54.4901 164.06 54.3858C163.874 54.2816 163.668 54.2157 163.456 54.192C163.244 54.1629 163.029 54.1765 162.823 54.232C162.617 54.2874 162.424 54.3835 162.255 54.5148C162.087 54.646 161.946 54.8096 161.842 54.996C161.737 55.1824 161.672 55.3878 161.648 55.6Z" fill="white" stroke="#263238" stroke-miterlimit="10"/>
<path d="M172.672 78.8C172.672 78.8 159.872 90.408 160.056 92.344C160.24 94.28 159.832 102.92 164.584 112.608C169.336 122.296 175.032 130.44 177.144 134.136C179.256 137.832 185.408 135.096 185.408 135.096C185.408 135.096 198.344 130.56 202.568 126.512C206.792 122.464 202.568 115.072 202.568 115.072C202.568 115.072 186.936 92.7121 181.832 87.2561C179.016 84.1908 175.952 81.3626 172.672 78.8Z" fill="#E0FE10" stroke="#263238" stroke-linecap="round" stroke-linejoin="round"/>
<path d="M159.736 94.0001C159.736 94.0001 162.336 91.6881 164.44 89.7761C166.544 87.8641 177.2 85.7361 179.864 86.2641C182.528 86.7921 183.2 89.2001 183.736 89.0641C184.272 88.9281 184.536 85.4641 181.736 80.8001C178.936 76.1361 174.664 74.1361 172.4 75.6001C170.136 77.0641 164.536 84.1361 162.136 87.0641C159.736 89.9921 158.8 91.7361 159.736 94.0001Z" fill="#E0FE10" stroke="#263238" stroke-linecap="round" stroke-linejoin="round"/>
<path d="M171.504 109.304C171.504 109.304 180.08 110.016 186.04 108.824" stroke="#263238" stroke-linecap="round" stroke-linejoin="round"/>
<path d="M168.16 110C168.16 110 176.264 115.008 184.608 115.48" stroke="#263238" stroke-linecap="round" stroke-linejoin="round"/>
<path d="M175.672 88.872C175.672 88.872 171.264 87.272 167.744 89.224C164.224 91.176 150.056 111.6 150.056 111.6L157.256 119.304L179.336 105.272" fill="#E0FE10"/>
<path d="M175.672 88.872C175.672 88.872 171.264 87.272 167.744 89.224C164.224 91.176 150.056 111.6 150.056 111.6L157.256 119.304L179.336 105.272" stroke="#263238" stroke-linecap="round" stroke-linejoin="round"/>
<path d="M150.112 109.704C150.112 109.704 147.712 111.832 147.808 112.576C147.904 113.32 154.648 120.464 155.408 120.952C156.168 121.44 158.832 119.44 158.792 118.448C158.752 117.456 151.024 109.696 151.024 109.696C150.977 109.617 150.91 109.551 150.829 109.506C150.749 109.461 150.658 109.437 150.566 109.438C150.473 109.439 150.383 109.464 150.303 109.511C150.224 109.557 150.158 109.624 150.112 109.704Z" fill="#E0FE10" stroke="#263238" stroke-linecap="round" stroke-linejoin="round"/>
<path d="M1.95204 239.792H315.104C315.554 239.792 315.985 239.613 316.303 239.295C316.621 238.977 316.8 238.546 316.8 238.096C316.8 237.646 316.621 237.215 316.303 236.897C315.985 236.579 315.554 236.4 315.104 236.4H1.95204C1.72865 236.399 1.50725 236.442 1.30056 236.527C1.09387 236.611 0.905953 236.736 0.747617 236.894C0.58928 237.051 0.46364 237.239 0.377908 237.445C0.292177 237.651 0.248044 237.873 0.248047 238.096C0.248044 238.319 0.292177 238.541 0.377908 238.747C0.46364 238.953 0.58928 239.14 0.747617 239.298C0.905953 239.456 1.09387 239.58 1.30056 239.665C1.50725 239.75 1.72865 239.793 1.95204 239.792Z" fill="#263238"/>
</g>
<defs>
<clipPath id="clip0_174_352">
<rect width="316.552" height="250.281" fill="white" transform="translate(0.248047 0.267944)"/>
</clipPath>
</defs>
</svg>
