<svg width="80" height="72" viewBox="0 0 80 72" fill="none" xmlns="http://www.w3.org/2000/svg">
<g clip-path="url(#clip0_43_381)">
<path d="M79.9992 45.6344C79.9992 36.3652 73.2007 28.6734 64.3314 27.232L62.01 16.3014H64.0433C64.2313 19.0028 65.1419 21.6134 68.6965 22.5828C69.3779 22.7695 70.0818 22.8614 70.8006 22.8614C71.9352 22.8614 73.1005 22.6294 74.2499 22.1708L79.1605 20.2055C79.8445 19.9322 80.1778 19.1575 79.9045 18.4722C79.6313 17.7896 78.8499 17.4563 78.1713 17.7308L73.2607 19.6934C71.9474 20.2202 70.5781 20.332 69.3993 20.0108C67.67 19.5388 66.9167 18.5414 66.7234 16.3014H67.9993C69.4699 16.3014 70.666 15.1055 70.666 13.6348V10.9681C70.666 9.49745 69.4701 8.30137 67.9993 8.30137H50.6662C49.1956 8.30137 47.9995 9.4973 47.9995 10.9681V13.6348C47.9995 15.1054 49.1955 16.3014 50.6662 16.3014H52.2729L54.997 28.0773C50.3556 29.7452 46.5144 33.216 44.3877 37.8705L22.3279 36.4452L17.7012 17.6347H19.7653C22.0999 17.6347 23.9999 15.7347 23.9999 13.2762C23.9999 11.2921 22.6506 9.59479 20.7187 9.14949L9.11991 6.47358C7.87055 6.18686 6.58134 6.47764 5.57729 7.27622C4.57464 8.07356 3.99996 9.26542 3.99996 10.5468V13.4548C3.99996 15.76 5.87463 17.6347 8.17992 17.6347H8.28258L8.92663 20.3014H1.33327C0.597338 20.3014 0 20.8987 0 21.6347C0 22.3706 0.597338 22.9679 1.33327 22.9679H2.66654V24.3012C2.66654 25.0371 3.26387 25.6345 3.9998 25.6345C4.73574 25.6345 5.33307 25.0371 5.33307 24.3012V22.9679H9.57038L13.353 38.6398C10.9063 40.5957 9.33303 43.5998 9.33303 46.9677C9.33303 49.545 10.2516 51.9103 11.7797 53.757L5.84244 65.6342H5.31573C3.11981 65.6342 1.33311 67.4209 1.33311 69.6516C1.33311 71.8475 3.11981 73.6342 5.31573 73.6342H73.3498C75.5457 73.6342 77.3324 71.8475 77.3324 69.6169C77.3324 67.4209 75.5457 65.6342 73.3498 65.6342H72.4871L71.5524 61.2369C76.6325 57.897 79.9992 52.1558 79.9992 45.6344ZM19.9998 41.6345C22.9412 41.6345 25.333 44.0265 25.333 46.9677C25.333 49.9089 22.9412 52.3011 19.9998 52.3011C17.0584 52.3011 14.6666 49.9091 14.6666 46.9679C14.6666 44.0266 17.0584 41.6345 19.9998 41.6345ZM15.5292 65.6342L19.6972 57.6184C19.7986 57.6224 19.8972 57.6343 19.9998 57.6343C20.7865 57.6343 21.5945 57.5396 22.2718 57.3756L44.9075 54.4409C48.1408 60.4582 54.4795 64.3008 61.3327 64.3008C61.7927 64.3008 62.2447 64.2649 62.6967 64.2314L62.9941 65.6341H15.5292V65.6342ZM69.3207 59.477C68.9275 59.7037 68.5261 59.9116 68.1181 60.1037C68.0621 60.129 68.0075 60.1584 67.9528 60.1837C67.5275 60.377 67.0954 60.5504 66.6554 60.7051C66.6154 60.7184 66.5769 60.7345 66.5381 60.7477C66.0701 60.9091 65.594 61.0491 65.1114 61.1651C65.102 61.1663 65.0941 61.1691 65.0861 61.1718C64.5861 61.2918 64.0794 61.3877 63.5661 61.4598H63.5634C62.8314 61.5624 62.0914 61.6344 61.3328 61.6344C55.8035 61.6344 50.6597 58.7185 47.7623 54.0719L61.4235 52.3013C65.0581 52.2519 67.9993 49.2799 67.9993 45.6346C67.9993 45.176 67.9526 44.7293 67.8647 44.296C67.2447 41.2614 64.5633 38.9708 61.4233 38.9708H61.418L47.2567 38.0548C49.3087 34.2255 52.774 31.4522 56.8566 30.2708C56.8846 30.2641 56.9126 30.2668 56.9393 30.2588C58.3872 29.8455 59.8646 29.6348 61.3325 29.6348C61.8872 29.6348 62.4566 29.6668 63.0699 29.7333C71.0777 30.6027 77.3324 37.4 77.3324 45.6346C77.3325 51.5464 74.1019 56.7064 69.3207 59.477Z" fill="#E0FE10"/>
<path d="M19.9996 49.6344C21.4702 49.6344 22.6663 48.4385 22.6663 46.9677C22.6663 45.4971 21.4704 44.301 19.9996 44.301C18.5289 44.301 17.3329 45.4969 17.3329 46.9677C17.3331 48.4385 18.529 49.6344 19.9996 49.6344Z" fill="#E0FE10"/>
</g>
<defs>
<clipPath id="clip0_43_381">
<rect width="80" height="80" fill="white"/>
</clipPath>
</defs>
</svg>
