<svg width="100" height="86" viewBox="0 0 100 86" fill="none" xmlns="http://www.w3.org/2000/svg">
<g clip-path="url(#clip0_43_378)">
<path d="M99.8939 52.0145C99.7547 51.5774 99.4975 50.7584 99.0361 49.3047C97.5227 44.5282 89.2367 27.7862 89.2367 27.7862C88.7656 26.7487 87.699 26.1432 86.5951 26.2809L76.3375 27.5709C75.6447 27.6584 75.0359 28.0858 74.7058 28.717C74.7058 28.717 73.5178 30.7209 73.0127 31.9672C72.5092 33.2121 72.8119 34.4567 73.8203 35.1852C74.8287 35.9104 79.6703 37.1567 80.5783 36.7422C82.1031 36.043 82.8979 32.8996 82.8979 32.8996L85.2191 32.4852C85.2191 32.4852 86.1871 35.9039 86.0234 38.9227C85.8228 42.6602 86.4281 45.2549 86.9332 48.4744C83.6035 43.8012 75.5846 40.8424 71.8033 46.6047C70.7805 45.7016 68.2861 44.01 64.5307 43.578C61.7465 43.1975 58.399 44.1137 58.399 44.1137C57.7935 43.4891 57.0377 40.5301 57.0377 39.2852L58.2484 38.3514V33.5244C58.2484 33.5244 59.307 32.2782 59.7603 30.8764C60.2152 29.4746 59.9125 26.6711 58.399 26.8264C58.399 26.8264 58.556 25.5315 58.6271 23.9127L58.6967 23.7119C58.6838 23.5502 58.6676 23.3914 58.6498 23.236C58.6967 21.4555 58.606 19.4678 58.0961 18.4172C57.0375 16.2369 52.9471 16.3922 52.9471 16.3922C52.9471 16.3922 50.8299 16.211 49.5316 16.2254C45.7359 15.3465 45.383 13.901 45.383 13.901C45.383 13.901 42.9615 16.2367 41.9029 18.417C40.8443 20.5973 41.6002 26.826 41.6002 26.826C40.0867 26.6707 39.784 29.4742 40.2389 30.876C40.6937 32.2778 41.7523 33.5241 41.7523 33.5241V38.351L42.9615 39.2848C42.9615 40.5297 42.2072 43.4887 41.6002 44.1133C41.6002 44.1133 38.2545 43.1973 35.4703 43.5776C31.7133 44.0096 29.2205 45.7012 28.1959 46.6043C24.4146 40.842 16.3959 43.8008 13.0678 48.4741C13.5711 45.2545 14.1781 42.6598 13.9758 38.9223C13.8123 35.9035 14.782 32.4848 14.782 32.4848L17.1016 32.8992C17.1016 32.8992 17.8947 36.0428 19.4211 36.7418C20.3293 37.1563 25.1707 35.91 26.1791 35.1848C27.1891 34.4563 27.4902 33.2117 26.9867 31.9668C26.4816 30.7203 25.2935 28.7166 25.2935 28.7166C24.9635 28.0854 24.3547 27.658 23.6635 27.5705L13.4043 26.2805C12.3004 26.143 11.2351 26.7485 10.7627 27.7858C10.7627 27.7858 2.47831 44.5278 0.964837 49.3043C0.501946 50.758 0.244524 51.577 0.105462 52.0141C-0.257233 53.1602 0.340227 54.3951 1.44745 54.7852L7.92363 57.0385C7.92363 57.0385 12.9156 60.1528 17.7068 61.451C20.8293 62.2975 24.7447 64.0004 27.2426 63.4856C28.1344 68.4065 29.2965 70.8377 33.332 74.1752C33.332 74.1752 34.5703 79.7598 36.5678 81.9869C36.5678 81.9869 36.5678 85.2405 37.068 86.0985H62.9328C63.433 85.2405 63.433 81.9869 63.433 81.9869C65.4305 79.7598 66.6672 74.1752 66.6672 74.1752C70.7043 70.8377 71.8648 68.4065 72.7582 63.4856C75.2543 64.0004 79.1715 62.2975 82.2937 61.451C87.0836 60.1528 92.0771 57.0385 92.0771 57.0385L98.5518 54.7852C99.6594 54.3955 100.257 53.1604 99.8939 52.0145Z" fill="#2C2C2C"/>
</g>
<defs>
<clipPath id="clip0_43_378">
<rect width="100" height="100" fill="white"/>
</clipPath>
</defs>
</svg>
