<svg width="123" height="100" viewBox="0 0 123 100" fill="none" xmlns="http://www.w3.org/2000/svg">
<g clip-path="url(#clip0_63_356)">
<path d="M0 44.1176L5.49158 52.3418C9.13229 57.7941 17.3253 57.2044 20.1477 51.2869L20.7615 50C23.5759 44.0991 31.9752 44.0991 34.7896 50V50C37.604 55.9008 46.0032 55.9008 48.8176 50V50C51.6321 44.0991 60.0313 44.0991 62.8457 50V50C65.6601 55.9008 74.0593 55.9008 76.8737 50V50C79.6882 44.0991 88.0874 44.0991 90.9018 50V50C93.7162 55.9008 102.115 55.9008 104.93 50V50C107.744 44.0991 116.143 44.0991 118.958 50L119.61 51.3662C122.431 57.2811 130.604 57.9078 134.294 52.4922L140 44.1176" stroke="#E0FE10" stroke-opacity="0.3" stroke-width="3"/>
<path d="M0 61.7646L5.49158 69.9888C9.13229 75.4411 17.3253 74.8514 20.1477 68.9339L20.7615 67.6469C23.5759 61.7461 31.9752 61.7461 34.7896 67.6469V67.6469C37.604 73.5477 46.0032 73.5477 48.8176 67.6469V67.6469C51.6321 61.7461 60.0313 61.7461 62.8457 67.6469V67.6469C65.6601 73.5477 74.0593 73.5477 76.8737 67.6469V67.6469C79.6882 61.7461 88.0874 61.7461 90.9018 67.6469V67.6469C93.7162 73.5477 102.115 73.5477 104.93 67.6469V67.6469C107.744 61.7461 116.143 61.7461 118.958 67.6469L119.61 69.0132C122.431 74.928 130.604 75.5548 134.294 70.1392L140 61.7646" stroke="#E0FE10" stroke-opacity="0.6" stroke-width="3"/>
<path d="M0 79.4117L5.49158 87.6359C9.13229 93.0882 17.3253 92.4985 20.1477 86.581L20.7615 85.294C23.5759 79.3932 31.9752 79.3932 34.7896 85.294V85.294C37.604 91.1948 46.0032 91.1948 48.8176 85.294V85.294C51.6321 79.3932 60.0313 79.3932 62.8457 85.294V85.294C65.6601 91.1948 74.0593 91.1948 76.8737 85.294V85.294C79.6882 79.3932 88.0874 79.3932 90.9018 85.294V85.294C93.7162 91.1948 102.115 91.1948 104.93 85.294V85.294C107.744 79.3932 116.143 79.3932 118.958 85.294L119.61 86.6603C122.431 92.5751 130.604 93.2019 134.294 87.7863L140 79.4117" stroke="#E0FE10" stroke-width="3"/>
</g>
<rect x="1" y="1" width="121" height="98" rx="19" stroke="#E0FE10" stroke-width="2"/>
<defs>
<clipPath id="clip0_63_356">
<rect width="123" height="100" rx="20" fill="white"/>
</clipPath>
</defs>
</svg>
