<svg width="319" height="287" viewBox="0 0 319 287" fill="none" xmlns="http://www.w3.org/2000/svg">
<path d="M210.306 7.52017C210.306 7.52017 157.148 -13.3637 106.309 16.1096C55.4691 45.5829 31.0476 106.225 9.97609 154.759C-11.0954 203.294 3.1421 253.658 43.1947 277.557C83.2473 301.456 109.17 268.592 164.465 268.499C219.76 268.405 234.855 277.028 279.899 245.879C324.943 214.731 331.187 138.378 293.446 80.6976C255.705 23.0173 210.306 7.52017 210.306 7.52017Z" fill="#E0FE10"/>
<path opacity="0.7" d="M210.306 7.52017C210.306 7.52017 157.148 -13.3637 106.309 16.1096C55.4691 45.5829 31.0476 106.225 9.97609 154.759C-11.0954 203.294 3.1421 253.658 43.1947 277.557C83.2473 301.456 109.17 268.592 164.465 268.499C219.76 268.405 234.855 277.028 279.899 245.879C324.943 214.731 331.187 138.378 293.446 80.6976C255.705 23.0173 210.306 7.52017 210.306 7.52017Z" fill="white"/>
<path d="M271.015 167.496C271.015 167.496 271.015 164.903 274.653 161.265C278.291 157.627 280.629 155.55 280.629 155.55C280.629 155.55 282.445 161.526 279.068 165.158C276.589 167.717 273.899 170.063 271.028 172.173L271.015 167.496Z" fill="#E0FE10"/>
<path d="M276.294 183.724C276.294 183.724 276.294 181.124 279.932 177.486C283.571 173.848 285.902 171.771 285.902 171.771C285.902 171.771 287.725 177.747 284.348 181.385C281.868 183.944 279.179 186.29 276.308 188.4L276.294 183.724Z" fill="#E0FE10"/>
<path d="M271.243 171.925C271.243 171.925 270.968 169.339 266.968 166.109C262.968 162.88 260.422 161.057 260.422 161.057C260.422 161.057 259.25 167.188 262.988 170.437C265.73 172.717 268.657 174.766 271.738 176.561L271.243 171.925Z" fill="#E0FE10"/>
<path d="M277.621 191.06C277.621 191.06 277.078 188.521 272.757 185.7C268.435 182.879 265.722 181.365 265.722 181.365C265.722 181.365 265.193 187.589 269.259 190.437C272.223 192.418 275.347 194.149 278.599 195.609L277.621 191.06Z" fill="#E0FE10"/>
<path d="M276.422 211.971C276.422 211.971 276.422 209.371 272.784 205.733C269.145 202.095 266.814 200.018 266.814 200.018C266.814 200.018 264.991 205.994 268.368 209.632C270.848 212.191 273.537 214.538 276.408 216.647L276.422 211.971Z" fill="#E0FE10"/>
<path d="M276.482 217.069C276.482 217.069 276.114 214.497 279.162 210.369C282.211 206.242 284.267 203.864 284.267 203.864C284.267 203.864 286.947 209.519 284.087 213.599C281.991 216.484 279.658 219.189 277.112 221.686L276.482 217.069Z" fill="#E0FE10"/>
<path d="M280.1 232.178C280.1 232.178 280.1 229.578 276.462 225.947C272.824 222.316 270.492 220.232 270.492 220.232C270.492 220.232 268.67 226.202 272.047 229.84C274.526 232.398 277.215 234.745 280.087 236.855L280.1 232.178Z" fill="#E0FE10"/>
<path d="M277.641 245.879C277.641 245.879 278.311 243.367 275.698 238.925C273.085 234.483 271.39 231.883 271.39 231.883C271.39 231.883 268.114 237.203 270.459 241.578C272.22 244.682 274.237 247.633 276.489 250.402L277.641 245.879Z" fill="#E0FE10"/>
<path d="M270.72 166.833C270.906 169.529 271.24 172.213 271.718 174.873C273.152 182.296 276.75 187.094 278.184 193.8C279.618 200.507 275.504 209.15 276.603 217.766C277.701 226.382 281.058 231.166 280.1 236.928C279.142 242.69 274.07 258.274 274.07 258.274" stroke="#263238" stroke-linecap="round" stroke-linejoin="round"/>
<path d="M271.283 173.647L267.363 170.645" stroke="#263238" stroke-linecap="round" stroke-linejoin="round"/>
<path d="M271.095 170.183L272.737 167.268" stroke="#263238" stroke-linecap="round" stroke-linejoin="round"/>
<path d="M277.936 193.519C277.936 193.519 274.653 191.06 271.283 188.594" stroke="#263238" stroke-linecap="round" stroke-linejoin="round"/>
<path d="M276.294 188.38C277.93 185.218 279.883 182.23 282.123 179.462" stroke="#263238" stroke-linecap="round" stroke-linejoin="round"/>
<path d="M276.294 215.662C274.42 212.213 272.055 209.053 269.273 206.282" stroke="#263238" stroke-linecap="round" stroke-linejoin="round"/>
<path d="M276.931 219.314C277.928 216.97 279.118 214.713 280.489 212.567C282.398 209.74 282.673 209.378 282.673 209.378" stroke="#263238" stroke-linecap="round" stroke-linejoin="round"/>
<path d="M280.1 236.955C279.27 234.89 278.283 232.892 277.145 230.979C276.011 229.205 274.731 227.529 273.32 225.967" stroke="#263238" stroke-linecap="round" stroke-linejoin="round"/>
<path d="M276.455 250.402C276.644 248.43 276.304 246.444 275.47 244.647C274.13 242.007 272.556 238.543 271.919 237.176" stroke="#263238" stroke-linecap="round" stroke-linejoin="round"/>
<path d="M294.84 202.202C294.84 202.202 295.128 200.574 293.239 197.894C291.349 195.214 290.117 193.666 290.117 193.666C290.117 193.666 288.328 197.211 290.05 199.864C291.328 201.737 292.763 203.498 294.338 205.13L294.84 202.202Z" fill="#E0FE10"/>
<path d="M289.761 211.83C289.761 211.83 290.043 210.195 288.153 207.522C286.264 204.849 285.031 203.294 285.031 203.294C285.031 203.294 283.242 206.838 284.964 209.485C286.244 211.359 287.678 213.123 289.252 214.758L289.761 211.83Z" fill="#E0FE10"/>
<path d="M294.203 204.949C294.203 204.949 294.659 203.361 297.52 201.767C300.381 200.172 302.17 199.308 302.17 199.308C302.17 199.308 302.243 203.288 299.543 204.922C297.577 206.054 295.52 207.02 293.393 207.81L294.203 204.949Z" fill="#E0FE10"/>
<path d="M288.14 216.272C288.14 216.272 288.756 214.738 291.771 213.458C294.786 212.178 296.656 211.502 296.656 211.502C296.656 211.502 296.307 215.461 293.453 216.801C291.377 217.723 289.228 218.469 287.028 219.033L288.14 216.272Z" fill="#E0FE10"/>
<path d="M286.612 229.498C286.612 229.498 286.894 227.87 289.567 225.987C292.24 224.104 293.935 223.052 293.935 223.052C293.935 223.052 294.425 226.992 291.925 228.908C290.091 230.244 288.148 231.423 286.117 232.432L286.612 229.498Z" fill="#E0FE10"/>
<path d="M286.023 232.694C286.023 232.694 286.532 231.119 285.045 228.205C283.557 225.29 282.552 223.568 282.552 223.568C282.552 223.568 280.274 226.831 281.607 229.692C282.606 231.73 283.773 233.68 285.098 235.521L286.023 232.694Z" fill="#E0FE10"/>
<path d="M281.44 245.833C281.44 245.833 281.252 244.191 278.693 242.154C276.134 240.118 274.499 238.972 274.499 238.972C274.499 238.972 273.782 242.885 276.18 244.935C277.936 246.374 279.81 247.662 281.782 248.787L281.44 245.833Z" fill="#E0FE10"/>
<path d="M282.11 241.779C282.11 241.779 282.391 240.151 285.071 238.262C287.751 236.372 289.433 235.327 289.433 235.327C289.433 235.327 289.929 239.273 287.423 241.183C285.587 242.519 283.642 243.698 281.607 244.707L282.11 241.779Z" fill="#E0FE10"/>
<path d="M282.164 250.63C282.164 250.63 282.03 248.982 284.14 246.482C286.251 243.983 287.617 242.536 287.617 242.536C287.617 242.536 289.091 246.228 287.148 248.714C285.711 250.471 284.128 252.104 282.418 253.598L282.164 250.63Z" fill="#E0FE10"/>
<path d="M295.108 201.82C294.698 203.497 294.197 205.149 293.607 206.771C291.899 211.267 289.125 213.887 287.497 217.934C285.869 221.98 287.497 227.856 285.889 233.136C284.281 238.416 281.634 241.062 281.614 244.774C281.594 248.486 283.055 258.79 283.055 258.79" stroke="#263238" stroke-linecap="round" stroke-linejoin="round"/>
<path d="M293.996 206.028L296.783 204.567" stroke="#263238" stroke-linecap="round" stroke-linejoin="round"/>
<path d="M294.485 203.877L293.775 201.867" stroke="#263238" stroke-linecap="round" stroke-linejoin="round"/>
<path d="M287.664 217.766C287.664 217.766 289.989 216.58 292.354 215.401" stroke="#263238" stroke-linecap="round" stroke-linejoin="round"/>
<path d="M289.252 214.731C288.574 212.57 287.676 210.485 286.572 208.507" stroke="#263238" stroke-linecap="round" stroke-linejoin="round"/>
<path d="M286.291 231.83C287.842 229.869 289.667 228.143 291.711 226.704" stroke="#263238" stroke-linecap="round" stroke-linejoin="round"/>
<path d="M285.493 234.047C285.123 232.47 284.623 230.926 283.999 229.431C283.108 227.454 282.974 227.193 282.974 227.193" stroke="#263238" stroke-linecap="round" stroke-linejoin="round"/>
<path d="M281.742 247.588C280.837 246.465 279.835 245.425 278.747 244.479C278.054 243.968 277.404 243.401 276.804 242.784" stroke="#263238" stroke-linecap="round" stroke-linejoin="round"/>
<path d="M281.614 244.774C282.359 243.569 283.194 242.422 284.113 241.344C285.019 240.355 286.005 239.443 287.061 238.617" stroke="#263238" stroke-linecap="round" stroke-linejoin="round"/>
<path d="M282.418 253.598C282.511 252.34 282.939 251.13 283.658 250.094C284.803 248.586 286.15 246.583 286.7 245.792" stroke="#263238" stroke-linecap="round" stroke-linejoin="round"/>
<path d="M271.718 283.52H286.9C287.217 283.52 287.52 283.394 287.744 283.171C287.967 282.947 288.093 282.644 288.093 282.327L291.858 257.189H266.76L270.526 282.327C270.526 282.644 270.651 282.947 270.875 283.171C271.099 283.394 271.402 283.52 271.718 283.52Z" fill="#263238" stroke="#263238" stroke-linecap="round" stroke-linejoin="round"/>
<path d="M41.4929 167.496C41.4929 167.496 41.4929 164.903 37.8548 161.265C34.2167 157.627 31.8851 155.55 31.8851 155.55C31.8851 155.55 30.0627 161.526 33.4395 165.158C35.9189 167.717 38.6083 170.063 41.4795 172.173L41.4929 167.496Z" fill="#E0FE10"/>
<path d="M36.22 183.724C36.22 183.724 36.22 181.124 32.5886 177.486C28.9572 173.848 26.6122 171.771 26.6122 171.771C26.6122 171.771 24.7965 177.747 28.1733 181.385C30.6562 183.937 33.3478 186.276 36.22 188.38V183.724Z" fill="#E0FE10"/>
<path d="M41.2651 171.925C41.2651 171.925 41.5398 169.339 45.5397 166.109C49.5396 162.88 52.0856 161.057 52.0856 161.057C52.0856 161.057 53.2648 167.188 49.5195 170.437C46.7786 172.719 43.8516 174.767 40.7693 176.561L41.2651 171.925Z" fill="#E0FE10"/>
<path d="M34.88 191.06C34.88 191.06 35.4294 188.521 39.7442 185.7C44.059 182.879 46.7859 181.365 46.7859 181.365C46.7859 181.365 47.3085 187.589 43.2483 190.437C40.2712 192.419 37.1336 194.149 33.8683 195.609L34.88 191.06Z" fill="#E0FE10"/>
<path d="M36.086 211.971C36.086 211.971 36.086 209.371 39.7241 205.733C43.3622 202.095 45.7005 200.018 45.7005 200.018C45.7005 200.018 47.5162 205.994 44.1394 209.632C41.66 212.191 38.9706 214.538 36.0994 216.647L36.086 211.971Z" fill="#E0FE10"/>
<path d="M36.0257 217.069C36.0257 217.069 36.3942 214.497 33.3457 210.369C30.2972 206.242 28.247 203.864 28.247 203.864C28.247 203.864 25.567 209.519 28.4212 213.599C30.5167 216.484 32.8497 219.189 35.3959 221.686L36.0257 217.069Z" fill="#E0FE10"/>
<path d="M32.4412 232.178C32.4412 232.178 32.4412 229.578 36.0793 225.947C39.7174 222.316 42.0557 220.232 42.0557 220.232C42.0557 220.232 43.8714 226.202 40.4946 229.84C38.0152 232.398 35.3258 234.745 32.4546 236.855L32.4412 232.178Z" fill="#E0FE10"/>
<path d="M34.88 245.879C34.88 245.879 34.21 243.367 36.8163 238.925C39.4226 234.483 41.1512 231.883 41.1512 231.883C41.1512 231.883 44.4208 237.203 42.0758 241.578C40.3171 244.683 38.2999 247.635 36.0458 250.402L34.88 245.879Z" fill="#E0FE10"/>
<path d="M41.8212 166.833C41.637 169.529 41.306 172.213 40.8296 174.873C39.3891 182.296 35.7979 187.094 34.3574 193.8C32.9169 200.507 37.0374 209.15 35.9453 217.766C34.8532 226.382 31.4831 231.166 32.4412 236.928C33.3993 242.69 38.431 258.248 38.431 258.248" stroke="#263238" stroke-linecap="round" stroke-linejoin="round"/>
<path d="M41.2316 173.647L45.1511 170.645" stroke="#263238" stroke-linecap="round" stroke-linejoin="round"/>
<path d="M41.4125 170.183L39.771 167.268" stroke="#263238" stroke-linecap="round" stroke-linejoin="round"/>
<path d="M34.5785 193.519C34.5785 193.519 37.8548 191.06 41.2316 188.594" stroke="#263238" stroke-linecap="round" stroke-linejoin="round"/>
<path d="M36.22 188.38C34.5844 185.218 32.6313 182.23 30.391 179.462" stroke="#263238" stroke-linecap="round" stroke-linejoin="round"/>
<path d="M36.22 215.662C38.0907 212.212 40.4538 209.052 43.2349 206.282" stroke="#263238" stroke-linecap="round" stroke-linejoin="round"/>
<path d="M35.55 219.314C34.554 216.971 33.3663 214.714 31.999 212.567C30.0828 209.74 29.8081 209.378 29.8081 209.378" stroke="#263238" stroke-linecap="round" stroke-linejoin="round"/>
<path d="M32.4412 236.955C33.2709 234.89 34.2587 232.892 35.3959 230.979C36.5305 229.205 37.8101 227.529 39.2216 225.967" stroke="#263238" stroke-linecap="round" stroke-linejoin="round"/>
<path d="M36.0525 250.402C35.8664 248.435 36.2063 246.453 37.0374 244.66C38.3774 242.02 39.9519 238.556 40.5884 237.19" stroke="#263238" stroke-linecap="round" stroke-linejoin="round"/>
<path d="M17.6811 202.202C17.6811 202.202 17.3997 200.574 19.2824 197.894C21.1651 195.214 22.4113 193.666 22.4113 193.666C22.4113 193.666 24.2002 197.211 22.4783 199.864C21.1995 201.737 19.765 203.498 18.1903 205.13L17.6811 202.202Z" fill="#E0FE10"/>
<path d="M22.753 211.83C22.753 211.83 22.4716 210.195 24.3543 207.522C26.237 204.849 27.51 203.267 27.51 203.267C27.51 203.267 29.2989 206.812 27.5703 209.458C26.2906 211.332 24.8563 213.096 23.2823 214.731L22.753 211.83Z" fill="#E0FE10"/>
<path d="M18.3042 204.949C18.3042 204.949 17.8486 203.361 14.9944 201.767C12.1402 200.172 10.3379 199.308 10.3379 199.308C10.3379 199.308 10.2642 203.288 12.971 204.922C14.9374 206.054 16.9947 207.02 19.1216 207.81L18.3042 204.949Z" fill="#E0FE10"/>
<path d="M24.3811 216.272C24.3811 216.272 23.7647 214.738 20.7564 213.458C17.7481 212.178 15.8721 211.502 15.8721 211.502C15.8721 211.502 16.2138 215.461 19.0747 216.801C21.1502 217.724 23.2995 218.47 25.5 219.033L24.3811 216.272Z" fill="#E0FE10"/>
<path d="M25.8953 229.498C25.8953 229.498 25.6139 227.87 22.9406 225.987C20.2673 224.104 18.5722 223.052 18.5722 223.052C18.5722 223.052 18.0831 226.992 20.5822 228.908C22.4163 230.244 24.3595 231.423 26.3911 232.432L25.8953 229.498Z" fill="#E0FE10"/>
<path d="M26.4916 232.694C26.4916 232.694 25.9757 231.119 27.4631 228.205C28.9505 225.29 29.9555 223.568 29.9555 223.568C29.9555 223.568 32.2335 226.831 30.9069 229.692C29.905 231.729 28.7351 233.679 27.4095 235.521L26.4916 232.694Z" fill="#E0FE10"/>
<path d="M31.0543 245.833C31.0543 245.833 31.2419 244.191 33.808 242.154C36.3741 240.118 37.9955 238.972 37.9955 238.972C37.9955 238.972 38.7124 242.885 36.3138 244.935C34.558 246.374 32.6844 247.662 30.7126 248.787L31.0543 245.833Z" fill="#E0FE10"/>
<path d="M30.3776 241.779C30.3776 241.779 30.0962 240.151 27.4229 238.262C24.7496 236.372 23.0545 235.327 23.0545 235.327C23.0545 235.327 22.5654 239.273 25.0645 241.183C26.8943 242.517 28.833 243.696 30.86 244.707L30.3776 241.779Z" fill="#E0FE10"/>
<path d="M30.3441 250.63C30.3441 250.63 30.4848 248.982 28.3743 246.482C26.2638 243.983 24.8903 242.536 24.8903 242.536C24.8903 242.536 23.4163 246.228 25.3593 248.714C26.7972 250.471 28.3794 252.104 30.0895 253.598L30.3441 250.63Z" fill="#E0FE10"/>
<path d="M17.3997 201.82C17.8099 203.497 18.3109 205.149 18.9005 206.771C20.609 211.267 23.3828 213.887 25.0109 217.934C26.639 221.98 25.0109 227.856 26.6189 233.136C28.2269 238.416 30.8734 241.062 30.8935 244.774C30.9136 248.486 29.453 258.79 29.453 258.79" stroke="#263238" stroke-linecap="round" stroke-linejoin="round"/>
<path d="M18.5119 206.028L15.7314 204.567" stroke="#263238" stroke-linecap="round" stroke-linejoin="round"/>
<path d="M18.0228 203.877L18.733 201.867" stroke="#263238" stroke-linecap="round" stroke-linejoin="round"/>
<path d="M24.83 217.766C24.83 217.766 22.5051 216.58 20.14 215.401" stroke="#263238" stroke-linecap="round" stroke-linejoin="round"/>
<path d="M23.2555 214.731C23.9339 212.57 24.8319 210.485 25.9355 208.507" stroke="#263238" stroke-linecap="round" stroke-linejoin="round"/>
<path d="M26.2169 231.83C24.6701 229.87 22.8491 228.144 20.81 226.704" stroke="#263238" stroke-linecap="round" stroke-linejoin="round"/>
<path d="M27.0142 234.047C27.3845 232.47 27.8843 230.926 28.5083 229.431C29.4061 227.454 29.5334 227.193 29.5334 227.193" stroke="#263238" stroke-linecap="round" stroke-linejoin="round"/>
<path d="M30.7729 247.588C31.6746 246.465 32.6747 245.425 33.7611 244.479C34.4551 243.967 35.1071 243.4 35.7108 242.784" stroke="#263238" stroke-linecap="round" stroke-linejoin="round"/>
<path d="M30.8935 244.774C30.1488 243.569 29.3134 242.422 28.3944 241.343C27.491 240.359 26.5072 239.451 25.4531 238.63" stroke="#263238" stroke-linecap="round" stroke-linejoin="round"/>
<path d="M30.0895 253.598C29.9966 252.34 29.5687 251.13 28.85 250.094C27.7043 248.586 26.3576 246.583 25.8082 245.792" stroke="#263238" stroke-linecap="round" stroke-linejoin="round"/>
<path d="M40.7894 283.52H25.6072C25.2909 283.52 24.9876 283.394 24.7639 283.171C24.5402 282.947 24.4146 282.644 24.4146 282.327L20.6492 257.189H45.7474L41.982 282.327C41.982 282.644 41.8564 282.947 41.6327 283.171C41.409 283.394 41.1057 283.52 40.7894 283.52Z" fill="#263238" stroke="#263238" stroke-linecap="round" stroke-linejoin="round"/>
<g opacity="0.3">
<path d="M308.608 217.86H216.497V51.03C216.497 39.1244 221.226 27.7065 229.645 19.288C238.063 10.8695 249.481 6.14 261.387 6.14C273.906 6.14 285.911 11.113 294.763 19.965C303.615 28.817 308.588 40.8229 308.588 53.3415V217.86H308.608Z" stroke="black" stroke-linecap="round" stroke-linejoin="round"/>
<path d="M298.19 217.364V53.71C298.19 49.0274 297.268 44.3907 295.476 40.0645C293.684 35.7384 291.057 31.8075 287.746 28.4964C284.435 25.1853 280.504 22.5588 276.178 20.7669C271.852 18.9749 267.215 18.0526 262.533 18.0526C253.079 18.0579 244.015 21.817 237.332 28.5035C230.649 35.19 226.895 44.2566 226.895 53.71V217.391" stroke="black" stroke-linecap="round" stroke-linejoin="round"/>
<path d="M262.553 6.14001V217.612" stroke="black" stroke-linecap="round" stroke-linejoin="round"/>
<path d="M308.113 46.876H217.113" stroke="black" stroke-linecap="round" stroke-linejoin="round"/>
<path d="M308.113 75.5989H217.113" stroke="black" stroke-linecap="round" stroke-linejoin="round"/>
<path d="M308.113 104.322H217.113" stroke="black" stroke-linecap="round" stroke-linejoin="round"/>
<path d="M308.113 133.051H217.113" stroke="black" stroke-linecap="round" stroke-linejoin="round"/>
<path d="M308.113 161.774H217.113" stroke="black" stroke-linecap="round" stroke-linejoin="round"/>
<path d="M308.113 190.497H217.113" stroke="black" stroke-linecap="round" stroke-linejoin="round"/>
<path d="M295.945 20.5115L287.698 28.0289" stroke="black" stroke-linecap="round" stroke-linejoin="round"/>
<path d="M229.502 20.5115L237.756 28.0289" stroke="black" stroke-linecap="round" stroke-linejoin="round"/>
</g>
<path d="M162.729 39.037H153.946C153.504 39.0364 153.07 38.9244 152.684 38.7112C152.297 38.498 151.971 38.1906 151.735 37.8176C149.818 34.7892 145.102 26.9301 145.765 23.6337C146.669 19.2117 158.91 11.2454 158.91 11.2454C158.91 11.2454 170.126 19.0911 170.93 23.2585C171.6 26.6085 166.863 34.7021 164.954 37.7975C164.719 38.1762 164.392 38.4888 164.002 38.7057C163.613 38.9226 163.175 39.0366 162.729 39.037Z" stroke="#999999" stroke-linecap="round" stroke-linejoin="round"/>
<path d="M159.728 37.5898L152.13 41.985C151.747 42.2051 151.315 42.3248 150.873 42.333C150.431 42.3412 149.995 42.2376 149.604 42.0319C146.428 40.377 138.415 35.9215 137.343 32.739C135.909 28.4577 142.529 15.4329 142.529 15.4329C142.529 15.4329 156.17 16.6188 158.951 19.8348C161.195 22.4277 161.148 31.7742 161.041 35.4123C161.027 35.8573 160.899 36.2913 160.669 36.6725C160.439 37.0538 160.115 37.3697 159.728 37.5898Z" stroke="#999999" stroke-linecap="round" stroke-linejoin="round"/>
<path d="M156.405 37.8444L152.016 45.4489C151.799 45.8365 151.487 46.1627 151.11 46.397C150.733 46.6314 150.302 46.7662 149.859 46.7889C146.274 46.943 137.129 47.0971 134.589 44.866C131.239 41.8778 130.429 27.2852 130.429 27.2852C130.429 27.2852 142.83 21.4964 146.844 22.89C150.086 24.0156 154.723 32.136 156.445 35.3386C156.65 35.7258 156.754 36.1586 156.747 36.5967C156.74 37.0348 156.622 37.464 156.405 37.8444Z" stroke="#999999" stroke-linecap="round" stroke-linejoin="round"/>
<path d="M153.658 39.7271V48.5041C153.657 48.9455 153.545 49.3797 153.332 49.7662C153.119 50.1527 152.811 50.4791 152.438 50.7151C149.41 52.638 141.551 57.3548 138.254 56.6848C133.832 55.787 125.866 43.5394 125.866 43.5394C125.866 43.5394 133.712 32.3236 137.879 31.5263C141.229 30.8563 149.323 35.5932 152.418 37.5027C152.797 37.7374 153.109 38.0649 153.326 38.4542C153.543 38.8434 153.657 39.2815 153.658 39.7271Z" stroke="#999999" stroke-linecap="round" stroke-linejoin="round"/>
<path d="M152.21 42.7287L156.606 50.36C156.825 50.7419 156.945 51.1731 156.953 51.6135C156.961 52.054 156.858 52.4893 156.652 52.8792C154.998 56.0617 150.542 64.0749 147.36 65.1402C143.078 66.574 130.053 59.9544 130.053 59.9544C130.053 59.9544 131.239 46.3199 134.449 43.5394C137.048 41.2882 146.395 41.3418 150.033 41.449C150.475 41.4596 150.906 41.5827 151.288 41.8066C151.669 42.0305 151.986 42.3479 152.21 42.7287Z" stroke="#999999" stroke-linecap="round" stroke-linejoin="round"/>
<path d="M152.465 46.0518L160.069 50.4403C160.457 50.6568 160.784 50.9684 161.018 51.3458C161.253 51.7232 161.387 52.154 161.409 52.5977C161.564 56.1822 161.711 65.3277 159.487 67.867C156.498 71.2505 141.906 72.0277 141.906 72.0277C141.906 72.0277 136.117 59.626 137.511 55.606C138.629 52.3632 146.757 47.7335 149.959 46.0116C150.346 45.8066 150.779 45.7028 151.217 45.7098C151.655 45.7168 152.085 45.8345 152.465 46.0518Z" stroke="#999999" stroke-linecap="round" stroke-linejoin="round"/>
<path d="M154.348 48.7988H163.125C163.566 48.7993 164 48.9114 164.387 49.1246C164.773 49.3378 165.1 49.6452 165.336 50.0182C167.259 53.0399 171.975 60.9057 171.305 64.1954C170.408 68.6241 158.16 76.5904 158.16 76.5904C158.16 76.5904 146.944 68.7447 146.147 64.5706C145.477 61.2206 150.214 53.127 152.123 50.0383C152.358 49.6596 152.686 49.347 153.075 49.1301C153.464 48.9132 153.902 48.7992 154.348 48.7988Z" stroke="#999999" stroke-linecap="round" stroke-linejoin="round"/>
<path d="M157.349 50.2394L164.954 45.8509C165.335 45.6303 165.766 45.5097 166.207 45.5003C166.647 45.491 167.083 45.5931 167.473 45.7973C170.655 47.4589 178.669 51.9077 179.734 55.0969C181.168 59.3782 174.548 72.403 174.548 72.403C174.548 72.403 160.914 71.2104 158.133 68.0011C155.882 65.4082 155.936 56.0617 156.043 52.4236C156.057 51.9785 156.184 51.5443 156.413 51.1621C156.642 50.78 156.964 50.4624 157.349 50.2394Z" stroke="#999999" stroke-linecap="round" stroke-linejoin="round"/>
<path d="M160.666 49.9914L165.061 42.3802C165.282 41.9993 165.596 41.6804 165.973 41.4532C166.35 41.226 166.778 41.0977 167.218 41.0804C170.803 40.9263 179.948 40.7722 182.488 42.9966C185.871 45.9915 186.648 60.5774 186.648 60.5774C186.648 60.5774 174.24 66.3662 170.22 64.9793C166.977 63.8537 162.347 55.7333 160.619 52.5307C160.41 52.1384 160.305 51.6993 160.313 51.255C160.321 50.8106 160.443 50.3757 160.666 49.9914Z" stroke="#999999" stroke-linecap="round" stroke-linejoin="round"/>
<path d="M163.419 48.1087V39.325C163.421 38.8846 163.533 38.4516 163.746 38.0663C163.959 37.6809 164.266 37.3556 164.639 37.1207C167.661 35.1978 175.526 30.481 178.816 31.151C183.245 32.0488 191.211 44.2897 191.211 44.2897C191.211 44.2897 183.365 55.5055 179.191 56.3095C175.841 56.9795 167.748 52.2426 164.652 50.3331C164.275 50.0971 163.964 49.7692 163.749 49.3801C163.533 48.991 163.42 48.5536 163.419 48.1087Z" stroke="#999999" stroke-linecap="round" stroke-linejoin="round"/>
<path d="M164.86 45.1071L160.471 37.5026C160.251 37.12 160.13 36.688 160.121 36.2465C160.112 35.805 160.214 35.3683 160.418 34.9767C162.079 31.8009 166.528 23.7877 169.717 22.7157C173.999 21.2819 187.024 27.9082 187.024 27.9082C187.024 27.9082 185.831 41.5427 182.622 44.3299C180.029 46.5744 170.676 46.5275 167.044 46.4203C166.598 46.4054 166.164 46.277 165.782 46.0472C165.399 45.8174 165.082 45.4938 164.86 45.1071Z" stroke="#999999" stroke-linecap="round" stroke-linejoin="round"/>
<path d="M164.612 41.784L157.001 37.3955C156.62 37.1741 156.302 36.8603 156.075 36.4833C155.848 36.1062 155.719 35.678 155.701 35.2381C155.547 31.6536 155.393 22.5081 157.617 19.9688C160.612 16.6188 175.198 15.8081 175.198 15.8081C175.198 15.8081 180.987 28.2098 179.6 32.2231C178.474 35.4659 170.354 40.1023 167.151 41.8242C166.76 42.0358 166.321 42.1433 165.876 42.1363C165.432 42.1292 164.996 42.0079 164.612 41.784Z" stroke="#999999" stroke-linecap="round" stroke-linejoin="round"/>
<path d="M158.535 84.7846C181.107 84.7846 199.405 66.4864 199.405 43.9146C199.405 21.3427 181.107 3.04456 158.535 3.04456C135.963 3.04456 117.665 21.3427 117.665 43.9146C117.665 66.4864 135.963 84.7846 158.535 84.7846Z" stroke="#999999" stroke-linecap="round" stroke-linejoin="round"/>
<path d="M158.91 11.2454V3.04456" stroke="#999999" stroke-linecap="round" stroke-linejoin="round"/>
<path d="M158.16 76.5905V84.7846" stroke="#999999" stroke-linecap="round" stroke-linejoin="round"/>
<path d="M191.211 44.2898H199.405" stroke="#999999" stroke-linecap="round" stroke-linejoin="round"/>
<path d="M125.866 43.5393H117.665" stroke="#999999" stroke-linecap="round" stroke-linejoin="round"/>
<path d="M138.274 23.7274L129.96 15.4127" stroke="#999999" stroke-linecap="round" stroke-linejoin="round"/>
<path d="M178.334 64.2893L187.399 73.3611" stroke="#999999" stroke-linecap="round" stroke-linejoin="round"/>
<path d="M178.582 24.7325L187.653 15.6674" stroke="#999999" stroke-linecap="round" stroke-linejoin="round"/>
<path d="M138.274 63.7867L129.45 72.6039" stroke="#999999" stroke-linecap="round" stroke-linejoin="round"/>
<g opacity="0.3">
<path d="M99.8767 217.86H7.76511L7.76511 51.03C7.76511 39.1244 12.4946 27.7065 20.9131 19.288C29.3316 10.8695 40.7495 6.14 52.6551 6.14C65.1737 6.14 77.1796 11.113 86.0316 19.965C94.8836 28.817 99.8566 40.8229 99.8566 53.3415L99.8566 217.86H99.8767Z" stroke="black" stroke-linecap="round" stroke-linejoin="round"/>
<path d="M89.4716 217.364V53.71C89.4751 49.0251 88.5554 44.3855 86.765 40.0562C84.9747 35.727 82.3487 31.793 79.0373 28.4791C75.7258 25.1651 71.7938 22.5362 67.4659 20.7426C63.138 18.949 58.4991 18.0258 53.8142 18.0258C49.1271 18.0222 44.4853 18.9428 40.1543 20.7349C35.8233 22.5269 31.8881 25.1553 28.5738 28.4696C25.2595 31.7838 22.6312 35.719 20.8391 40.05C19.0471 44.381 18.1265 49.0229 18.13 53.71V217.391" stroke="black" stroke-linecap="round" stroke-linejoin="round"/>
<path d="M53.8142 6.14001V217.612" stroke="black" stroke-linecap="round" stroke-linejoin="round"/>
<path d="M99.3809 46.876H8.3748" stroke="black" stroke-linecap="round" stroke-linejoin="round"/>
<path d="M99.3809 75.5989H8.3748" stroke="black" stroke-linecap="round" stroke-linejoin="round"/>
<path d="M99.3809 104.322H8.3748" stroke="black" stroke-linecap="round" stroke-linejoin="round"/>
<path d="M99.3809 133.051H8.3748" stroke="black" stroke-linecap="round" stroke-linejoin="round"/>
<path d="M99.3809 161.774H8.3748" stroke="black" stroke-linecap="round" stroke-linejoin="round"/>
<path d="M99.3809 190.497H8.3748" stroke="black" stroke-linecap="round" stroke-linejoin="round"/>
<path d="M87.2137 20.5115L78.9593 28.0289" stroke="black" stroke-linecap="round" stroke-linejoin="round"/>
<path d="M20.7698 20.5115L29.0175 28.0289" stroke="black" stroke-linecap="round" stroke-linejoin="round"/>
</g>
<path d="M196.457 117.36C196.457 117.36 200.618 119.765 206.098 125.681C211.579 131.597 214.641 149.56 208.504 153.064C202.367 156.568 198.648 149.781 198.648 155.034C198.648 160.287 204.564 163.362 197.978 168.836C191.392 174.31 177.382 173.874 175.634 164.24C173.885 154.605 181.764 148.682 183.077 142.331C184.39 135.979 182.642 123.49 183.955 118.673C185.268 113.856 189.228 113.608 196.457 117.36Z" fill="#263238" stroke="#263238" stroke-linecap="round" stroke-linejoin="round"/>
<path d="M97.6858 58.0784C97.6858 58.0784 96.0242 56.7384 95.1331 56.7384C94.242 56.7384 93.8534 57.864 92.5737 58.8623C91.294 59.8606 89.3778 60.3564 90.5235 60.8723C91.1415 61.1095 91.8117 61.1767 92.4644 61.0672C93.1172 60.9576 93.7287 60.6751 94.2353 60.2492C95.2604 59.3715 95.2604 59.874 96.0242 59.9946L96.7947 60.1219L97.6858 58.0784Z" stroke="#263238" stroke-linecap="round" stroke-linejoin="round"/>
<path d="M95.6423 60.946C95.6423 60.946 92.1918 60.3229 91.9305 61.3212C91.792 61.7193 91.7822 62.1509 91.9025 62.5548C92.0227 62.9588 92.2669 63.3148 92.6005 63.5724C93.1467 63.8702 93.7828 63.9584 94.3894 63.8203L95.6423 60.946Z" stroke="#263238" stroke-linecap="round" stroke-linejoin="round"/>
<path d="M91.6759 62.0715C91.6759 62.0715 89.7597 62.8219 90.2689 64.1954C90.7781 65.5689 92.9489 65.8168 92.9489 65.8168L93.7194 64.1954C92.8066 63.754 92.0818 63.0007 91.6759 62.0715Z" stroke="#263238" stroke-linecap="round" stroke-linejoin="round"/>
<path d="M90.3962 64.698C90.1122 65.1878 90.0214 65.7661 90.1416 66.3194C90.3962 67.0698 91.9305 67.6929 91.9305 67.6929L92.9556 65.8169C92.9556 65.8169 90.5235 65.1938 90.3962 64.698Z" stroke="#263238" stroke-linecap="round" stroke-linejoin="round"/>
<path d="M90.1416 66.3193C90.1416 66.3193 89.2505 66.8218 89.6324 67.5655C89.8103 67.8123 90.0383 68.0187 90.3016 68.1711C90.5649 68.3235 90.8574 68.4186 91.16 68.4499L91.9238 67.6995C91.9238 67.6995 90.2689 66.8218 90.1416 66.3193Z" stroke="#263238" stroke-linecap="round" stroke-linejoin="round"/>
<path d="M181.121 114.68C181.121 114.68 172.578 108.55 169.061 106.58C165.543 104.61 157.671 103.29 157.671 103.29L137.732 88.617C137.732 88.617 125.906 79.8534 119.99 76.557C114.074 73.2606 103.997 66.507 103.997 66.507L98.3156 58.4L91.964 69.3478L102.684 71.7598C102.684 71.7598 122.65 89.5081 127.668 94.111C132.687 98.7139 136.432 100.248 136.432 100.248C136.432 100.248 146.294 110.104 150.455 113.387C154.616 116.67 156.585 117.548 156.585 117.548C156.585 117.548 156.15 126.968 155.245 130.479C154.341 133.989 153.055 136.83 151.085 137.487C150.242 137.824 149.359 138.05 148.458 138.157C148.458 138.157 147.118 151.081 151.52 158.089C155.922 165.098 165.543 164.883 168.17 164.883C170.796 164.883 176.712 156.997 176.712 156.997C176.712 156.997 182.849 154.585 185.255 152.394C187.66 150.203 191.707 140.723 191.707 140.723C196.261 141.869 200.934 142.478 205.629 142.539C212.859 142.539 222.936 138.813 222.936 138.813C222.936 138.813 236.738 138.813 243.31 136.844C249.883 134.874 266.968 128.958 266.968 128.958C266.968 128.958 273.098 130.706 277.922 130.492C282.746 130.278 286.9 129.822 288.214 129.152C289.019 128.731 289.643 128.031 289.969 127.182C290.229 127.18 290.484 127.119 290.717 127.003C290.949 126.886 291.152 126.719 291.309 126.512C291.62 126.023 291.904 125.518 292.16 124.998C292.16 124.998 293.252 124.998 293.252 124.12C293.252 123.243 289.969 121.929 289.969 121.929C289.969 121.929 293.694 120.589 292.16 120.181C290.626 119.772 277.701 119.511 277.701 119.511C277.701 119.511 277.266 118.412 279.041 117.976C280.817 117.541 283.644 115.564 282.331 115.35L280.991 115.129C279.746 115.755 278.42 116.206 277.051 116.469C275.691 116.624 274.401 117.156 273.326 118.003C272.449 118.673 267.852 123.263 267.852 123.263C263.036 124.371 258.115 124.957 253.173 125.011C244.195 125.233 241.113 125.011 235.431 126.11C229.749 127.209 223.82 128.502 223.82 128.502L208.263 129.38C208.263 129.38 202.132 129.159 200.598 128.71C199.063 128.261 196.002 127.37 192.055 123.45C189.096 120.613 185.948 117.979 182.635 115.564L181.121 114.68Z" fill="white" stroke="#263238" stroke-linecap="round" stroke-linejoin="round"/>
<path d="M289.996 121.929L284.08 122.15" stroke="#263238" stroke-linecap="round" stroke-linejoin="round"/>
<path d="M292.187 124.998L283.865 124.562" stroke="#263238" stroke-linecap="round" stroke-linejoin="round"/>
<path d="M289.996 127.189L284.736 127.41" stroke="#263238" stroke-linecap="round" stroke-linejoin="round"/>
<path d="M284.08 121.273L284.736 128.288" stroke="#263238" stroke-linecap="round" stroke-linejoin="round"/>
<path d="M277.949 121.058C277.904 121.876 277.755 122.684 277.507 123.464C277.072 124.998 272.254 125.219 272.254 125.219" stroke="#263238" stroke-linecap="round" stroke-linejoin="round"/>
<path d="M222.962 138.8L235.23 135.517" stroke="#263238" stroke-linecap="round" stroke-linejoin="round"/>
<path d="M191.734 140.71L193.61 136.83" stroke="#263238" stroke-linecap="round" stroke-linejoin="round"/>
<path d="M156.585 117.548L160.746 120.181" stroke="#263238" stroke-linecap="round" stroke-linejoin="round"/>
<path d="M160.311 115.799L161.188 121.715" stroke="#263238" stroke-linecap="round" stroke-linejoin="round"/>
<path d="M184.846 129.38C184.846 129.38 186.186 126.097 187.915 122.372C189.643 118.646 192.075 118.868 192.953 119.303C193.831 119.739 197.114 120.837 197.991 119.973C198.869 119.109 203.244 112.087 203.244 112.087C203.244 112.087 205.435 112.087 206.098 110.995L204.343 106.392C204.343 106.392 205.683 105.052 205.683 103.766V100.262C205.683 100.262 206.561 95.4376 206.561 94.3455C206.561 93.2534 202.179 91.9335 197.797 93.9033C193.415 95.8731 181.148 100.918 179.834 103.953C178.521 106.988 178.079 113.816 178.079 113.816C178.079 113.816 177.409 116.663 176.109 120.824" fill="white"/>
<path d="M184.846 129.38C184.846 129.38 186.186 126.097 187.915 122.372C189.643 118.646 192.075 118.868 192.953 119.303C193.831 119.739 197.114 120.837 197.991 119.973C198.869 119.109 203.244 112.087 203.244 112.087C203.244 112.087 205.435 112.087 206.098 110.995L204.343 106.392C204.343 106.392 205.683 105.052 205.683 103.766V100.262C205.683 100.262 206.561 95.4376 206.561 94.3455C206.561 93.2534 202.179 91.9335 197.797 93.9033C193.415 95.8731 181.148 100.918 179.834 103.953C178.521 106.988 178.079 113.816 178.079 113.816C178.079 113.816 177.409 116.663 176.109 120.824" stroke="#263238" stroke-linecap="round" stroke-linejoin="round"/>
<path d="M188.129 105.97C188.129 105.97 187.459 100.489 184.625 101.803C181.791 103.116 182.22 107.283 183.091 108.596C183.962 109.91 185.503 109.688 182.655 111.444C179.808 113.199 177.181 114.291 175.205 111.444C173.228 108.596 169.731 102.68 173.865 95.672C177.999 88.6638 187.231 82.942 195.117 83.612C203.003 84.282 202.782 87.3305 202.782 87.3305C202.782 87.3305 208.256 83.8264 211.981 89.7425C215.706 95.6586 214.172 98.9416 212.651 98.9416C211.13 98.9416 210.46 97.1929 210.46 97.1929C210.46 97.1929 209.368 99.3838 208.269 99.8193C207.423 100.106 206.536 100.255 205.643 100.262L204.973 95.8797C204.973 95.8797 198.4 94.7809 197.522 97.4073C196.645 100.034 196.182 103.323 193.583 104.637C191.876 105.452 190.019 105.906 188.129 105.97Z" fill="#263238" stroke="#263238" stroke-linecap="round" stroke-linejoin="round"/>
<path d="M202.702 106.158C202.702 106.888 202.36 107.498 201.931 107.498C201.502 107.498 201.167 106.915 201.167 106.158C201.167 105.401 201.509 104.818 201.931 104.818C202.353 104.818 202.702 105.434 202.702 106.158Z" fill="#263238"/>
<path d="M200.182 103.531C200.182 103.531 201.717 101.34 203.908 103.531" stroke="#263238" stroke-linecap="round" stroke-linejoin="round"/>
<path d="M197.335 112.295C197.551 112.875 197.94 113.375 198.449 113.727C198.958 114.079 199.563 114.267 200.182 114.265" stroke="#263238" stroke-linecap="round" stroke-linejoin="round"/>
<path d="M192.953 119.303L187.472 114.265L188.35 121.273C188.35 121.273 189.65 117.769 192.953 119.303Z" fill="#263238" stroke="#263238" stroke-linecap="round" stroke-linejoin="round"/>
<path d="M148.485 138.13L146.509 137.909C143.321 134.801 139.405 132.541 135.119 131.336C128.332 129.587 118.034 132.006 118.034 132.006C118.034 132.006 106.644 125.655 99.1933 120.837C91.7429 116.02 83.6426 111.638 83.6426 111.638C83.6426 111.638 91.7429 94.9887 93.0628 86.2251C94.3827 77.4615 96.1247 71.8 97.2235 69.79C98.3223 67.78 99.4144 65.6293 99.4144 65.6293C99.4144 65.6293 103.796 67.378 105.324 65.8437C106.851 64.3094 106.201 58.8355 106.423 57.0801C106.644 55.3247 107.093 50.5141 107.093 48.5376V45.67C107.093 45.67 108.433 43.2647 106.657 43.7002C104.882 44.1357 103.81 45.67 102.932 46.9832C102.054 48.2964 98.1146 57.0332 95.2604 61.6629C92.4062 66.2926 83.8704 80.0678 78.3965 89.7024C72.9226 99.337 69.184 111.638 67.2075 116.02C65.231 120.402 66.9931 124.562 67.8775 125.219C68.7619 125.876 79.2675 136.83 88.2522 142.304C97.2369 147.778 102.275 151.724 105.123 152.823C107.97 153.922 116.077 159.831 116.948 162.873C117.819 165.915 113.444 182.149 116.734 192.882C120.024 203.616 120.895 211.066 120.673 215.227C120.452 219.388 117.39 224.426 117.39 232.312C117.39 240.198 121.33 254.422 121.772 256.847C122.214 259.273 123.963 268.237 123.963 271.306C123.963 274.374 123.085 281.356 123.521 282.26C123.956 283.165 129.437 283.795 131.192 283.352C132.753 282.85 134.372 282.555 136.01 282.475C137.758 282.475 142.14 283.145 144.773 283.145C147.406 283.145 149.812 283.366 150.026 282.475C150.241 281.584 147.835 280.505 146.964 280.284C146.093 280.063 140.606 278.093 137.98 275.031C135.353 271.969 132.506 269.115 131.849 267.36C131.192 265.604 132.519 244.144 133.383 236.915C134.248 229.685 135.353 221.578 135.789 219.609C136.224 217.639 138.201 213.471 139.293 205.364C140.385 197.257 142.14 175.134 142.361 173.385C142.708 171.538 143.155 169.71 143.701 167.911C143.701 167.911 156.626 165.499 159.694 165.499C162.763 165.499 167.145 165.278 169.336 164.159C171.526 163.041 171.962 159.557 169.55 156.93C167.138 154.304 159.5 150.793 156.82 146.21C155.567 143.888 154.1 141.687 152.438 139.637L148.485 138.13Z" fill="white" stroke="#263238" stroke-linecap="round" stroke-linejoin="round"/>
<path d="M147.246 138.003L146.509 137.922C143.321 134.814 139.405 132.554 135.119 131.35C128.332 129.601 118.034 132.02 118.034 132.02C118.034 132.02 106.644 125.668 99.1933 120.851C91.7429 116.033 83.6426 111.652 83.6426 111.652C83.6426 111.652 91.7429 95.0021 93.0628 86.2385C93.3576 84.2285 93.6792 82.4463 94.0075 80.7847C91.6304 78.9667 88.9921 77.5188 86.1819 76.49C83.5019 80.979 80.6611 85.7092 78.3831 89.7225C72.9025 99.3638 69.184 111.631 67.2075 116.013C65.231 120.395 66.9931 124.556 67.8775 125.212C68.7619 125.869 79.2675 136.823 88.2522 142.297C97.2369 147.771 102.275 151.718 105.123 152.816C107.97 153.915 116.077 159.825 116.948 162.866C117.819 165.908 113.444 182.142 116.734 192.876C120.024 203.609 120.895 211.059 120.674 215.22C120.452 219.381 117.39 224.419 117.39 232.305C117.39 240.191 121.33 254.415 121.772 256.841C121.833 257.189 121.926 257.678 122.034 258.261C126.516 259.172 129.678 258.65 131.863 257.691C132.191 250.476 132.861 241.189 133.383 236.921C134.254 229.692 135.353 221.585 135.789 219.615C136.224 217.646 138.201 213.478 139.293 205.371C140.385 197.264 142.14 175.141 142.361 173.392C142.708 171.544 143.155 169.717 143.701 167.918C143.701 167.918 145.504 167.576 147.922 167.161C141.899 156.039 145.49 142.967 147.246 138.003Z" fill="#263238" stroke="#263238" stroke-linecap="round" stroke-linejoin="round"/>
<path d="M188.431 147.309C191.734 139.122 190.32 137.313 190.32 134.418C190.32 130.036 190.541 122.15 190.541 122.15L190.286 121.762L189.616 121.192C189.428 124.348 188.847 127.467 187.888 130.479C186.354 134.854 182.628 137.487 176.712 133.326C170.796 129.165 174.964 122.372 174.964 122.372C174.964 122.372 177.282 115.002 177.201 111.953L174.836 110.325C174.89 113.105 174.635 118.586 172.116 122.385C168.612 127.638 164.666 130.927 160.505 130.271C158.799 130.009 157.138 129.506 155.574 128.777C155.473 129.447 155.366 130.016 155.245 130.492C154.368 133.996 153.055 136.844 151.085 137.5C150.242 137.838 149.359 138.063 148.458 138.17C148.458 138.17 147.118 151.094 151.52 158.103C155.922 165.111 165.543 164.896 168.17 164.896C170.796 164.896 176.712 157.011 176.712 157.011C176.712 157.011 182.849 154.599 185.255 152.408C186.662 151.128 187.754 148.95 188.431 147.309Z" fill="#E0FE10" stroke="#263238" stroke-linecap="round" stroke-linejoin="round"/>
<path d="M157.684 139.021C157.684 139.021 157.899 145.152 164.036 146.465" stroke="#263238" stroke-linecap="round" stroke-linejoin="round"/>
<path d="M247.27 283.52H317.62" stroke="#263238" stroke-linecap="round" stroke-linejoin="round"/>
<path d="M3.39 283.52H239.9" stroke="#263238" stroke-linecap="round" stroke-linejoin="round"/>
</svg>
