<svg width="80" height="76" viewBox="0 0 80 76" fill="none" xmlns="http://www.w3.org/2000/svg">
<g clip-path="url(#clip0_43_387)">
<path d="M75.43 68.0584C74.3475 66.7928 71.8164 61.7316 71.8164 61.7316C71.8164 61.7316 72.2345 61.1928 71.8164 59.3798C71.2727 57.0306 68.9236 57.2102 68.3823 56.6691C67.8387 56.1266 63.1403 47.5403 62.7787 46.5453C62.4172 45.5502 58.4394 34.2544 58.4394 34.2544C57.1036 28.3787 54.6412 25.9386 51.3892 25.2153C48.1642 24.4995 46.4178 24.673 44.9712 23.4073C44.0684 22.6177 44.1005 22.0309 44.1005 19.6486C44.1005 19.6486 45.0747 18.7225 45.7855 17.442C46.5972 15.9772 46.9958 13.8628 46.9958 13.8628C47.81 13.5369 47.8198 13.1309 48.1716 11.837C48.6587 10.0463 48.6242 8.81875 47.323 8.81875C47.6306 2.97906 44.7008 0 40 0C35.3016 0 32.3717 2.97906 32.6792 8.81891C31.378 8.81891 31.3411 10.0464 31.8305 11.8372C32.1822 13.1311 32.192 13.537 33.0039 13.863C33.0039 13.863 33.4023 15.9773 34.2167 17.4422C34.9276 18.7225 35.9017 19.6488 35.9017 19.6488C35.9017 22.0311 35.9312 22.6178 35.0284 23.4075C33.5844 24.6731 31.8355 24.4997 28.613 25.2155C25.3586 25.9386 22.8986 28.3789 21.563 34.2545C21.563 34.2545 17.5853 45.5505 17.2237 46.5455C16.8622 47.5405 12.1611 56.1267 11.62 56.6692C11.0787 57.2103 8.72718 57.0308 8.18593 59.38C7.7678 61.193 8.18593 61.7317 8.18593 61.7317C8.18593 61.7317 5.65468 66.793 4.56984 68.0586C3.48515 69.323 5.47515 70.227 6.73952 68.5998C6.88702 68.82 7.3889 68.9786 7.95718 69.0548C3.54655 73.9378 6.06062 80.2992 12.8869 79.9892C18.483 79.7344 40 75.8306 40 75.8306C40 75.8306 61.5167 79.7344 67.1156 79.9891C73.9419 80.2991 76.4559 73.9377 72.0428 69.0547C72.6134 68.9784 73.1153 68.8198 73.2628 68.5997C74.5272 70.2269 76.5148 69.3228 75.43 68.0584ZM28.613 59.9764C28.613 59.9764 19.3514 62.7305 13.583 65.3255C14.7711 63.1139 16.1387 60.1031 16.1387 60.1031L21.9245 51.7887L26.5345 41.7547C26.5345 41.7547 27.9809 47.1787 28.4311 47.9917C28.8836 48.8047 28.613 59.9764 28.613 59.9764ZM51.3892 59.9764C51.3892 59.9764 51.1186 48.8048 51.5687 47.9917C52.0214 47.1787 53.4678 41.7547 53.4678 41.7547L58.0778 51.7887L63.8611 60.1031C63.8611 60.1031 65.2312 63.1141 66.4194 65.3255C60.6508 62.7303 51.3892 59.9764 51.3892 59.9764Z" fill="#E0FE10"/>
</g>
<defs>
<clipPath id="clip0_43_387">
<rect width="80" height="80" fill="white"/>
</clipPath>
</defs>
</svg>
