<svg width="512" height="512" viewBox="0 0 512 512" fill="none" xmlns="http://www.w3.org/2000/svg">
<rect width="512" height="512" rx="100" fill="#1B1B1B"/>
<path d="M338.988 246.099C354.958 252.985 374.204 252.052 389.395 243.552C402.251 236.366 411.446 224.768 415.282 210.883C419.126 196.997 417.149 182.495 409.729 170.046C399.822 153.443 381.372 143.126 361.558 143.126C351.868 143.126 342.279 145.624 333.829 150.345C318.494 158.926 308.21 174.247 306.351 191.352C304.961 204.183 298.973 213.827 289.903 217.785C278.966 222.562 267.115 228.385 255.148 234.777C243.172 228.377 231.321 222.562 220.409 217.785C211.339 213.819 205.343 204.183 203.961 191.352C202.085 174.255 191.818 158.918 176.484 150.353C168.033 145.624 158.453 143.135 148.755 143.135C128.94 143.135 110.482 153.451 100.583 170.054C85.2656 195.748 94.3855 228.718 120.917 243.56C136.084 252.052 155.346 252.985 171.316 246.107C183.183 240.973 195.126 241.087 203.191 246.683C207.822 249.895 212.822 253.18 218.006 256.481C212.83 259.773 207.822 263.066 203.191 266.278C195.126 271.875 183.2 271.98 171.316 266.854C155.346 259.984 136.084 260.909 120.917 269.401C94.3855 284.235 85.2656 317.213 100.583 342.907C110.482 359.51 128.94 369.827 148.755 369.827C158.453 369.827 168.042 367.329 176.484 362.608C191.826 354.035 202.094 338.714 203.961 321.609C205.343 308.778 211.339 299.134 220.409 295.176C231.321 290.407 243.18 284.592 255.148 278.193C267.107 284.584 278.966 290.399 289.903 295.184C298.973 299.151 304.961 308.786 306.351 321.625C308.219 338.722 318.478 354.051 333.829 362.624C342.279 367.353 351.86 369.851 361.558 369.851C381.372 369.851 399.822 359.534 409.729 342.932C425.047 317.237 415.918 284.26 389.395 269.425C374.204 260.933 354.967 260.001 338.988 266.878C327.095 272.004 315.153 271.899 307.113 266.302C302.482 263.083 297.474 259.798 292.298 256.505C297.466 253.212 302.482 249.927 307.13 246.707C315.17 241.07 327.104 240.973 338.988 246.099Z" fill="#1B1B1B"/>
<path d="M361.55 146.541C352.471 146.541 343.494 148.877 335.588 153.297C321.217 161.335 311.594 175.691 309.852 191.701C308.328 205.773 301.586 216.406 291.335 220.891C281.068 225.385 269.98 230.778 258.733 236.731C260.784 237.851 262.845 238.946 264.905 240.089C273.263 244.761 281.386 249.595 289.091 254.429C294.686 250.893 300.096 247.356 305.062 243.901C309.827 240.576 315.53 238.889 322.021 238.889C327.858 238.889 334.223 240.3 340.403 242.969C355.361 249.408 373.383 248.549 387.612 240.592C399.655 233.852 408.264 222.992 411.865 209.991C415.467 196.989 413.616 183.404 406.656 171.741C397.394 156.201 380.116 146.541 361.55 146.541ZM301.528 240.024C297.349 242.936 292.793 245.929 288.086 248.938C286.478 247.219 284.56 245.75 282.349 244.599C287.223 241.476 291.947 238.378 296.268 235.377C297.6 234.452 299.007 233.682 300.447 233.049C300.841 235.19 301.837 237.242 303.261 238.929C302.675 239.27 302.089 239.635 301.528 240.024ZM341.182 233.933C339.348 235.75 334.256 233.804 329.818 229.61C325.354 225.409 323.227 220.535 325.061 218.71C326.886 216.893 329.726 221.078 334.164 225.271C338.62 229.481 343.008 232.117 341.182 233.933ZM400.157 223.892C396.565 228.661 399.077 222.562 401.749 214.03C404.102 206.544 404.487 198.376 402.46 190.241C396.389 165.942 371.038 150.962 345.956 156.842C341.132 157.969 344.273 154.782 351.366 153.111C376.465 147.239 401.807 162.219 407.879 186.51C411.246 199.966 407.988 213.495 400.157 223.892Z" fill="#E0FE10"/>
<path d="M221.188 258.516C215.593 262.061 210.192 265.597 205.234 269.044C196.155 275.354 182.932 275.597 169.875 269.96C163.226 267.097 155.873 265.589 148.612 265.589C139.542 265.589 130.572 267.925 122.667 272.337C97.8104 286.238 89.2766 317.124 103.623 341.18C112.893 356.728 130.179 366.396 148.746 366.396C157.824 366.396 166.802 364.06 174.716 359.64C189.079 351.61 198.693 337.254 200.443 321.236C201.967 307.172 208.709 296.531 218.952 292.046C229.202 287.569 240.29 282.167 251.554 276.206C249.494 275.086 247.434 273.999 245.391 272.856C237.007 268.184 228.892 263.35 221.188 258.516ZM111.612 336.135C109.125 336.93 105.524 332.948 103.572 327.23C101.613 321.52 102.031 316.231 104.51 315.445C106.998 314.642 107.517 319.614 109.485 325.332C111.461 331.041 114.091 335.332 111.612 336.135ZM215.116 288.347C204.203 293.124 198.877 304.625 197.621 316.158C196.8 323.718 194.137 331.066 190.142 337.562C181.818 323.401 199.003 314.512 184.004 289.361C181.533 285.208 178.468 281.575 174.967 278.509C180.654 282.224 185.586 287.22 189.229 293.343C190.377 295.266 191.357 297.228 192.186 299.232C192.772 300.675 194.874 300.602 195.477 299.175C198.291 292.459 202.956 286.733 209.857 283.708C215.551 281.218 221.64 278.314 227.854 275.232C229.981 276.814 232.485 278.03 235.341 278.809C228.315 282.305 221.489 285.549 215.116 288.347Z" fill="#E0FE10"/>
<path d="M351.365 153.11C344.272 154.781 341.131 157.968 345.955 156.841C371.037 150.961 396.388 165.941 402.46 190.241C404.486 198.376 404.101 206.543 401.748 214.029C399.076 222.562 396.564 228.661 400.157 223.892C407.987 213.502 411.236 199.965 407.878 186.51C401.815 162.218 376.464 147.238 351.365 153.11Z" fill="#1B1B1B"/>
<path d="M209.849 283.7C202.948 286.725 198.283 292.451 195.469 299.167C194.874 300.602 192.772 300.667 192.178 299.224C191.349 297.22 190.369 295.258 189.221 293.335C185.57 287.212 180.646 282.216 174.959 278.501C178.46 281.567 181.525 285.2 183.996 289.353C198.995 314.512 181.81 323.393 190.134 337.554C194.129 331.058 196.792 323.71 197.613 316.151C198.869 304.625 204.196 293.116 215.108 288.339C221.49 285.549 228.307 282.297 235.325 278.793C232.469 278.014 229.965 276.798 227.838 275.216C221.632 278.298 215.535 281.21 209.849 283.7Z" fill="#1B1B1B"/>
<path d="M296.259 235.377C291.938 238.378 287.214 241.476 282.34 244.599C284.56 245.75 286.469 247.226 288.077 248.938C292.792 245.921 297.348 242.936 301.518 240.024C302.079 239.635 302.666 239.27 303.244 238.929C301.82 237.242 300.823 235.182 300.43 233.049C298.998 233.682 297.591 234.452 296.259 235.377Z" fill="#1B1B1B"/>
<path d="M334.163 225.279C329.725 221.086 326.886 216.901 325.06 218.718C323.226 220.542 325.353 225.417 329.817 229.618C334.255 233.819 339.356 235.758 341.182 233.941C343.007 232.116 338.619 229.48 334.163 225.279Z" fill="#1B1B1B"/>
<path d="M104.519 315.445C102.04 316.232 101.613 321.52 103.581 327.23C105.533 332.948 109.134 336.93 111.621 336.135C114.1 335.332 111.47 331.042 109.494 325.332C107.526 319.614 106.998 314.642 104.519 315.445Z" fill="#1B1B1B"/>
<path d="M387.619 272.353C373.39 264.397 355.376 263.537 340.41 269.977C334.23 272.645 327.865 274.057 322.028 274.057C315.537 274.057 309.826 272.37 305.06 269.052C292.766 260.504 278.278 251.517 263.145 243.05C248.003 234.59 232.719 226.926 218.951 220.9C208.709 216.422 201.967 205.781 200.443 191.709C198.692 175.691 189.07 161.335 174.707 153.306C166.81 148.885 157.824 146.541 148.746 146.541C130.179 146.541 112.901 156.209 103.622 171.757C89.2762 195.821 97.8184 226.707 122.666 240.6C136.878 248.549 154.909 249.416 169.875 242.985C176.047 240.316 182.412 238.905 188.249 238.905C194.731 238.905 200.451 240.584 205.225 243.901C217.469 252.426 231.957 261.42 247.132 269.904C262.24 278.355 277.533 286.012 291.326 292.054C301.577 296.539 308.318 307.18 309.843 321.252C311.585 337.263 321.207 351.619 335.578 359.656C343.476 364.077 352.462 366.412 361.54 366.412C380.107 366.412 397.384 356.753 406.655 341.204C421.018 317.132 412.475 286.247 387.619 272.353ZM130.723 233.974C128.981 235.872 123.805 234.169 119.157 230.162C114.509 226.163 112.156 221.378 113.89 219.496C115.632 217.598 118.646 221.646 123.303 225.644C127.959 229.643 132.457 232.084 130.723 233.974ZM300.438 279.904C298.997 279.28 297.59 278.517 296.259 277.585C284.232 269.223 269.92 260.277 254.209 251.493C238.489 242.701 223.34 235.158 209.848 229.262C202.939 226.236 198.282 220.51 195.468 213.795C194.874 212.359 192.771 212.286 192.177 213.73C191.348 215.733 190.368 217.696 189.221 219.626C185.569 225.75 180.645 230.738 174.958 234.46C178.459 231.395 181.524 227.761 183.995 223.6C196.9 201.961 189.221 174.174 166.868 161.668C155.973 155.577 143.578 154.23 132.23 156.947C126.879 158.229 123.052 158.861 126.326 157.142C140.17 149.883 157.489 149.526 172.086 157.685C185.946 165.439 195.87 180.687 197.612 196.795C198.868 208.32 204.195 219.829 215.107 224.598C228.582 230.502 243.749 238.045 259.468 246.829C275.179 255.613 289.5 264.551 301.518 272.913C302.079 273.302 302.665 273.667 303.243 274.008C301.828 275.711 300.831 277.763 300.438 279.904ZM342.06 350.824C340.318 352.722 335.143 351.018 330.486 347.012C325.838 343.013 323.485 338.228 325.227 336.346C326.961 334.448 329.992 338.496 334.64 342.494C339.288 346.493 343.785 348.934 342.06 350.824ZM402.141 338.674C398.49 344.798 393.574 349.794 387.887 353.516C391.371 350.451 394.436 346.809 396.915 342.656C409.829 321.009 402.141 293.23 379.789 280.732C370.3 275.419 359.672 273.781 349.597 275.249C347.839 275.508 343.719 275.006 343.384 274.357C356.44 269.012 371.824 269.369 385.023 276.749C407.367 289.24 415.046 317.019 402.141 338.674Z" fill="#E0FE10"/>
<path d="M385.015 276.741C371.825 269.36 356.432 269.003 343.376 274.348C343.711 274.997 347.832 275.5 349.59 275.24C359.665 273.772 370.301 275.403 379.781 280.723C402.133 293.214 409.822 321.001 396.908 342.648C394.429 346.809 391.364 350.442 387.88 353.508C393.566 349.785 398.482 344.797 402.134 338.666C415.047 317.018 407.368 289.239 385.015 276.741Z" fill="#1B1B1B"/>
<path d="M259.478 246.845C243.758 238.053 228.591 230.51 215.116 224.614C204.204 219.845 198.878 208.336 197.622 196.811C195.88 180.703 185.956 165.447 172.095 157.701C157.498 149.534 140.187 149.891 126.335 157.158C123.061 158.869 126.888 158.236 132.24 156.963C143.579 154.246 155.982 155.592 166.878 161.683C189.23 174.19 196.91 201.969 184.004 223.616C181.534 227.777 178.468 231.402 174.968 234.476C180.654 230.754 185.587 225.766 189.23 219.642C190.377 217.712 191.357 215.749 192.186 213.746C192.773 212.302 194.875 212.375 195.478 213.81C198.292 220.526 202.948 226.252 209.857 229.277C223.341 235.174 238.499 242.717 254.218 251.509C269.929 260.293 284.25 269.239 296.268 277.601C297.6 278.533 299.007 279.296 300.447 279.92C300.841 277.787 301.837 275.727 303.261 274.04C302.683 273.699 302.097 273.342 301.536 272.945C289.501 264.567 275.18 255.629 259.478 246.845Z" fill="#1B1B1B"/>
<path d="M123.312 225.652C118.656 221.654 115.641 217.607 113.899 219.504C112.166 221.394 114.519 226.171 119.167 230.17C123.815 234.177 128.991 235.88 130.733 233.982C132.458 232.084 127.96 229.643 123.312 225.652Z" fill="#1B1B1B"/>
<path d="M334.64 342.494C329.992 338.496 326.961 334.448 325.227 336.346C323.485 338.228 325.839 343.013 330.486 347.012C335.143 351.018 340.318 352.722 342.06 350.824C343.786 348.934 339.288 346.493 334.64 342.494Z" fill="#1B1B1B"/>
<path d="M421.503 118.277L277.558 66.9851C263.186 61.8673 247.115 61.8673 232.761 66.9851L88.807 118.277C73.456 123.751 63.1467 138.067 63.1467 153.907V356.364C63.1467 372.204 73.4561 386.52 88.8154 391.994L232.744 443.286C239.93 445.841 247.467 447.147 255.147 447.147C262.826 447.147 270.355 445.849 277.541 443.286L421.486 391.994C436.837 386.52 447.147 372.204 447.147 356.364V153.907C447.172 138.067 436.854 123.751 421.503 118.277ZM426.025 356.364C426.025 363.656 421.277 370.258 414.209 372.78L270.247 424.072C260.574 427.527 249.753 427.527 240.064 424.072L96.118 372.78C89.0414 370.258 84.293 363.656 84.293 356.364V153.907C84.293 146.607 89.0416 140.013 96.1099 137.491L240.072 86.1992C244.904 84.4716 249.988 83.5957 255.163 83.5957C260.339 83.5957 265.423 84.4716 270.263 86.1992L414.209 137.491C421.286 140.013 426.034 146.607 426.034 153.907V356.364H426.025Z" fill="#E0FE10"/>
</svg>
