<svg width="31" height="30" viewBox="0 0 31 30" fill="none" xmlns="http://www.w3.org/2000/svg">
<path d="M16.5405 27.2516C20.4479 26.4684 25.5 23.6575 25.5 16.389C25.5 9.7745 20.6584 5.36991 17.1769 3.34606C16.4044 2.89696 15.5 3.48757 15.5 4.38115V6.66675C15.5 8.46907 14.7422 11.7589 12.6366 13.1272C11.5616 13.8259 10.4006 12.7802 10.27 11.5048L10.1627 10.4575C10.038 9.24004 8.79801 8.50094 7.82495 9.24325C6.07684 10.5768 4.25 12.912 4.25 16.389C4.25 25.2779 10.8611 27.5001 14.1666 27.5001C14.3589 27.5001 14.561 27.4944 14.7714 27.4822C13.1391 27.3427 10.5 26.33 10.5 23.0552C10.5 20.4936 12.3688 18.7606 13.7887 17.9182C14.1706 17.6916 14.6176 17.9859 14.6176 18.4299V19.1664C14.6176 19.73 14.8356 20.6111 15.3545 21.2142C15.9417 21.8967 16.8036 21.1817 16.8731 20.2841C16.8951 20.001 17.1799 19.8205 17.4251 19.9639C18.2267 20.4324 19.25 21.4331 19.25 23.0552C19.25 25.6152 17.8387 26.7929 16.5405 27.2516Z" fill="#E0FE10"/>
</svg>
