<svg width="30" height="30" viewBox="0 0 30 30" fill="none" xmlns="http://www.w3.org/2000/svg">
<path d="M27.0048 6.62004L23.38 2.99525C23.1874 2.80317 22.9265 2.69531 22.6545 2.69531C22.3825 2.69531 22.1216 2.80317 21.9291 2.99525L21.0216 3.90273L22.652 5.53307C22.7962 5.67721 22.8772 5.8727 22.8772 6.07655C22.8772 6.2804 22.7962 6.4759 22.652 6.62004C22.5079 6.76418 22.3124 6.84516 22.1085 6.84516C21.9047 6.84516 21.7092 6.76418 21.5651 6.62004L19.9347 4.98964L19.017 5.90732L20.109 6.99429C20.1806 7.06593 20.2374 7.151 20.2762 7.24463C20.3149 7.33826 20.3348 7.43861 20.3347 7.53993C20.3345 7.64125 20.3144 7.74155 20.2755 7.83509C20.2366 7.92863 20.1796 8.01357 20.1077 8.08505C20.0359 8.15652 19.9507 8.21313 19.857 8.25162C19.7633 8.29012 19.6629 8.30975 19.5616 8.30939C19.4602 8.30902 19.36 8.28868 19.2665 8.24951C19.1731 8.21035 19.0883 8.15313 19.017 8.08114L17.93 6.99429L17.0124 7.91204L18.1044 8.99889C18.2485 9.1437 18.3292 9.33983 18.3288 9.54415C18.3283 9.74847 18.2467 9.94423 18.1019 10.0884C17.9571 10.2325 17.7609 10.3132 17.5566 10.3128C17.3523 10.3123 17.1565 10.2307 17.0124 10.0859L15.9254 8.99889L15.0128 9.9115L16.0998 11.0035C16.1711 11.0749 16.2277 11.1596 16.2664 11.2529C16.305 11.3461 16.3249 11.4461 16.3249 11.547C16.3249 11.648 16.305 11.7479 16.2664 11.8411C16.2277 11.9344 16.1711 12.0191 16.0997 12.0905C16.0284 12.1619 15.9436 12.2185 15.8504 12.2571C15.7571 12.2957 15.6572 12.3156 15.5563 12.3156C15.4553 12.3156 15.3554 12.2957 15.2621 12.2571C15.1689 12.2184 15.0842 12.1618 15.0128 12.0905L13.9208 11.0035L13.0082 11.9162L14.6385 13.5517C14.7102 13.623 14.7671 13.7077 14.806 13.801C14.8449 13.8944 14.865 13.9944 14.8651 14.0955C14.8652 14.1966 14.8454 14.2968 14.8068 14.3902C14.7682 14.4836 14.7115 14.5685 14.64 14.64C14.5685 14.7115 14.4836 14.7682 14.3902 14.8068C14.2968 14.8454 14.1966 14.8652 14.0955 14.8651C13.9944 14.865 13.8944 14.8449 13.801 14.806C13.7077 14.7671 13.623 14.7102 13.5517 14.6385L11.9212 13.0082L11.0036 13.9208L12.0905 15.0077C12.1624 15.0793 12.2194 15.1643 12.2584 15.2581C12.2973 15.3518 12.3174 15.4522 12.3174 15.5537C12.3174 15.6552 12.2973 15.7557 12.2584 15.8494C12.2194 15.9431 12.1624 16.0282 12.0905 16.0998C11.9451 16.2415 11.7501 16.3208 11.547 16.3208C11.344 16.3208 11.149 16.2415 11.0036 16.0998L9.91663 15.0077L8.99889 15.9254L10.0859 17.0124C10.2298 17.1566 10.3106 17.352 10.3105 17.5557C10.3104 17.7594 10.2294 17.9548 10.0854 18.0988C9.94129 18.2429 9.74593 18.3238 9.5422 18.3239C9.33848 18.324 9.14306 18.2432 8.99889 18.0992L7.91204 17.0124L6.99432 17.9301L8.08117 19.017C8.2253 19.1611 8.30628 19.3566 8.30628 19.5604C8.30629 19.7642 8.22532 19.9597 8.0812 20.1039C7.93707 20.248 7.74159 20.329 7.53776 20.329C7.33393 20.329 7.13845 20.248 6.99432 20.1039L5.90734 19.017L4.9897 19.9347L6.62004 21.5651C6.69141 21.6364 6.74803 21.7212 6.78665 21.8144C6.82528 21.9077 6.84516 22.0076 6.84516 22.1085C6.84516 22.2095 6.82528 22.3094 6.78665 22.4027C6.74803 22.4959 6.69141 22.5807 6.62004 22.652C6.54867 22.7234 6.46394 22.78 6.37068 22.8186C6.27743 22.8573 6.17749 22.8772 6.07655 22.8772C5.97562 22.8772 5.87567 22.8573 5.78242 22.8186C5.68917 22.78 5.60444 22.7234 5.53307 22.652L3.90273 21.0216L2.99525 21.929C2.80317 22.1216 2.69531 22.3825 2.69531 22.6545C2.69531 22.9265 2.80317 23.1874 2.99525 23.38L6.62004 27.0048C6.81262 27.1969 7.07349 27.3047 7.34546 27.3047C7.61743 27.3047 7.8783 27.1969 8.07088 27.0048L27.0048 8.07094C27.1968 7.87834 27.3047 7.61746 27.3047 7.34549C27.3047 7.07352 27.1968 6.81264 27.0048 6.62004Z" fill="#E0FE10"/>
</svg>
