<svg width="30" height="30" viewBox="0 0 30 30" fill="none" xmlns="http://www.w3.org/2000/svg">
<path d="M21.5501 14.2931C22.7978 14.8311 24.3013 14.7582 25.4882 14.0942C26.4925 13.5328 27.2109 12.6267 27.5106 11.5419C27.8109 10.4571 27.6565 9.32412 27.0768 8.35147C26.3028 7.05441 24.8614 6.24841 23.3133 6.24841C22.5563 6.24841 21.8072 6.44357 21.147 6.81236C19.949 7.48275 19.1456 8.6797 19.0003 10.0161C18.8917 11.0185 18.4239 11.7719 17.7153 12.0811C16.8608 12.4543 15.935 12.9093 15.0001 13.4086C14.0645 12.9086 13.1386 12.4543 12.2861 12.0811C11.5775 11.7712 11.1091 11.0185 11.0011 10.0161C10.8546 8.68033 10.0524 7.48212 8.85443 6.81299C8.19426 6.44358 7.44577 6.24905 6.68811 6.24905C5.14009 6.24905 3.69807 7.05505 2.92471 8.35211C1.72803 10.3595 2.44053 12.9353 4.51328 14.0948C5.69818 14.7582 7.20303 14.8311 8.45074 14.2938C9.37785 13.8927 10.3109 13.9016 10.9409 14.3388C11.3027 14.5897 11.6934 14.8463 12.0984 15.1042C11.694 15.3615 11.3027 15.6187 10.9409 15.8697C10.3109 16.3069 9.37916 16.3151 8.45074 15.9146C7.20303 15.3779 5.69818 15.4502 4.51328 16.1136C2.44053 17.2725 1.72803 19.8489 2.92471 21.8563C3.69807 23.1534 5.14009 23.9594 6.68811 23.9594C7.44577 23.9594 8.19492 23.7642 8.85443 23.3954C10.0531 22.7257 10.8552 21.5287 11.0011 20.1924C11.1091 19.1899 11.5775 18.4365 12.2861 18.1273C13.1386 17.7547 14.0651 17.3004 15.0001 16.8005C15.9344 17.2998 16.8608 17.7541 17.7153 18.128C18.4239 18.4378 18.8917 19.1906 19.0003 20.1936C19.1463 21.5294 19.9477 22.7269 21.147 23.3967C21.8072 23.7661 22.5557 23.9613 23.3133 23.9613C24.8614 23.9613 26.3028 23.1553 27.0768 21.8582C28.2734 19.8508 27.5603 17.2744 25.4882 16.1155C24.3013 15.4521 22.7984 15.3792 21.5501 15.9165C20.621 16.317 19.688 16.3088 19.0599 15.8715C18.6981 15.62 18.3068 15.3634 17.9025 15.1061C18.3062 14.8489 18.6981 14.5922 19.0612 14.3407C19.6893 13.9003 20.6216 13.8927 21.5501 14.2931Z" fill="#1B1B1B"/>
<path d="M23.3128 6.51514C22.6036 6.51514 21.9022 6.69762 21.2846 7.04296C20.1619 7.6709 19.4101 8.79245 19.274 10.0433C19.1549 11.1426 18.6282 11.9733 17.8274 12.3237C17.0252 12.6748 16.159 13.0962 15.2803 13.5612C15.4406 13.6487 15.6015 13.7342 15.7625 13.8236C16.4154 14.1886 17.0501 14.5662 17.652 14.9439C18.0891 14.6676 18.5117 14.3913 18.8997 14.1214C19.272 13.8616 19.7176 13.7298 20.2246 13.7298C20.6807 13.7298 21.1779 13.84 21.6608 14.0485C22.8293 14.5516 24.2373 14.4845 25.349 13.8629C26.2898 13.3363 26.9624 12.4879 27.2438 11.4721C27.5251 10.4564 27.3805 9.39504 26.8368 8.48386C26.1132 7.2698 24.7634 6.51514 23.3128 6.51514ZM18.6236 13.8185C18.2971 14.046 17.9412 14.2798 17.5735 14.5149C17.4479 14.3805 17.2981 14.2659 17.1253 14.1759C17.5061 13.9319 17.8751 13.6899 18.2127 13.4554C18.3168 13.3832 18.4267 13.323 18.5392 13.2736C18.57 13.4409 18.6478 13.6012 18.7591 13.733C18.7133 13.7596 18.6675 13.7881 18.6236 13.8185ZM21.7217 13.3426C21.5784 13.4846 21.1805 13.3325 20.8338 13.0049C20.485 12.6767 20.3189 12.2959 20.4622 12.1533C20.6048 12.0114 20.8266 12.3383 21.1734 12.6659C21.5214 12.9948 21.8643 13.2007 21.7217 13.3426ZM26.3291 12.5582C26.0484 12.9308 26.2447 12.4543 26.4534 11.7877C26.6372 11.2028 26.6673 10.5648 26.509 9.92921C26.0346 8.03081 24.0541 6.86047 22.0946 7.31987C21.7177 7.40794 21.9631 7.15892 22.5173 7.02839C24.4781 6.56963 26.458 7.73997 26.9323 9.63773C27.1953 10.6889 26.9408 11.7459 26.3291 12.5582Z" fill="white"/>
<path d="M12.3469 15.2632C11.9099 15.5401 11.4879 15.8164 11.1005 16.0857C10.3913 16.5786 9.35819 16.5976 8.33817 16.1573C7.81867 15.9336 7.24421 15.8157 6.67695 15.8157C5.96837 15.8157 5.26764 15.9982 4.65 16.3429C2.7081 17.429 2.0414 19.8419 3.16218 21.7213C3.88647 22.936 5.2369 23.6913 6.68744 23.6913C7.39667 23.6913 8.09805 23.5088 8.71634 23.1634C9.83843 22.5361 10.5895 21.4146 10.7263 20.1631C10.8454 19.0644 11.3721 18.2331 12.1723 17.8827C12.9731 17.5329 13.8393 17.1109 14.7193 16.6452C14.5584 16.5577 14.3974 16.4728 14.2378 16.3835C13.5829 16.0185 12.9489 15.6408 12.3469 15.2632ZM3.78635 21.3271C3.59203 21.3892 3.31069 21.0781 3.15825 20.6314C3.00515 20.1853 3.03786 19.7722 3.23153 19.7107C3.42585 19.648 3.46641 20.0364 3.62016 20.4831C3.77457 20.9292 3.98002 21.2644 3.78635 21.3271ZM11.8726 17.5937C11.0201 17.9669 10.6039 18.8654 10.5058 19.7665C10.4417 20.357 10.2336 20.9311 9.92153 21.4387C9.27118 20.3323 10.6138 19.6379 9.44195 17.6729C9.24893 17.3485 9.00946 17.0646 8.73597 16.8251C9.18023 17.1153 9.5656 17.5057 9.85021 17.9841C9.93985 18.1342 10.0164 18.2876 10.0812 18.4441C10.127 18.5569 10.2912 18.5512 10.3383 18.4396C10.5581 17.915 10.9226 17.4676 11.4617 17.2313C11.9066 17.0368 12.3823 16.8099 12.8677 16.5691C13.0339 16.6927 13.2296 16.7877 13.4527 16.8486C12.9037 17.1217 12.3705 17.3751 11.8726 17.5937Z" fill="white"/>
<path d="M22.5171 7.0284C21.9629 7.15893 21.7175 7.40796 22.0944 7.31988C24.054 6.86049 26.0345 8.03083 26.5088 9.92922C26.6672 10.5648 26.6371 11.2028 26.4532 11.7877C26.2445 12.4543 26.0482 12.9308 26.3289 12.5582C26.9407 11.7465 27.1945 10.689 26.9322 9.63774C26.4585 7.73998 24.478 6.56964 22.5171 7.0284Z" fill="#1B1B1B"/>
<path d="M11.4611 17.2307C10.922 17.467 10.5575 17.9144 10.3377 18.439C10.2912 18.5512 10.127 18.5562 10.0805 18.4434C10.0158 18.2869 9.93923 18.1336 9.84959 17.9834C9.56433 17.505 9.17961 17.1147 8.73535 16.8245C9.00884 17.064 9.24831 17.3479 9.44133 17.6723C10.6131 19.6379 9.27056 20.3317 9.92091 21.438C10.233 20.9305 10.4411 20.3564 10.5052 19.7659C10.6033 18.8655 11.0194 17.9663 11.872 17.5931C12.3705 17.3751 12.9031 17.121 13.4514 16.8473C13.2283 16.7865 13.0327 16.6914 12.8665 16.5679C12.3817 16.8087 11.9053 17.0361 11.4611 17.2307Z" fill="#1B1B1B"/>
<path d="M18.2119 13.4555C17.8743 13.69 17.5053 13.932 17.1245 14.176C17.2979 14.266 17.4471 14.3813 17.5727 14.515C17.9411 14.2793 18.297 14.0461 18.6228 13.8186C18.6666 13.7882 18.7124 13.7597 18.7576 13.7331C18.6464 13.6013 18.5685 13.4403 18.5378 13.2737C18.4259 13.3231 18.3159 13.3833 18.2119 13.4555Z" fill="#1B1B1B"/>
<path d="M21.1733 12.6665C20.8265 12.339 20.6047 12.012 20.4621 12.1539C20.3188 12.2965 20.485 12.6773 20.8337 13.0056C21.1805 13.3338 21.579 13.4852 21.7216 13.3433C21.8642 13.2007 21.5214 12.9948 21.1733 12.6665Z" fill="#1B1B1B"/>
<path d="M3.23224 19.7108C3.03857 19.7722 3.0052 20.1854 3.15896 20.6315C3.3114 21.0782 3.59274 21.3893 3.78706 21.3272C3.98073 21.2645 3.77528 20.9293 3.62087 20.4832C3.46712 20.0365 3.4259 19.6481 3.23224 19.7108Z" fill="#1B1B1B"/>
<path d="M25.3493 16.3442C24.2377 15.7226 22.8303 15.6554 21.6611 16.1585C21.1783 16.367 20.681 16.4773 20.225 16.4773C19.7179 16.4773 19.2717 16.3455 18.8994 16.0863C17.9389 15.4185 16.807 14.7164 15.6247 14.0549C14.4418 13.394 13.2477 12.7952 12.1721 12.3244C11.3719 11.9746 10.8452 11.1433 10.7261 10.0439C10.5894 8.79245 9.83763 7.6709 8.71554 7.04359C8.09856 6.69826 7.39653 6.51514 6.68729 6.51514C5.23676 6.51514 3.88698 7.27044 3.16204 8.48513C2.04126 10.3651 2.70861 12.7781 4.64986 13.8635C5.76017 14.4845 7.16883 14.5523 8.33803 14.0498C8.82023 13.8413 9.31748 13.7311 9.77352 13.7311C10.2799 13.7311 10.7268 13.8622 11.0997 14.1214C12.0563 14.7873 13.1882 15.4901 14.3738 16.1528C15.5541 16.8131 16.7488 17.4113 17.8264 17.8833C18.6272 18.2337 19.1539 19.0651 19.273 20.1644C19.4091 21.4153 20.1609 22.5368 21.2836 23.1647C21.9006 23.5101 22.6026 23.6926 23.3119 23.6926C24.7624 23.6926 26.1122 22.9379 26.8365 21.7232C27.9586 19.8425 27.2912 17.4296 25.3493 16.3442ZM5.27928 13.3458C5.14319 13.4941 4.73884 13.361 4.37571 13.048C4.01259 12.7356 3.82874 12.3618 3.96417 12.2148C4.10026 12.0665 4.3358 12.3827 4.69958 12.6951C5.06336 13.0074 5.41472 13.1982 5.27928 13.3458ZM18.5382 16.9341C18.4257 16.8853 18.3158 16.8258 18.2118 16.7529C17.2722 16.0996 16.154 15.4007 14.9266 14.7145C13.6985 14.0276 12.515 13.4383 11.4609 12.9777C10.9211 12.7413 10.5573 12.294 10.3375 11.7693C10.291 11.6571 10.1268 11.6514 10.0804 11.7642C10.0156 11.9207 9.93905 12.0741 9.84941 12.2249C9.56414 12.7033 9.17943 13.093 8.73517 13.3838C9.00866 13.1443 9.24813 12.8604 9.44114 12.5354C10.4494 10.8448 9.84941 8.67396 8.10313 7.69688C7.25192 7.22102 6.28359 7.11583 5.39705 7.3281C4.97896 7.42822 4.67996 7.47764 4.93579 7.3433C6.01731 6.77619 7.37035 6.74831 8.51076 7.38576C9.59359 7.99152 10.3689 9.18277 10.505 10.4412C10.6031 11.3416 11.0193 12.2407 11.8718 12.6133C12.9245 13.0746 14.1094 13.6639 15.3375 14.3501C16.5649 15.0364 17.6837 15.7346 18.6226 16.3879C18.6665 16.4183 18.7123 16.4469 18.7574 16.4735C18.6469 16.6065 18.569 16.7668 18.5382 16.9341ZM21.79 22.4747C21.6539 22.623 21.2496 22.4899 20.8858 22.1769C20.5227 21.8645 20.3388 21.4907 20.4749 21.3436C20.6104 21.1954 20.8472 21.5116 21.2103 21.824C21.5734 22.1363 21.9248 22.3271 21.79 22.4747ZM26.4838 21.5255C26.1985 22.0039 25.8145 22.3942 25.3702 22.6851C25.6424 22.4456 25.8819 22.161 26.0755 21.8366C27.0844 20.1454 26.4838 17.9752 24.7375 16.9988C23.9962 16.5837 23.1659 16.4557 22.3788 16.5704C22.2415 16.5907 21.9196 16.5514 21.8934 16.5007C22.9134 16.0832 24.1153 16.111 25.1465 16.6876C26.8921 17.6635 27.4921 19.8337 26.4838 21.5255Z" fill="white"/>
<path d="M25.1461 16.6871C24.1156 16.1105 22.9131 16.0826 21.8931 16.5002C21.9192 16.5508 22.2411 16.5901 22.3785 16.5699C23.1656 16.4552 23.9966 16.5825 24.7372 16.9982C26.4835 17.974 27.0841 20.1449 26.0752 21.8361C25.8816 22.1611 25.6421 22.445 25.3699 22.6845C25.8142 22.3937 26.1982 22.004 26.4835 21.525C27.4924 19.8338 26.8924 17.6635 25.1461 16.6871Z" fill="#1B1B1B"/>
<path d="M15.3382 14.3514C14.1101 13.6645 12.9253 13.0752 11.8725 12.6146C11.02 12.242 10.6039 11.3428 10.5057 10.4424C10.3696 9.18401 9.59432 7.99213 8.51149 7.387C7.37108 6.74892 6.01867 6.77681 4.93649 7.34455C4.68067 7.47825 4.97969 7.42882 5.39777 7.32934C6.28367 7.11707 7.25264 7.22226 8.10386 7.69812C9.85013 8.6752 10.4501 10.8454 9.44187 12.5366C9.24886 12.8617 9.00939 13.1449 8.7359 13.3851C9.18015 13.0942 9.56552 12.7045 9.85014 12.2261C9.93977 12.0753 10.0163 11.922 10.0811 11.7655C10.1269 11.6527 10.2911 11.6584 10.3382 11.7705C10.5581 12.2952 10.9219 12.7426 11.4616 12.9789C12.515 13.4396 13.6993 14.0289 14.9273 14.7157C16.1548 15.402 17.2736 16.1009 18.2125 16.7541C18.3165 16.827 18.4264 16.8866 18.539 16.9354C18.5697 16.7687 18.6476 16.6078 18.7588 16.476C18.7137 16.4494 18.6679 16.4215 18.624 16.3904C17.6838 15.7359 16.565 15.0376 15.3382 14.3514Z" fill="#1B1B1B"/>
<path d="M4.70034 12.6957C4.33656 12.3833 4.10103 12.0671 3.96494 12.2154C3.8295 12.3631 4.01335 12.7363 4.37648 13.0487C4.7396 13.3617 5.14395 13.4947 5.28004 13.3465C5.41482 13.1982 5.06347 13.0075 4.70034 12.6957Z" fill="#1B1B1B"/>
<path d="M21.2105 21.824C20.8473 21.5116 20.6105 21.1954 20.475 21.3437C20.339 21.4907 20.5228 21.8646 20.8859 22.177C21.2497 22.49 21.654 22.623 21.7901 22.4748C21.9249 22.3271 21.5736 22.1364 21.2105 21.824Z" fill="#1B1B1B"/>
<path d="M27.9966 4.30703L16.7508 0.299872C15.6281 -0.0999572 14.3725 -0.0999572 13.2511 0.299872L2.00471 4.30703C0.805415 4.73474 0 5.85313 0 7.09063V22.9076C0 24.1451 0.805419 25.2635 2.00537 25.6912L13.2498 29.6984C13.8112 29.898 14.4 30 15 30C15.6 30 16.1882 29.8986 16.7495 29.6984L27.9953 25.6912C29.1946 25.2635 30 24.1451 30 22.9076V7.09063C30.002 5.85313 29.1959 4.73474 27.9966 4.30703ZM28.3499 22.9076C28.3499 23.4773 27.9789 23.9931 27.4267 24.1901L16.1797 28.1973C15.424 28.4672 14.5786 28.4672 13.8216 28.1973L2.57588 24.1901C2.02302 23.9931 1.65205 23.4773 1.65205 22.9076V7.09063C1.65205 6.52035 2.02303 6.0052 2.57525 5.80814L13.8223 1.80097C14.1998 1.66601 14.597 1.59758 15.0013 1.59758C15.4056 1.59758 15.8028 1.66601 16.181 1.80097L27.4267 5.80814C27.9796 6.0052 28.3506 6.52035 28.3506 7.09063V22.9076H28.3499Z" fill="white"/>
</svg>
