<svg width="300" height="300" viewBox="0 0 300 300" fill="none" xmlns="http://www.w3.org/2000/svg">
<path d="M215.501 142.931C227.978 148.311 243.013 147.582 254.882 140.942C264.925 135.328 272.109 126.267 275.106 115.419C278.109 104.571 276.565 93.2412 270.768 83.5147C263.028 70.5441 248.614 62.4841 233.133 62.4841C225.563 62.4841 218.072 64.4357 211.47 68.1236C199.49 74.8275 191.456 86.797 190.004 100.161C188.917 110.185 184.239 117.719 177.153 120.811C168.608 124.543 159.35 129.093 150.001 134.086C140.645 129.086 131.386 124.543 122.861 120.811C115.775 117.712 111.091 110.185 110.011 100.161C108.546 86.8034 100.524 74.8212 88.5443 68.1299C81.9427 64.4358 74.4577 62.4905 66.8811 62.4905C51.4009 62.4905 36.9807 70.5505 29.2471 83.5211C17.2803 103.595 24.4053 129.353 45.1328 140.948C56.9818 147.582 72.0303 148.311 84.5074 142.938C93.7785 138.927 103.109 139.016 109.409 143.388C113.027 145.897 116.934 148.463 120.984 151.042C116.94 153.615 113.027 156.187 109.409 158.697C103.109 163.069 93.7916 163.151 84.5074 159.146C72.0303 153.779 56.9818 154.502 45.1328 161.136C24.4053 172.725 17.2803 198.489 29.2471 218.563C36.9807 231.534 51.4009 239.594 66.8811 239.594C74.4577 239.594 81.9492 237.642 88.5443 233.954C100.531 227.257 108.552 215.287 110.011 201.924C111.091 191.899 115.775 184.365 122.861 181.273C131.386 177.547 140.651 173.004 150.001 168.005C159.344 172.998 168.608 177.541 177.153 181.28C184.239 184.378 188.917 191.906 190.004 201.936C191.463 215.294 199.477 227.269 211.47 233.967C218.072 237.661 225.557 239.613 233.133 239.613C248.614 239.613 263.028 231.553 270.768 218.582C282.734 198.508 275.603 172.744 254.882 161.155C243.013 154.521 227.984 153.792 215.501 159.165C206.21 163.17 196.88 163.088 190.599 158.715C186.981 156.2 183.068 153.634 179.025 151.061C183.062 148.489 186.981 145.922 190.612 143.407C196.893 139.003 206.216 138.927 215.501 142.931Z" fill="#1B1B1B"/>
<path d="M233.127 65.152C226.035 65.152 219.021 66.9768 212.845 70.4302C201.617 76.7096 194.1 87.9251 192.739 100.433C191.548 111.427 186.281 119.734 178.272 123.238C170.251 126.748 161.588 130.962 152.802 135.613C154.404 136.487 156.014 137.343 157.624 138.236C164.153 141.886 170.5 145.663 176.519 149.439C180.89 146.677 185.116 143.914 188.996 141.214C192.719 138.617 197.175 137.299 202.245 137.299C206.806 137.299 211.778 138.401 216.607 140.486C228.292 145.517 242.372 144.845 253.488 138.629C262.897 133.364 269.623 124.879 272.436 114.722C275.25 104.565 273.804 93.951 268.367 84.8392C261.13 72.6986 247.633 65.152 233.127 65.152ZM186.235 138.186C182.97 140.46 179.411 142.799 175.734 145.149C174.478 143.806 172.979 142.659 171.252 141.759C175.06 139.32 178.75 136.899 182.126 134.555C183.167 133.833 184.266 133.231 185.391 132.736C185.699 134.409 186.477 136.012 187.589 137.33C187.131 137.596 186.673 137.882 186.235 138.186ZM217.215 133.427C215.782 134.846 211.804 133.326 208.337 130.05C204.849 126.767 203.187 122.959 204.62 121.534C206.047 120.114 208.265 123.384 211.732 126.66C215.213 129.948 218.642 132.008 217.215 133.427ZM263.29 125.583C260.483 129.308 262.446 124.543 264.533 117.877C266.371 112.029 266.672 105.648 265.089 99.2927C260.345 80.3087 240.54 68.6054 220.945 73.1993C217.176 74.08 219.63 71.5898 225.171 70.2845C244.78 65.6969 264.578 77.4003 269.322 96.3779C271.952 106.89 269.407 117.459 263.29 125.583Z" fill="white"/>
<path d="M123.469 152.632C119.099 155.401 114.879 158.164 111.005 160.857C103.913 165.787 93.5819 165.977 83.3817 161.573C78.1867 159.336 72.4421 158.158 66.7695 158.158C59.6837 158.158 52.6764 159.983 46.5 163.43C27.081 174.29 20.414 198.42 31.6218 217.213C38.8647 229.36 52.369 236.913 66.8744 236.913C73.9667 236.913 80.9805 235.088 87.1634 231.635C98.3843 225.362 105.895 214.147 107.263 201.632C108.454 190.645 113.721 182.331 121.723 178.827C129.731 175.33 138.393 171.109 147.193 166.452C145.584 165.578 143.974 164.729 142.378 163.835C135.829 160.186 129.489 156.409 123.469 152.632ZM37.8635 213.272C35.9203 213.893 33.1069 210.782 31.5825 206.315C30.0515 201.854 30.3786 197.722 32.3153 197.108C34.2585 196.481 34.6641 200.365 36.2016 204.832C37.7457 209.293 39.8002 212.645 37.8635 213.272ZM118.726 175.938C110.201 179.67 106.039 188.655 105.058 197.665C104.417 203.571 102.336 209.312 99.2153 214.387C92.7118 203.324 106.138 196.379 94.4194 176.73C92.4893 173.486 90.0946 170.647 87.3597 168.252C91.8023 171.154 95.656 175.057 98.5021 179.841C99.3985 181.343 100.164 182.876 100.812 184.441C101.27 185.569 102.912 185.512 103.383 184.397C105.581 179.15 109.226 174.677 114.617 172.313C119.066 170.368 123.823 168.1 128.677 165.692C130.339 166.927 132.296 167.878 134.527 168.486C129.037 171.217 123.705 173.752 118.726 175.938Z" fill="white"/>
<path d="M225.171 70.284C219.629 71.5893 217.175 74.0796 220.944 73.1988C240.54 68.6049 260.345 80.3083 265.088 99.2922C266.672 105.648 266.371 112.028 264.532 117.877C262.445 124.543 260.482 129.308 263.289 125.582C269.407 117.465 271.945 106.89 269.322 96.3774C264.585 77.3998 244.78 65.6964 225.171 70.284Z" fill="#1B1B1B"/>
<path d="M114.611 172.307C109.22 174.671 105.575 179.144 103.377 184.391C102.912 185.512 101.27 185.563 100.805 184.435C100.158 182.87 99.3923 181.337 98.4959 179.835C95.6433 175.051 91.7961 171.148 87.3535 168.246C90.0884 170.641 92.4831 173.479 94.4133 176.724C106.131 196.379 92.7056 203.318 99.2091 214.381C102.33 209.306 104.411 203.565 105.052 197.659C106.033 188.655 110.194 179.664 118.72 175.932C123.705 173.752 129.031 171.211 134.514 168.474C132.283 167.865 130.327 166.915 128.665 165.679C123.817 168.087 119.053 170.362 114.611 172.307Z" fill="#1B1B1B"/>
<path d="M182.119 134.555C178.743 136.899 175.053 139.32 171.245 141.759C172.979 142.659 174.471 143.812 175.727 145.149C179.411 142.792 182.97 140.46 186.228 138.186C186.666 137.881 187.124 137.596 187.576 137.33C186.464 136.012 185.685 134.403 185.378 132.736C184.259 133.23 183.159 133.832 182.119 134.555Z" fill="#1B1B1B"/>
<path d="M211.732 126.666C208.264 123.39 206.046 120.12 204.62 121.54C203.187 122.965 204.849 126.774 208.336 130.056C211.804 133.338 215.788 134.853 217.215 133.433C218.641 132.007 215.213 129.948 211.732 126.666Z" fill="#1B1B1B"/>
<path d="M32.3224 197.108C30.3857 197.723 30.052 201.854 31.5896 206.315C33.114 210.782 35.9274 213.893 37.8706 213.272C39.8073 212.645 37.7528 209.293 36.2087 204.832C34.6712 200.365 34.259 196.481 32.3224 197.108Z" fill="#1B1B1B"/>
<path d="M253.494 163.443C242.378 157.227 228.304 156.555 216.612 161.586C211.784 163.671 206.811 164.773 202.251 164.773C197.18 164.773 192.718 163.455 188.995 160.864C179.39 154.185 168.071 147.164 156.249 140.549C144.419 133.94 132.479 127.952 121.722 123.244C113.721 119.747 108.453 111.433 107.263 100.44C105.895 87.9251 98.3775 76.7096 87.1567 70.4366C80.9868 66.9832 73.9665 65.152 66.8742 65.152C52.3688 65.152 38.871 72.705 31.6216 84.8519C20.4138 103.652 27.0874 127.781 46.4998 138.636C57.6029 144.845 71.6895 145.523 83.3815 140.498C88.2035 138.414 93.176 137.311 97.7364 137.311C102.8 137.311 107.269 138.623 110.999 141.214C120.564 147.874 131.883 154.901 143.739 161.529C155.542 168.132 167.489 174.113 178.265 178.834C186.274 182.338 191.54 190.651 192.731 201.645C194.092 214.153 201.61 225.369 212.837 231.648C219.007 235.101 226.028 236.926 233.12 236.926C247.625 236.926 261.123 229.38 268.366 217.233C279.587 198.426 272.913 174.297 253.494 163.443ZM52.794 133.459C51.4331 134.941 47.3896 133.611 43.7584 130.481C40.1271 127.357 38.2886 123.618 39.6429 122.148C41.0038 120.665 43.3592 123.827 46.997 126.951C50.6348 130.075 54.1484 131.982 52.794 133.459ZM185.384 169.342C184.258 168.854 183.159 168.258 182.119 167.53C172.723 160.997 161.542 154.008 149.267 147.145C136.987 140.277 125.151 134.384 114.61 129.777C109.212 127.414 105.575 122.94 103.376 117.694C102.912 116.572 101.269 116.515 100.805 117.643C100.157 119.208 99.3917 120.742 98.4953 122.25C95.6427 127.034 91.7955 130.93 87.3529 133.839C90.0878 131.444 92.4825 128.605 94.4127 125.354C104.495 108.449 98.4953 86.7402 81.0326 76.9695C72.5204 72.2108 62.8372 71.1589 53.9717 73.2816C49.7908 74.2828 46.8009 74.777 49.3591 73.4336C60.1743 67.7625 73.7048 67.4837 85.1088 73.8582C95.9372 79.9158 103.69 91.8284 105.051 104.413C106.033 113.417 110.194 122.408 118.719 126.134C129.246 130.747 141.095 136.64 153.376 143.502C165.651 150.364 176.839 157.347 186.228 163.88C186.666 164.184 187.124 164.469 187.576 164.735C186.47 166.066 185.691 167.669 185.384 169.342ZM217.901 224.748C216.54 226.23 212.497 224.9 208.859 221.77C205.228 218.646 203.389 214.907 204.75 213.437C206.105 211.954 208.473 215.116 212.104 218.24C215.736 221.364 219.249 223.271 217.901 224.748ZM264.839 215.256C261.987 220.04 258.146 223.943 253.704 226.851C256.425 224.456 258.82 221.611 260.757 218.367C270.846 201.455 264.839 179.753 247.377 169.988C239.964 165.838 231.661 164.558 223.79 165.705C222.416 165.908 219.197 165.515 218.935 165.008C229.135 160.832 241.154 161.111 251.466 166.877C268.922 176.635 274.922 198.337 264.839 215.256Z" fill="white"/>
<path d="M251.46 166.87C241.155 161.104 229.13 160.826 218.929 165.001C219.191 165.508 222.41 165.901 223.784 165.698C231.655 164.551 239.964 165.825 247.371 169.982C264.834 179.74 270.84 201.448 260.751 218.36C258.814 221.611 256.42 224.45 253.698 226.845C258.14 223.936 261.981 220.04 264.834 215.249C274.923 198.337 268.923 176.635 251.46 166.87Z" fill="#1B1B1B"/>
<path d="M153.384 143.514C141.103 136.646 129.254 130.753 118.726 126.146C110.201 122.42 106.04 113.429 105.059 104.425C103.698 91.8407 95.9444 79.9219 85.1161 73.8706C73.712 67.4898 60.1879 67.7687 49.3662 73.4461C46.8079 74.7831 49.7981 74.2889 53.9789 73.294C62.8379 71.1713 72.5277 72.2232 81.0398 76.9818C98.5025 86.7526 104.502 108.455 94.4199 125.367C92.4898 128.617 90.0951 131.45 87.3602 133.851C91.8027 130.943 95.6565 127.046 98.5026 122.262C99.3989 120.754 100.164 119.22 100.812 117.655C101.27 116.527 102.912 116.584 103.384 117.706C105.582 122.953 109.22 127.426 114.618 129.79C125.151 134.396 136.994 140.289 149.275 147.158C161.549 154.02 172.737 161.009 182.126 167.542C183.166 168.271 184.265 168.866 185.391 169.354C185.698 167.688 186.477 166.078 187.589 164.76C187.138 164.494 186.68 164.215 186.241 163.905C176.839 157.359 165.651 150.377 153.384 143.514Z" fill="#1B1B1B"/>
<path d="M47.0046 126.957C43.3668 123.834 41.0115 120.672 39.6506 122.154C38.2962 123.631 40.1347 127.363 43.766 130.487C47.3972 133.617 51.4408 134.948 52.8017 133.465C54.1495 131.982 50.6359 130.075 47.0046 126.957Z" fill="#1B1B1B"/>
<path d="M212.105 218.24C208.473 215.116 206.105 211.954 204.75 213.437C203.39 214.907 205.228 218.646 208.859 221.77C212.497 224.9 216.54 226.23 217.901 224.748C219.249 223.271 215.736 221.364 212.105 218.24Z" fill="#1B1B1B"/>
<path d="M279.966 43.0703L167.508 2.99872C156.281 -0.999572 143.725 -0.999572 132.511 2.99872L20.0471 43.0703C8.05415 47.3474 0 58.5313 0 70.9063V229.076C0 241.451 8.05419 252.635 20.0537 256.912L132.498 296.984C138.112 298.98 144 300 150 300C156 300 161.882 298.986 167.495 296.984L279.953 256.912C291.946 252.635 300 241.451 300 229.076V70.9063C300.02 58.5313 291.959 47.3474 279.966 43.0703ZM283.499 229.076C283.499 234.773 279.789 239.931 274.267 241.901L161.797 281.973C154.24 284.672 145.786 284.672 138.216 281.973L25.7588 241.901C20.2302 239.931 16.5205 234.773 16.5205 229.076V70.9063C16.5205 65.2035 20.2303 60.052 25.7525 58.0814L138.223 18.0097C141.998 16.6601 145.97 15.9758 150.013 15.9758C154.056 15.9758 158.028 16.6601 161.81 18.0097L274.267 58.0814C279.796 60.052 283.506 65.2035 283.506 70.9063V229.076H283.499Z" fill="white"/>
</svg>
